{"glyphs":{"0":{"ha":799,"x_min":0,"x_max":0,"o":"m 399 -14 b 725 482 593 -14 725 85 b 399 978 725 878 593 978 b 74 482 207 978 74 878 b 399 -14 74 85 207 -14 z m 399 90 b 201 482 264 90 201 172 b 399 872 201 790 264 872 b 599 482 535 872 599 790 b 399 90 599 172 535 90 z "},"1":{"ha":799,"x_min":0,"x_max":0,"o":"m 379 0 l 504 0 l 504 964 l 422 964 l 140 906 l 140 804 l 379 850 z "},"2":{"ha":799,"x_min":0,"x_max":0,"o":"m 79 0 l 714 0 l 714 106 l 217 106 l 217 118 l 272 161 b 675 701 583 410 675 526 b 365 978 675 899 554 978 b 146 956 285 978 211 971 l 146 849 b 351 874 221 868 290 874 b 556 703 446 874 556 842 b 79 132 556 565 489 453 z "},"3":{"ha":799,"x_min":0,"x_max":0,"o":"m 314 -14 b 685 265 569 -14 685 88 b 489 497 685 393 625 474 l 489 506 b 660 725 594 538 660 600 b 344 978 660 901 551 978 b 143 950 271 978 190 965 l 143 847 b 339 875 204 865 283 875 b 544 718 478 875 544 831 b 288 546 544 613 456 546 l 213 546 l 213 450 l 289 450 b 565 267 472 450 565 404 b 313 90 565 132 457 90 b 97 114 239 90 171 96 l 97 4 b 314 -14 161 -8 236 -14 z "},"4":{"ha":799,"x_min":0,"x_max":0,"o":"m 735 343 l 621 343 l 621 964 l 471 964 l 49 372 l 49 238 l 504 238 l 504 0 l 621 0 l 621 238 l 735 238 z m 154 343 l 154 351 l 496 836 l 504 836 l 504 343 z "},"5":{"ha":799,"x_min":0,"x_max":0,"o":"m 318 -14 b 703 307 553 -14 703 79 b 354 600 703 513 578 600 b 242 592 310 600 276 597 l 282 856 l 638 856 l 638 964 l 188 964 l 122 485 b 307 506 183 496 256 506 b 583 299 507 506 583 443 b 317 90 583 140 476 90 b 119 114 243 90 192 96 l 119 4 b 318 -14 182 -8 242 -14 z "},"6":{"ha":799,"x_min":0,"x_max":0,"o":"m 399 -14 b 713 317 615 -14 713 128 b 419 628 713 526 599 628 b 213 549 326 628 249 586 l 208 549 b 594 872 224 731 357 872 l 596 978 b 79 374 232 978 79 733 b 399 -14 79 75 222 -14 z m 397 90 b 199 339 267 90 199 172 b 414 532 199 453 264 532 b 599 317 522 532 599 461 b 397 90 599 165 528 90 z "},"7":{"ha":799,"x_min":0,"x_max":0,"o":"m 188 0 l 315 0 l 711 842 l 711 964 l 75 964 l 75 856 l 604 856 z "},"8":{"ha":799,"x_min":0,"x_max":0,"o":"m 399 -14 b 728 254 607 -14 728 69 b 557 496 728 404 651 468 l 557 501 b 696 721 650 539 696 606 b 399 978 696 874 607 978 b 101 721 192 978 101 874 b 240 501 101 600 160 539 l 240 496 b 69 256 160 468 69 406 b 399 -14 69 71 192 -14 z m 399 542 b 214 713 254 542 214 618 b 399 878 214 824 274 878 b 583 713 522 878 583 817 b 399 542 583 618 536 542 z m 399 88 b 186 260 247 88 186 156 b 399 450 186 390 254 450 b 613 260 543 450 613 390 b 399 88 613 156 550 88 z "},"9":{"ha":799,"x_min":0,"x_max":0,"o":"m 199 -17 b 713 586 563 -17 713 226 b 394 978 713 882 571 978 b 79 640 179 978 79 829 b 375 336 79 429 197 336 b 581 415 469 336 546 376 l 586 415 b 200 88 568 231 443 88 z m 379 431 b 196 640 272 431 196 497 b 394 875 196 792 264 875 b 596 622 525 875 596 785 b 379 431 596 507 529 431 z "},"\u0000":{"ha":0,"x_min":0,"x_max":0,"o":""},"\r":{"ha":357,"x_min":0,"x_max":0,"o":""}," ":{"ha":357,"x_min":0,"x_max":0,"o":""},"!":{"ha":496,"x_min":0,"x_max":0,"o":"m 201 281 l 296 281 l 317 964 l 181 964 z m 247 -8 b 336 79 311 -8 336 3 b 247 167 336 154 311 167 b 160 79 183 167 160 154 b 247 -8 160 3 183 -8 z "},"\"":{"ha":563,"x_min":0,"x_max":0,"o":"m 139 644 l 214 644 l 246 1056 l 107 1056 z m 349 644 l 425 644 l 456 1056 l 317 1056 z "},"#":{"ha":833,"x_min":0,"x_max":0,"o":"m 808 613 l 808 710 l 690 710 l 743 964 l 631 964 l 578 710 l 354 710 l 407 964 l 294 964 l 242 710 l 25 710 l 25 613 l 221 613 l 168 364 l 25 364 l 25 267 l 147 267 l 92 0 l 204 0 l 260 267 l 483 267 l 428 0 l 540 0 l 596 267 l 808 267 l 808 364 l 617 364 l 669 613 z m 504 364 l 281 364 l 333 613 l 557 613 z "},"$":{"ha":799,"x_min":0,"x_max":0,"o":"m 693 278 b 431 549 693 442 610 503 l 431 864 b 646 829 511 860 600 846 l 646 932 b 431 964 607 946 514 960 l 431 1093 l 343 1093 l 343 964 b 103 718 179 953 103 868 b 343 464 103 554 161 511 l 343 115 b 88 154 238 118 142 135 l 88 46 b 343 13 132 29 235 15 l 343 -192 l 431 -192 l 431 14 b 693 278 611 28 693 108 z m 213 718 b 343 864 213 828 250 858 l 343 571 b 213 718 229 606 213 640 z m 431 118 l 431 440 b 583 268 553 404 583 371 b 431 118 583 167 535 128 z "},"%":{"ha":1140,"x_min":0,"x_max":0,"o":"m 292 449 b 489 713 413 449 489 507 b 292 978 489 918 413 978 b 94 713 171 978 94 918 b 292 449 94 507 171 449 z m 253 0 l 344 0 l 885 964 l 792 964 z m 292 521 b 188 713 215 521 188 563 b 292 901 188 861 215 901 b 397 713 371 901 397 861 b 292 521 397 563 371 521 z m 849 -14 b 1046 250 969 -14 1046 44 b 849 515 1046 456 969 515 b 650 250 728 515 650 456 b 849 -14 650 44 728 -14 z m 849 58 b 744 250 772 58 744 100 b 849 439 744 399 772 439 b 953 250 928 439 953 399 b 849 58 953 100 928 58 z "},"&":{"ha":889,"x_min":0,"x_max":0,"o":"m 714 179 b 844 500 796 278 828 382 l 724 500 b 640 267 718 426 692 343 l 438 515 b 653 771 582 586 653 656 b 433 978 653 885 574 978 b 196 750 297 978 196 886 b 269 543 196 681 210 626 b 54 249 110 456 54 361 b 351 -14 54 92 172 -14 b 628 94 447 -14 536 17 b 889 0 699 15 756 0 l 889 106 b 714 179 801 106 758 131 z m 431 875 b 531 765 493 875 531 829 b 376 594 531 689 481 644 b 321 756 333 657 321 704 b 431 875 321 825 368 875 z m 181 263 b 332 463 181 335 222 399 l 563 175 b 367 93 496 115 439 93 b 181 263 256 93 181 158 z "},"'":{"ha":351,"x_min":0,"x_max":0,"o":"m 139 644 l 214 644 l 246 1056 l 107 1056 z "},"(":{"ha":499,"x_min":0,"x_max":0,"o":"m 310 -278 l 424 -278 b 210 390 278 -53 210 163 b 428 1056 210 611 276 819 l 314 1056 b 90 381 169 846 90 626 b 310 -278 90 147 167 -72 z "},")":{"ha":499,"x_min":0,"x_max":0,"o":"m 69 -278 l 185 -278 b 408 397 329 -68 408 151 b 189 1056 408 631 332 850 l 75 1056 b 288 388 219 831 288 615 b 69 -278 288 167 221 -42 z "},"*":{"ha":597,"x_min":0,"x_max":0,"o":"m 200 567 l 299 731 l 399 567 l 494 636 l 369 782 l 556 825 l 518 939 l 343 865 l 358 1056 l 239 1056 l 254 865 l 79 939 l 42 825 l 228 782 l 104 636 z "},"+":{"ha":767,"x_min":0,"x_max":0,"o":"m 718 476 l 442 476 l 442 751 l 324 751 l 324 476 l 49 476 l 49 358 l 324 358 l 324 82 l 442 82 l 442 358 l 718 358 z "},",":{"ha":419,"x_min":0,"x_max":0,"o":"m 53 -189 l 151 -189 b 299 176 218 -100 299 57 l 183 176 b 53 -189 183 72 128 -74 z "},"-":{"ha":611,"x_min":0,"x_max":0,"o":"m 100 376 l 510 376 l 510 476 l 100 476 z "},".":{"ha":419,"x_min":0,"x_max":0,"o":"m 210 -8 b 299 81 274 -8 299 3 b 210 167 299 156 274 167 b 121 81 144 167 121 156 b 210 -8 121 3 144 -8 z "},"/":{"ha":694,"x_min":0,"x_max":0,"o":"m 107 -42 l 214 -42 l 588 1006 l 481 1006 z "},":":{"ha":525,"x_min":0,"x_max":0,"o":"m 263 583 b 351 671 326 583 351 594 b 263 758 351 747 326 758 b 174 671 197 758 174 747 b 263 583 174 594 197 583 z m 263 -8 b 351 81 326 -8 351 3 b 263 167 351 156 326 167 b 174 81 197 167 174 156 b 263 -8 174 3 197 -8 z "},";":{"ha":525,"x_min":0,"x_max":0,"o":"m 263 583 b 351 671 326 583 351 594 b 263 758 351 747 326 758 b 174 671 197 758 174 747 b 263 583 174 594 197 583 z m 92 -189 l 189 -189 b 336 176 256 -100 336 57 l 222 176 b 92 -189 222 72 165 -74 z "},"<":{"ha":767,"x_min":0,"x_max":0,"o":"m 718 771 l 49 499 l 49 335 l 718 63 l 718 181 l 138 417 l 718 653 z "},"=":{"ha":767,"x_min":0,"x_max":0,"o":"m 49 522 l 718 522 l 718 640 l 49 640 z m 49 194 l 718 194 l 718 313 l 49 313 z "},">":{"ha":767,"x_min":0,"x_max":0,"o":"m 49 771 l 49 653 l 629 417 l 49 181 l 49 63 l 718 335 l 718 499 z "},"?":{"ha":599,"x_min":0,"x_max":0,"o":"m 211 276 l 321 276 l 321 318 b 428 474 321 381 346 414 b 568 732 515 538 568 581 b 271 975 568 922 471 975 b 58 944 175 975 103 958 l 58 833 b 258 864 111 853 194 864 b 439 719 397 864 439 836 b 336 540 439 639 421 607 b 211 338 235 460 211 407 z m 267 -8 b 356 79 331 -8 356 3 b 267 167 356 154 331 167 b 179 79 203 167 179 154 b 267 -8 179 3 203 -8 z "},"@":{"ha":1194,"x_min":0,"x_max":0,"o":"m 631 -153 b 946 -103 736 -153 840 -136 l 946 -10 b 642 -56 846 -40 744 -56 b 186 369 335 -56 186 90 b 671 881 186 682 401 881 b 1046 522 906 881 1046 764 b 901 221 1046 340 986 221 b 829 308 858 221 829 257 b 842 399 829 326 833 357 l 899 688 l 797 688 l 785 619 b 638 694 757 667 707 694 b 349 333 490 694 349 568 b 546 126 349 207 418 126 b 751 214 633 126 696 153 b 893 129 782 157 829 129 b 1153 529 1049 129 1153 296 b 672 976 1153 815 976 976 b 78 368 347 976 78 735 b 631 -153 78 47 268 -153 z m 564 221 b 457 332 478 221 457 276 b 636 604 457 463 518 604 b 750 474 732 604 750 553 b 743 414 750 460 747 436 b 564 221 722 296 663 221 z "},"A":{"ha":926,"x_min":0,"x_max":0,"o":"m 779 0 l 911 0 l 547 964 l 381 964 l 15 0 l 143 0 l 249 288 l 675 288 z m 290 399 l 456 847 l 472 847 l 635 399 z "},"B":{"ha":861,"x_min":0,"x_max":0,"o":"m 128 0 l 433 0 b 761 275 688 0 761 100 b 589 499 761 389 719 472 l 589 504 b 729 708 690 535 729 608 b 406 964 729 882 658 964 l 128 964 z m 253 542 l 253 858 l 347 858 b 607 701 532 858 607 843 b 347 542 607 575 532 542 z m 253 107 l 253 443 l 382 443 b 636 276 578 443 636 394 b 382 107 636 139 579 107 z "},"C":{"ha":832,"x_min":0,"x_max":0,"o":"m 539 -14 b 772 28 636 -14 718 4 l 772 136 b 543 99 699 111 633 99 b 231 485 329 99 231 178 b 556 868 231 772 336 868 b 761 835 640 868 706 856 l 761 950 b 553 978 704 968 642 978 b 100 482 275 978 100 854 b 539 -14 100 79 274 -14 z "},"D":{"ha":971,"x_min":0,"x_max":0,"o":"m 406 964 l 128 964 l 128 0 l 406 0 b 871 482 682 0 871 110 b 406 964 871 883 682 964 z m 403 110 l 253 110 l 253 856 l 403 856 b 742 482 599 856 742 790 b 403 110 742 192 604 110 z "},"E":{"ha":772,"x_min":0,"x_max":0,"o":"m 253 113 l 253 449 l 636 449 l 636 554 l 253 554 l 253 853 l 664 853 l 664 964 l 128 964 l 128 0 l 699 0 l 699 113 z "},"F":{"ha":732,"x_min":0,"x_max":0,"o":"m 664 853 l 664 964 l 128 964 l 128 0 l 253 0 l 253 429 l 636 429 l 636 540 l 253 540 l 253 853 z "},"G":{"ha":951,"x_min":0,"x_max":0,"o":"m 551 -14 b 842 26 674 -14 772 4 l 842 517 l 529 517 l 529 411 l 722 411 l 722 113 b 565 94 678 100 610 94 b 231 482 349 94 231 154 b 571 868 231 794 356 868 b 817 829 668 868 753 854 l 817 940 b 565 978 760 964 654 978 b 100 482 275 978 100 854 b 551 -14 100 79 271 -14 z "},"H":{"ha":983,"x_min":0,"x_max":0,"o":"m 729 964 l 729 571 l 253 571 l 253 964 l 128 964 l 128 0 l 253 0 l 253 467 l 729 467 l 729 0 l 856 0 l 856 964 z "},"I":{"ha":381,"x_min":0,"x_max":0,"o":"m 128 0 l 253 0 l 253 964 l 128 964 z "},"J":{"ha":376,"x_min":0,"x_max":0,"o":"m -8 -251 b 254 22 171 -251 254 -146 l 254 964 l 129 964 l 129 35 b -12 -142 129 -71 89 -142 b -106 -132 -58 -142 -83 -136 l -106 -243 b -8 -251 -79 -249 -36 -251 z "},"K":{"ha":853,"x_min":0,"x_max":0,"o":"m 419 515 l 814 964 l 658 964 l 321 563 l 253 563 l 253 964 l 128 964 l 128 0 l 253 0 l 253 453 l 321 453 l 665 0 l 826 0 z "},"L":{"ha":704,"x_min":0,"x_max":0,"o":"m 253 113 l 253 964 l 128 964 l 128 0 l 671 0 l 671 113 z "},"M":{"ha":1153,"x_min":0,"x_max":0,"o":"m 128 0 l 250 0 l 250 838 l 258 838 l 508 218 l 644 218 l 892 838 l 900 838 l 900 0 l 1025 0 l 1025 964 l 828 964 l 582 343 l 574 343 l 328 964 l 128 964 z "},"N":{"ha":1024,"x_min":0,"x_max":0,"o":"m 128 0 l 250 0 l 250 849 l 258 849 l 731 0 l 896 0 l 896 964 l 771 964 l 771 164 l 763 164 l 324 964 l 128 964 z "},"O":{"ha":1032,"x_min":0,"x_max":0,"o":"m 515 -14 b 931 482 789 -14 931 93 b 515 978 931 869 789 978 b 100 482 243 978 100 869 b 515 -14 100 93 243 -14 z m 515 93 b 231 482 281 93 231 207 b 515 872 231 749 281 872 b 801 482 751 872 801 749 b 515 93 801 207 751 93 z "},"P":{"ha":829,"x_min":0,"x_max":0,"o":"m 128 0 l 253 0 l 253 342 l 396 342 b 749 656 646 342 749 429 b 396 964 749 869 668 964 l 128 964 z m 253 446 l 253 856 l 385 856 b 621 656 564 856 621 803 b 385 446 621 493 564 446 z "},"Q":{"ha":1032,"x_min":0,"x_max":0,"o":"m 931 482 b 515 978 931 869 789 978 b 100 482 243 978 100 869 b 515 -14 100 93 243 -14 l 522 -14 l 657 -201 l 806 -201 l 646 -3 b 931 482 833 32 931 160 z m 515 93 b 231 482 281 93 231 207 b 515 872 231 749 281 872 b 801 482 751 872 801 749 b 515 93 801 207 751 93 z "},"R":{"ha":853,"x_min":0,"x_max":0,"o":"m 832 0 l 543 403 b 740 679 676 433 740 513 b 372 964 740 892 642 964 l 128 964 l 128 0 l 253 0 l 253 388 l 372 388 b 419 389 389 388 404 388 l 685 0 z m 361 492 l 253 492 l 253 856 l 361 856 b 614 679 540 856 614 825 b 361 492 614 515 540 492 z "},"S":{"ha":786,"x_min":0,"x_max":0,"o":"m 365 -14 b 707 260 588 -14 707 72 b 414 556 707 449 629 506 b 217 718 240 596 217 628 b 415 869 217 843 281 869 b 656 831 503 869 600 851 l 656 944 b 414 979 610 963 507 979 b 93 718 196 979 93 893 b 363 451 93 547 165 499 b 585 258 543 408 585 376 b 365 96 585 139 510 96 b 79 139 251 96 136 118 l 79 24 b 365 -14 126 7 246 -14 z "},"T":{"ha":733,"x_min":0,"x_max":0,"o":"m 710 964 l 22 964 l 22 853 l 304 853 l 304 0 l 429 0 l 429 853 l 710 853 z "},"U":{"ha":974,"x_min":0,"x_max":0,"o":"m 486 -14 b 851 311 729 -14 851 83 l 851 964 l 728 964 l 728 339 b 488 96 728 156 674 96 b 247 339 310 96 247 156 l 247 964 l 124 964 l 124 311 b 486 -14 124 76 244 -14 z "},"V":{"ha":857,"x_min":0,"x_max":0,"o":"m 349 0 l 504 0 l 836 964 l 710 964 l 435 132 l 426 132 l 156 964 l 22 964 z "},"W":{"ha":1247,"x_min":0,"x_max":0,"o":"m 261 0 l 419 0 l 619 714 l 628 714 l 824 0 l 982 0 l 1211 964 l 1085 964 l 906 146 l 897 146 l 701 851 l 551 851 l 356 146 l 347 146 l 167 964 l 36 964 z "},"X":{"ha":867,"x_min":0,"x_max":0,"o":"m 32 0 l 172 0 l 432 414 l 440 414 l 688 0 l 833 0 l 521 499 l 822 964 l 686 964 l 442 568 l 433 568 l 204 964 l 58 964 l 349 490 z "},"Y":{"ha":825,"x_min":0,"x_max":0,"o":"m 349 0 l 474 0 l 474 415 l 817 964 l 679 964 l 421 528 l 413 528 l 153 964 l 8 964 l 349 414 z "},"Z":{"ha":869,"x_min":0,"x_max":0,"o":"m 81 0 l 810 0 l 810 113 l 215 113 l 215 121 l 778 844 l 778 964 l 108 964 l 108 853 l 633 853 l 635 844 l 81 128 z "},"[":{"ha":408,"x_min":0,"x_max":0,"o":"m 97 -278 l 360 -278 l 360 -175 l 218 -175 l 218 953 l 360 953 l 360 1056 l 97 1056 z "},"\\":{"ha":708,"x_min":0,"x_max":0,"o":"m 563 -139 l 675 -139 l 144 1056 l 32 1056 z "},"]":{"ha":408,"x_min":0,"x_max":0,"o":"m 47 -278 l 311 -278 l 311 1056 l 47 1056 l 47 953 l 190 953 l 190 -175 l 47 -175 z "},"^":{"ha":767,"x_min":0,"x_max":0,"o":"m 681 438 l 467 964 l 303 964 l 86 438 l 204 438 l 383 876 l 563 438 z "},"_":{"ha":694,"x_min":0,"x_max":0,"o":"m 0 -283 l 694 -283 l 694 -186 l 0 -186 z "},"`":{"ha":481,"x_min":0,"x_max":0,"o":"m 251 854 l 349 854 l 232 1046 l 78 1046 z "},"a":{"ha":850,"x_min":0,"x_max":0,"o":"m 424 764 b 253 753 369 764 308 760 l 253 647 b 418 664 307 658 368 664 b 603 511 571 664 603 601 l 603 449 l 374 449 b 76 210 194 449 76 388 b 335 -14 76 68 156 -14 b 603 114 447 -14 560 32 l 621 0 l 722 0 l 722 532 b 424 764 722 667 660 764 z m 346 86 b 200 211 240 86 200 129 b 382 353 200 328 258 353 l 603 353 l 603 229 b 346 86 564 140 471 86 z "},"b":{"ha":882,"x_min":0,"x_max":0,"o":"m 489 764 b 246 615 346 764 276 704 l 246 1056 l 126 1056 l 126 0 l 231 0 l 246 131 b 489 -14 276 43 343 -14 b 799 375 740 -14 799 168 b 489 764 799 604 740 764 z m 474 88 b 240 375 293 88 240 203 b 474 664 240 554 293 664 b 674 375 647 664 674 532 b 474 88 674 229 651 88 z "},"c":{"ha":690,"x_min":0,"x_max":0,"o":"m 429 -14 b 628 14 500 -14 586 -1 l 628 124 b 432 92 574 101 503 92 b 210 374 265 92 210 156 b 431 660 210 594 265 660 b 625 626 507 660 569 647 l 625 736 b 429 764 583 750 513 764 b 82 375 208 764 82 674 b 429 -14 82 76 208 -14 z "},"d":{"ha":882,"x_min":0,"x_max":0,"o":"m 638 1056 l 638 619 b 393 764 607 707 540 764 b 83 375 144 764 83 581 b 393 -14 83 146 144 -14 b 638 124 529 -14 608 44 l 656 0 l 757 0 l 757 1056 z m 411 88 b 211 375 235 88 211 218 b 411 664 211 521 231 664 b 642 375 592 664 642 547 b 411 88 642 196 592 88 z "},"e":{"ha":803,"x_min":0,"x_max":0,"o":"m 722 450 b 422 764 722 596 678 764 b 82 375 208 764 82 674 b 429 -14 82 76 208 -14 b 682 31 536 -14 639 8 l 682 140 b 447 92 625 113 529 92 b 207 331 265 92 208 167 l 715 363 b 722 450 719 397 722 429 z m 207 419 b 422 665 211 572 250 665 b 604 449 585 665 604 564 z "},"f":{"ha":485,"x_min":0,"x_max":0,"o":"m 403 965 b 486 958 435 965 465 963 l 486 1054 b 403 1061 460 1058 431 1061 b 150 757 250 1061 150 1017 l 150 750 l 25 750 l 25 651 l 150 651 l 150 0 l 269 0 l 269 651 l 446 651 l 446 750 l 269 750 b 403 965 271 921 300 965 z "},"g":{"ha":883,"x_min":0,"x_max":0,"o":"m 638 750 l 638 610 b 394 764 608 699 546 764 b 83 382 144 764 83 589 b 394 0 83 153 144 0 b 638 140 539 0 607 53 l 638 65 b 392 -175 638 -107 558 -175 b 208 -158 328 -175 265 -169 l 208 -260 b 390 -278 256 -269 326 -278 b 757 53 644 -278 757 -154 l 757 750 z m 411 100 b 211 382 235 100 211 225 b 411 664 211 528 231 664 b 642 382 592 664 642 554 b 411 100 642 203 592 100 z "},"h":{"ha":858,"x_min":0,"x_max":0,"o":"m 486 764 b 246 643 394 764 292 739 l 246 1056 l 126 1056 l 126 0 l 246 0 l 246 507 b 474 657 288 639 379 657 b 618 475 593 657 618 590 l 618 0 l 738 0 l 738 519 b 486 764 738 663 682 764 z "},"i":{"ha":372,"x_min":0,"x_max":0,"o":"m 188 888 b 258 958 238 888 258 897 b 188 1029 258 1021 238 1029 b 115 958 135 1029 115 1021 b 188 888 115 897 135 888 z m 126 0 l 246 0 l 246 750 l 126 750 z "},"j":{"ha":372,"x_min":0,"x_max":0,"o":"m 188 888 b 258 958 238 888 258 897 b 188 1029 258 1021 238 1029 b 115 958 135 1029 115 1021 b 188 888 115 897 135 888 z m -10 -278 b 246 10 161 -278 246 -232 l 246 750 l 126 750 l 126 22 b -1 -179 126 -131 106 -179 b -97 -172 -36 -179 -72 -175 l -97 -271 b -10 -278 -68 -275 -39 -278 z "},"k":{"ha":719,"x_min":0,"x_max":0,"o":"m 382 401 l 697 750 l 549 750 l 289 443 l 246 443 l 246 1056 l 126 1056 l 126 0 l 246 0 l 246 350 l 286 350 l 560 0 l 714 0 z "},"l":{"ha":397,"x_min":0,"x_max":0,"o":"m 293 -8 b 372 0 326 -8 350 -6 l 372 99 b 315 92 353 93 332 92 b 246 182 267 92 246 107 l 246 1056 l 126 1056 l 126 151 b 293 -8 126 39 182 -8 z "},"m":{"ha":1279,"x_min":0,"x_max":0,"o":"m 914 764 b 681 642 822 764 725 739 b 463 764 649 717 581 764 b 246 651 372 764 292 740 l 246 750 l 126 750 l 126 0 l 246 0 l 246 521 b 444 657 283 636 351 657 b 582 475 554 657 582 590 l 582 0 l 701 0 l 701 519 l 701 525 b 896 657 733 632 808 657 b 1040 475 1008 657 1040 590 l 1040 0 l 1160 0 l 1160 518 b 914 764 1160 663 1089 764 z "},"n":{"ha":858,"x_min":0,"x_max":0,"o":"m 486 764 b 246 643 394 764 292 739 l 246 750 l 126 750 l 126 0 l 246 0 l 246 507 b 474 657 288 639 379 657 b 617 475 593 657 617 590 l 617 0 l 738 0 l 738 519 b 486 764 738 663 682 764 z "},"o":{"ha":858,"x_min":0,"x_max":0,"o":"m 429 -14 b 775 375 651 -14 775 76 b 429 764 775 674 651 764 b 82 375 208 764 82 674 b 429 -14 82 76 208 -14 z m 429 88 b 210 375 267 88 210 156 b 429 664 210 594 261 664 b 649 375 593 664 649 594 b 429 88 649 156 599 88 z "},"p":{"ha":882,"x_min":0,"x_max":0,"o":"m 489 764 b 246 615 346 764 276 704 l 246 750 l 126 750 l 126 -278 l 246 -278 l 246 131 b 489 -14 276 43 343 -14 b 799 375 740 -14 799 168 b 489 764 799 604 740 764 z m 474 88 b 240 375 293 88 240 203 b 474 664 240 554 293 664 b 674 375 647 664 674 533 b 474 88 674 229 651 88 z "},"q":{"ha":883,"x_min":0,"x_max":0,"o":"m 639 750 l 639 615 b 393 764 608 706 543 764 b 83 375 144 764 83 581 b 393 -14 83 146 144 -14 b 639 142 542 -14 610 49 l 639 -278 l 758 -278 l 758 750 z m 411 88 b 211 375 235 88 211 218 b 411 664 211 521 231 664 b 642 375 592 664 642 547 b 411 88 642 196 592 88 z "},"r":{"ha":526,"x_min":0,"x_max":0,"o":"m 485 764 b 246 614 394 764 293 739 l 246 750 l 126 750 l 126 0 l 246 0 l 246 490 b 478 656 288 624 382 656 l 494 656 l 499 764 z "},"s":{"ha":665,"x_min":0,"x_max":0,"o":"m 300 -8 b 585 208 483 -8 585 60 b 350 439 585 353 522 400 b 207 558 233 465 207 482 b 365 667 207 643 260 667 b 544 638 435 667 501 654 l 553 739 b 364 764 517 753 436 764 b 94 561 186 764 94 682 b 304 344 94 435 139 382 b 472 204 447 311 472 293 b 299 89 472 117 413 89 b 82 118 231 89 135 103 l 82 15 b 300 -8 124 3 228 -8 z "},"t":{"ha":468,"x_min":0,"x_max":0,"o":"m 360 92 b 251 236 268 92 251 119 l 251 650 l 438 650 l 438 750 l 251 750 l 251 928 l 132 928 l 132 750 l 21 750 l 21 650 l 132 650 l 132 229 b 357 -8 132 32 192 -8 b 442 -1 389 -8 413 -6 l 442 100 b 360 92 415 94 393 92 z "},"u":{"ha":851,"x_min":0,"x_max":0,"o":"m 606 750 l 606 240 b 385 92 563 111 479 92 b 240 275 265 92 240 161 l 240 750 l 121 750 l 121 231 b 372 -14 121 86 176 -14 b 608 108 464 -14 563 10 l 624 0 l 725 0 l 725 750 z "},"v":{"ha":731,"x_min":0,"x_max":0,"o":"m 294 0 l 436 0 l 717 750 l 590 750 l 371 119 l 363 119 l 135 750 l 14 750 z "},"w":{"ha":1150,"x_min":0,"x_max":0,"o":"m 233 0 l 382 0 l 569 615 l 578 615 l 764 0 l 913 0 l 1121 750 l 1003 750 l 844 121 l 836 121 l 644 750 l 503 750 l 317 121 l 308 121 l 150 750 l 31 750 z "},"x":{"ha":717,"x_min":0,"x_max":0,"o":"m 19 0 l 153 0 l 356 310 l 364 310 l 561 0 l 697 0 l 442 385 l 683 750 l 551 750 l 365 454 l 357 454 l 168 750 l 35 750 l 278 382 z "},"y":{"ha":732,"x_min":0,"x_max":0,"o":"m 93 -278 b 449 25 314 -278 378 -162 l 718 750 l 597 750 l 381 128 l 372 128 l 143 750 l 14 750 l 314 1 b 93 -175 276 -119 224 -175 z "},"z":{"ha":703,"x_min":0,"x_max":0,"o":"m 61 0 l 653 0 l 653 103 l 204 103 l 204 111 l 629 660 l 629 750 l 94 750 l 94 651 l 483 651 l 483 643 l 61 97 z "},"{":{"ha":415,"x_min":0,"x_max":0,"o":"m 368 -278 l 368 -167 b 278 -65 299 -167 278 -146 l 278 249 b 208 389 278 321 254 364 b 278 529 254 414 278 457 l 278 843 b 368 944 278 924 299 944 l 368 1056 b 157 843 229 1056 157 985 l 157 529 b 68 444 157 464 136 444 l 68 333 b 157 249 136 333 157 314 l 157 -65 b 368 -278 157 -207 229 -278 z "},"|":{"ha":254,"x_min":0,"x_max":0,"o":"m 69 -278 l 185 -278 l 185 1056 l 69 1056 z "},"}":{"ha":415,"x_min":0,"x_max":0,"o":"m 47 -278 b 258 -65 188 -278 258 -207 l 258 249 b 347 333 258 314 281 333 l 347 444 b 258 529 281 444 258 464 l 258 843 b 47 1056 258 985 188 1056 l 47 944 b 138 843 117 944 138 924 l 138 529 b 207 389 138 457 161 414 b 138 249 161 364 138 321 l 138 -65 b 47 -167 138 -146 117 -167 z "},"~":{"ha":767,"x_min":0,"x_max":0,"o":"m 538 300 b 728 518 647 300 717 382 l 619 526 b 538 410 613 446 583 410 b 415 463 485 410 458 431 b 231 533 374 492 317 533 b 39 315 119 533 50 451 l 147 307 b 231 424 154 388 183 424 b 351 371 281 424 308 403 b 538 300 393 342 450 300 z "}," ":{"ha":357,"x_min":0,"x_max":0,"o":""},"¡":{"ha":496,"x_min":0,"x_max":0,"o":"m 247 758 b 160 671 185 758 160 747 b 247 583 160 596 185 583 b 336 671 313 583 336 596 b 247 758 336 747 313 758 z m 294 469 l 200 469 l 179 -214 l 315 -214 z "},"¢":{"ha":799,"x_min":0,"x_max":0,"o":"m 532 272 l 528 272 l 528 701 l 532 701 b 726 668 607 701 671 689 l 726 778 b 531 806 683 792 613 806 l 528 806 l 528 964 l 440 964 l 440 801 b 128 486 226 783 128 689 b 440 169 128 275 226 188 l 440 -25 l 528 -25 l 528 167 l 531 167 b 729 194 601 167 688 179 l 729 304 b 532 272 675 282 603 272 z m 256 485 b 440 697 256 613 294 679 l 440 276 b 256 485 294 292 256 350 z "},"£":{"ha":799,"x_min":0,"x_max":0,"o":"m 293 110 b 375 332 347 185 375 257 b 361 453 375 375 369 415 l 589 453 l 589 543 l 338 543 b 313 699 324 593 313 643 b 522 883 313 818 378 883 b 693 864 576 883 632 878 l 693 961 b 518 982 632 975 574 982 b 186 694 310 982 186 872 b 214 543 186 646 199 596 l 93 543 l 93 453 l 239 453 b 257 329 250 413 257 371 b 146 92 257 243 219 164 l 146 0 l 726 0 l 726 110 z "},"¤":{"ha":799,"x_min":0,"x_max":0,"o":"m 681 465 b 647 636 681 533 669 590 l 735 725 l 658 800 l 579 722 b 400 776 533 758 474 776 b 219 722 326 776 265 758 l 140 800 l 64 725 l 151 636 b 118 465 129 590 118 533 b 151 294 118 397 129 340 l 64 206 l 140 131 l 219 208 b 400 154 265 172 326 154 b 579 208 474 154 533 172 l 658 131 l 735 206 l 647 294 b 681 465 669 340 681 397 z m 400 264 b 226 465 288 264 226 335 b 400 667 226 596 288 667 b 572 465 511 667 572 596 b 400 264 572 335 511 264 z "},"¥":{"ha":799,"x_min":0,"x_max":0,"o":"m 772 964 l 640 964 l 407 571 l 397 571 l 163 964 l 25 964 l 300 542 l 122 542 l 122 453 l 340 453 l 340 343 l 122 343 l 122 256 l 340 256 l 340 0 l 457 0 l 457 256 l 676 256 l 676 343 l 457 343 l 457 453 l 676 453 l 676 542 l 497 542 z "},"¦":{"ha":254,"x_min":0,"x_max":0,"o":"m 69 589 l 185 589 l 185 1056 l 69 1056 z m 69 -278 l 185 -278 l 185 189 l 69 189 z "},"§":{"ha":665,"x_min":0,"x_max":0,"o":"m 508 256 b 585 419 565 292 585 351 b 350 650 585 564 522 611 b 207 769 233 676 207 693 b 365 878 207 854 260 878 b 544 849 435 878 501 865 l 553 950 b 364 975 517 964 436 975 b 94 772 186 975 94 893 b 182 597 94 685 115 633 b 94 435 122 557 94 494 b 304 218 94 308 139 256 b 472 78 447 185 472 167 b 299 -37 472 -10 413 -37 b 82 -8 231 -37 135 -24 l 82 -111 b 300 -135 124 -124 228 -135 b 585 82 483 -135 585 -67 b 508 256 585 168 563 219 z m 206 433 b 299 557 206 504 243 533 b 304 556 301 557 303 556 b 475 414 449 522 475 503 b 401 300 475 356 447 322 l 350 313 b 206 433 232 339 206 356 z "},"¨":{"ha":481,"x_min":0,"x_max":0,"o":"m 121 888 b 190 958 169 888 190 897 b 121 1028 190 1019 169 1028 b 49 958 68 1028 49 1019 b 121 888 49 897 68 888 z m 361 888 b 432 958 411 888 432 897 b 361 1028 432 1019 411 1028 b 290 958 310 1028 290 1019 b 361 888 290 897 310 888 z "},"©":{"ha":1119,"x_min":0,"x_max":0,"o":"m 558 -18 b 1060 488 849 -18 1060 192 b 563 983 1060 778 853 983 b 60 479 264 983 60 772 b 558 -18 60 185 264 -18 z m 560 68 b 150 483 311 68 150 232 b 560 897 150 722 314 897 b 968 485 807 897 968 733 b 560 68 968 242 804 68 z m 596 207 b 744 232 650 207 714 218 l 744 325 b 597 299 704 306 651 299 b 424 479 468 299 424 339 b 597 667 424 625 467 667 b 738 639 650 667 696 657 l 738 733 b 596 757 707 744 654 757 b 314 481 415 757 314 693 b 596 207 314 271 417 207 z "},"ª":{"ha":671,"x_min":0,"x_max":0,"o":"m 321 849 b 200 842 289 849 243 847 l 200 751 b 310 761 239 758 279 761 b 432 681 422 761 432 725 l 432 661 l 286 661 b 76 519 175 661 76 638 b 254 383 76 431 135 383 b 432 450 338 383 408 411 l 443 392 l 543 392 l 543 706 b 321 849 543 779 511 849 z m 279 464 b 190 524 217 464 190 483 b 300 589 190 579 232 589 l 432 589 l 432 532 b 279 464 411 492 353 464 z "},"«":{"ha":710,"x_min":0,"x_max":0,"o":"m 243 139 l 392 139 l 189 382 l 392 625 l 243 625 l 42 382 z m 519 139 l 668 139 l 465 382 l 668 625 l 519 625 l 318 382 z "},"¬":{"ha":767,"x_min":0,"x_max":0,"o":"m 718 644 l 49 644 l 49 526 l 600 526 l 600 174 l 718 174 z "},"­":{"ha":611,"x_min":0,"x_max":0,"o":"m 100 376 l 510 376 l 510 476 l 100 476 z "},"®":{"ha":561,"x_min":0,"x_max":0,"o":"m 282 983 b 31 732 126 983 31 883 b 281 483 31 578 126 483 b 531 736 432 483 531 582 b 282 983 531 886 433 983 z m 281 546 b 100 733 161 546 100 611 b 281 919 100 847 164 919 b 464 735 399 919 464 853 b 281 546 464 617 399 546 z m 394 779 b 286 871 394 858 340 871 l 179 871 l 179 597 l 249 597 l 249 692 l 271 692 l 318 597 l 399 597 l 339 700 b 394 779 376 711 394 738 z m 249 815 l 275 815 b 324 779 306 815 324 813 b 275 742 324 743 299 742 l 249 742 z "},"¯":{"ha":481,"x_min":0,"x_max":0,"o":"m 38 910 l 443 910 l 443 1008 l 38 1008 z "},"°":{"ha":504,"x_min":0,"x_max":0,"o":"m 251 528 b 476 753 375 528 476 629 b 251 976 476 875 375 976 b 28 753 128 976 28 875 b 251 528 28 629 128 528 z m 251 633 b 132 753 186 633 132 686 b 251 871 132 818 186 871 b 371 753 318 871 371 818 b 251 633 371 686 318 633 z "},"±":{"ha":767,"x_min":0,"x_max":0,"o":"m 442 553 l 442 768 l 324 768 l 324 553 l 49 553 l 49 446 l 324 446 l 324 229 l 442 229 l 442 446 l 718 446 l 718 553 z m 49 68 l 718 68 l 718 175 l 49 175 z "},"²":{"ha":564,"x_min":0,"x_max":0,"o":"m 79 572 l 504 572 l 504 660 l 211 660 l 211 664 l 251 694 b 483 997 426 825 483 893 b 274 1158 483 1111 403 1158 b 119 1139 214 1158 165 1151 l 119 1051 b 257 1072 171 1067 219 1072 b 376 979 332 1072 376 1047 b 79 664 376 906 311 832 z "},"³":{"ha":564,"x_min":0,"x_max":0,"o":"m 239 564 b 493 731 407 564 493 618 b 369 871 493 807 453 858 l 369 876 b 476 1004 436 896 476 938 b 258 1158 476 1117 394 1158 b 125 1143 208 1158 156 1151 l 125 1057 b 246 1074 161 1068 213 1074 b 374 997 326 1074 374 1054 b 219 911 374 936 317 911 l 169 911 l 169 829 l 218 829 b 385 740 315 829 385 815 b 235 650 385 669 321 650 b 97 665 186 650 146 656 l 97 575 b 239 564 139 568 183 564 z "},"´":{"ha":481,"x_min":0,"x_max":0,"o":"m 125 854 l 222 854 l 394 1046 l 242 1046 z "},"μ":{"ha":851,"x_min":0,"x_max":0,"o":"m 606 750 l 606 240 b 385 92 563 111 479 92 b 240 275 265 92 240 161 l 240 750 l 121 750 l 121 -278 l 240 -278 l 240 25 b 375 -14 268 0 311 -14 b 608 108 464 -14 563 11 l 624 0 l 725 0 l 725 750 z "},"¶":{"ha":824,"x_min":0,"x_max":0,"o":"m 289 -164 l 406 -164 l 406 860 l 539 860 l 539 -164 l 657 -164 l 657 860 l 758 860 l 758 964 l 301 964 b 40 692 122 964 40 878 b 289 421 40 506 118 421 z "},"·":{"ha":496,"x_min":0,"x_max":0,"o":"m 210 371 b 299 458 274 371 299 382 b 210 546 299 535 274 546 b 121 458 144 546 121 535 b 210 371 121 382 144 371 z "},"¸":{"ha":481,"x_min":0,"x_max":0,"o":"m 283 -71 b 249 -74 271 -71 260 -72 l 310 0 l 242 38 l 126 -106 l 160 -140 b 221 -135 182 -136 203 -135 b 274 -169 260 -135 274 -147 b 172 -219 274 -208 226 -219 b 88 -214 144 -219 118 -218 l 88 -278 b 179 -285 119 -282 150 -285 b 393 -165 333 -285 393 -236 b 283 -71 393 -101 351 -71 z "},"¹":{"ha":564,"x_min":0,"x_max":0,"o":"m 269 572 l 374 572 l 374 1150 l 300 1150 l 114 1117 l 114 1028 l 269 1056 z "},"º":{"ha":618,"x_min":0,"x_max":0,"o":"m 308 383 b 535 617 460 383 535 438 b 308 850 535 796 460 850 b 82 617 156 850 82 796 b 308 383 82 438 156 383 z m 308 457 b 179 617 210 457 179 496 b 308 778 179 738 210 778 b 435 617 406 778 435 738 b 308 457 435 496 406 457 z "},"»":{"ha":710,"x_min":0,"x_max":0,"o":"m 42 139 l 189 139 l 392 382 l 189 625 l 42 625 l 243 382 z m 318 139 l 465 139 l 668 382 l 465 625 l 318 625 l 519 382 z "},"¼":{"ha":1253,"x_min":0,"x_max":0,"o":"m 374 392 l 374 969 l 300 969 l 114 936 l 114 847 l 269 875 l 269 392 z m 860 964 l 318 0 l 439 0 l 979 964 z m 1190 218 l 1119 218 l 1119 578 l 996 578 l 731 232 l 731 131 l 1019 131 l 1019 0 l 1119 0 l 1119 131 l 1190 131 z m 821 218 l 821 224 l 1014 469 l 1019 469 l 1019 218 z "},"½":{"ha":1269,"x_min":0,"x_max":0,"o":"m 269 392 l 374 392 l 374 969 l 300 969 l 114 936 l 114 847 l 269 875 z m 318 0 l 439 0 l 979 964 l 860 964 z m 761 0 l 1186 0 l 1186 88 l 893 88 l 893 92 l 933 122 b 1165 425 1108 253 1165 321 b 956 586 1165 539 1085 586 b 801 567 896 586 847 579 l 801 479 b 939 500 853 494 901 500 b 1058 407 1014 500 1058 475 b 761 92 1058 333 993 260 z "},"¾":{"ha":1253,"x_min":0,"x_max":0,"o":"m 493 550 b 369 690 493 626 453 678 l 369 696 b 476 824 436 715 476 757 b 258 978 476 936 394 978 b 125 963 208 978 156 971 l 125 876 b 246 893 161 888 213 893 b 374 817 326 893 374 874 b 219 731 374 756 317 731 l 169 731 l 169 649 l 218 649 b 385 560 315 649 385 635 b 235 469 385 489 321 469 b 97 485 186 469 146 475 l 97 394 b 239 383 139 388 183 383 b 493 550 407 383 493 438 z m 860 964 l 318 0 l 439 0 l 979 964 z m 1190 218 l 1119 218 l 1119 578 l 996 578 l 731 232 l 731 131 l 1019 131 l 1019 0 l 1119 0 l 1119 131 l 1190 131 z m 821 218 l 821 224 l 1014 469 l 1019 469 l 1019 218 z "},"¿":{"ha":599,"x_min":0,"x_max":0,"o":"m 332 758 b 243 671 268 758 243 747 b 332 583 243 596 268 583 b 419 671 397 583 419 596 b 332 758 419 747 397 758 z m 388 474 l 278 474 l 278 432 b 172 278 278 369 253 336 b 31 18 83 213 31 169 b 329 -225 31 -172 128 -225 b 540 -194 424 -225 496 -208 l 540 -83 b 340 -114 489 -103 406 -114 b 161 31 201 -114 161 -86 b 263 211 161 111 178 143 b 388 413 364 290 388 344 z "},"À":{"ha":926,"x_min":0,"x_max":0,"o":"m 528 1035 l 368 1226 l 201 1226 l 424 1035 z m 779 0 l 911 0 l 547 964 l 381 964 l 15 0 l 143 0 l 249 288 l 675 288 z m 290 399 l 456 847 l 472 847 l 635 399 z "},"Á":{"ha":926,"x_min":0,"x_max":0,"o":"m 725 1226 l 557 1226 l 399 1035 l 503 1035 z m 779 0 l 911 0 l 547 964 l 381 964 l 15 0 l 143 0 l 249 288 l 675 288 z m 290 399 l 456 847 l 472 847 l 635 399 z "},"Â":{"ha":926,"x_min":0,"x_max":0,"o":"m 464 1160 l 615 1035 l 726 1035 l 539 1240 l 388 1240 l 200 1035 l 311 1035 z m 779 0 l 911 0 l 547 964 l 381 964 l 15 0 l 143 0 l 249 288 l 675 288 z m 290 399 l 456 847 l 472 847 l 635 399 z "},"Ã":{"ha":926,"x_min":0,"x_max":0,"o":"m 353 1115 b 440 1075 375 1115 403 1094 b 579 1036 481 1053 513 1036 b 728 1203 660 1036 719 1100 l 633 1211 b 571 1132 628 1157 608 1132 b 486 1160 547 1132 522 1136 b 347 1211 439 1190 406 1211 b 199 1043 263 1211 207 1147 l 293 1036 b 353 1115 299 1090 317 1115 z m 779 0 l 911 0 l 547 964 l 381 964 l 15 0 l 143 0 l 249 288 l 675 288 z m 290 399 l 456 847 l 472 847 l 635 399 z "},"Ä":{"ha":926,"x_min":0,"x_max":0,"o":"m 329 1049 b 400 1118 379 1049 400 1058 b 329 1189 400 1181 379 1189 b 258 1118 278 1189 258 1181 b 329 1049 258 1058 278 1049 z m 600 1049 b 669 1118 649 1049 669 1058 b 600 1189 669 1181 649 1189 b 528 1118 547 1189 528 1181 b 600 1049 528 1058 547 1049 z m 779 0 l 911 0 l 547 964 l 381 964 l 15 0 l 143 0 l 249 288 l 675 288 z m 290 399 l 456 847 l 472 847 l 635 399 z "},"Å":{"ha":926,"x_min":0,"x_max":0,"o":"m 465 1013 b 607 1154 557 1013 607 1067 b 465 1292 607 1240 556 1292 b 321 1154 375 1292 321 1243 b 465 1013 321 1065 375 1013 z m 465 1215 b 526 1150 507 1215 526 1196 b 465 1090 526 1110 507 1090 b 404 1150 424 1090 404 1110 b 465 1215 404 1196 424 1215 z m 779 0 l 911 0 l 547 964 l 381 964 l 15 0 l 143 0 l 249 288 l 675 288 z m 290 399 l 456 847 l 472 847 l 635 399 z "},"Æ":{"ha":1235,"x_min":0,"x_max":0,"o":"m 715 113 l 715 449 l 1097 449 l 1097 554 l 715 554 l 715 853 l 1125 853 l 1125 964 l 483 964 l -8 0 l 126 0 l 269 288 l 589 288 l 589 0 l 1160 0 l 1160 113 z m 325 399 l 554 857 l 589 857 l 589 399 z "},"Ç":{"ha":832,"x_min":0,"x_max":0,"o":"m 772 28 l 772 136 b 543 99 699 111 633 99 b 231 485 329 99 231 178 b 556 868 231 772 336 868 b 761 835 640 868 706 856 l 761 950 b 553 978 704 968 642 978 b 100 482 275 978 100 854 b 449 -10 100 128 235 13 l 371 -106 l 404 -140 b 465 -135 426 -136 447 -135 b 518 -169 504 -135 518 -147 b 417 -219 518 -208 471 -219 b 332 -214 389 -219 363 -218 l 332 -278 b 424 -285 364 -282 394 -285 b 638 -165 578 -285 638 -236 b 528 -71 638 -101 596 -71 b 493 -74 515 -71 504 -72 l 543 -14 b 772 28 639 -14 719 4 z "},"È":{"ha":772,"x_min":0,"x_max":0,"o":"m 464 1035 l 304 1226 l 138 1226 l 360 1035 z m 253 113 l 253 449 l 636 449 l 636 554 l 253 554 l 253 853 l 664 853 l 664 964 l 128 964 l 128 0 l 699 0 l 699 113 z "},"É":{"ha":772,"x_min":0,"x_max":0,"o":"m 661 1226 l 493 1226 l 335 1035 l 439 1035 z m 253 113 l 253 449 l 636 449 l 636 554 l 253 554 l 253 853 l 664 853 l 664 964 l 128 964 l 128 0 l 699 0 l 699 113 z "},"Ê":{"ha":772,"x_min":0,"x_max":0,"o":"m 400 1160 l 551 1035 l 663 1035 l 475 1240 l 324 1240 l 136 1035 l 247 1035 z m 253 113 l 253 449 l 636 449 l 636 554 l 253 554 l 253 853 l 664 853 l 664 964 l 128 964 l 128 0 l 699 0 l 699 113 z "},"Ë":{"ha":772,"x_min":0,"x_max":0,"o":"m 285 1049 b 354 1118 335 1049 354 1058 b 285 1189 354 1181 335 1189 b 213 1118 232 1189 213 1181 b 285 1049 213 1058 232 1049 z m 525 1049 b 596 1118 575 1049 596 1058 b 525 1189 596 1181 575 1189 b 454 1118 474 1189 454 1181 b 525 1049 454 1058 474 1049 z m 253 113 l 253 449 l 636 449 l 636 554 l 253 554 l 253 853 l 664 853 l 664 964 l 128 964 l 128 0 l 699 0 l 699 113 z "},"Ì":{"ha":381,"x_min":0,"x_max":0,"o":"m 150 1035 l 254 1035 l 94 1226 l -72 1226 z m 128 0 l 253 0 l 253 964 l 128 964 z "},"Í":{"ha":381,"x_min":0,"x_max":0,"o":"m 125 1035 l 229 1035 l 451 1226 l 283 1226 z m 128 0 l 253 0 l 253 964 l 128 964 z "},"Î":{"ha":381,"x_min":0,"x_max":0,"o":"m -31 1038 l 67 1038 l 190 1156 l 313 1038 l 410 1038 l 265 1229 l 114 1229 z m 128 0 l 253 0 l 253 964 l 128 964 z "},"Ï":{"ha":381,"x_min":0,"x_max":0,"o":"m 71 1049 b 140 1118 119 1049 140 1058 b 71 1189 140 1181 119 1189 b -1 1118 18 1189 -1 1181 b 71 1049 -1 1058 18 1049 z m 311 1049 b 382 1118 361 1049 382 1058 b 311 1189 382 1181 361 1189 b 240 1118 260 1189 240 1181 b 311 1049 240 1058 260 1049 z m 128 0 l 253 0 l 253 964 l 128 964 z "},"Ð":{"ha":999,"x_min":0,"x_max":0,"o":"m 433 964 l 156 964 l 156 554 l 46 554 l 46 449 l 156 449 l 156 0 l 433 0 b 899 482 710 0 899 110 b 433 964 899 883 710 964 z m 431 110 l 281 110 l 281 449 l 510 449 l 510 554 l 281 554 l 281 856 l 431 856 b 769 482 626 856 769 790 b 431 110 769 192 632 110 z "},"Ñ":{"ha":1024,"x_min":0,"x_max":0,"o":"m 628 1036 b 776 1203 708 1036 768 1100 l 682 1211 b 619 1132 676 1157 657 1132 b 535 1160 596 1132 571 1136 b 396 1211 488 1190 454 1211 b 247 1043 311 1211 256 1147 l 342 1036 b 401 1115 347 1090 365 1115 b 489 1075 424 1115 451 1094 b 628 1036 529 1053 561 1036 z m 128 0 l 250 0 l 250 849 l 258 849 l 731 0 l 896 0 l 896 964 l 771 964 l 771 164 l 763 164 l 324 964 l 128 964 z "},"Ò":{"ha":1032,"x_min":0,"x_max":0,"o":"m 476 1035 l 581 1035 l 421 1226 l 254 1226 z m 515 -14 b 931 482 789 -14 931 93 b 515 978 931 869 789 978 b 100 482 243 978 100 869 b 515 -14 100 93 243 -14 z m 515 93 b 231 482 281 93 231 207 b 515 872 231 749 281 872 b 801 482 751 872 801 749 b 515 93 801 207 751 93 z "},"Ó":{"ha":1032,"x_min":0,"x_max":0,"o":"m 451 1035 l 556 1035 l 778 1226 l 610 1226 z m 515 -14 b 931 482 789 -14 931 93 b 515 978 931 869 789 978 b 100 482 243 978 100 869 b 515 -14 100 93 243 -14 z m 515 93 b 231 482 281 93 231 207 b 515 872 231 749 281 872 b 801 482 751 872 801 749 b 515 93 801 207 751 93 z "},"Ô":{"ha":1032,"x_min":0,"x_max":0,"o":"m 253 1035 l 364 1035 l 517 1160 l 668 1035 l 779 1035 l 592 1240 l 440 1240 z m 515 -14 b 931 482 789 -14 931 93 b 515 978 931 869 789 978 b 100 482 243 978 100 869 b 515 -14 100 93 243 -14 z m 515 93 b 231 482 281 93 231 207 b 515 872 231 749 281 872 b 801 482 751 872 801 749 b 515 93 801 207 751 93 z "},"Õ":{"ha":1032,"x_min":0,"x_max":0,"o":"m 632 1036 b 781 1203 713 1036 772 1100 l 686 1211 b 624 1132 681 1157 661 1132 b 539 1160 600 1132 575 1136 b 400 1211 492 1190 458 1211 b 251 1043 315 1211 260 1147 l 346 1036 b 406 1115 351 1090 369 1115 b 493 1075 428 1115 456 1094 b 632 1036 533 1053 565 1036 z m 515 -14 b 931 482 789 -14 931 93 b 515 978 931 869 789 978 b 100 482 243 978 100 869 b 515 -14 100 93 243 -14 z m 515 93 b 231 482 281 93 231 207 b 515 872 231 749 281 872 b 801 482 751 872 801 749 b 515 93 801 207 751 93 z "},"Ö":{"ha":1032,"x_min":0,"x_max":0,"o":"m 382 1049 b 453 1118 432 1049 453 1058 b 382 1189 453 1181 432 1189 b 311 1118 331 1189 311 1181 b 382 1049 311 1058 331 1049 z m 653 1049 b 722 1118 701 1049 722 1058 b 653 1189 722 1181 701 1189 b 581 1118 600 1189 581 1181 b 653 1049 581 1058 600 1049 z m 515 -14 b 931 482 789 -14 931 93 b 515 978 931 869 789 978 b 100 482 243 978 100 869 b 515 -14 100 93 243 -14 z m 515 93 b 231 482 281 93 231 207 b 515 872 231 749 281 872 b 801 482 751 872 801 749 b 515 93 801 207 751 93 z "},"×":{"ha":767,"x_min":0,"x_max":0,"o":"m 708 174 l 464 418 l 707 661 l 626 742 l 383 499 l 139 742 l 60 661 l 303 418 l 58 172 l 139 93 l 383 338 l 628 93 z "},"Ø":{"ha":1032,"x_min":0,"x_max":0,"o":"m 931 956 l 808 956 l 779 915 b 515 978 713 961 624 978 b 100 482 243 978 100 869 b 185 114 100 308 129 190 l 100 0 l 222 0 l 256 46 b 515 -14 322 3 408 -14 b 931 482 789 -14 931 93 b 849 846 931 653 903 769 z m 229 482 b 515 872 229 749 279 872 b 708 821 603 872 665 856 l 264 221 b 229 482 238 283 229 369 z m 803 482 b 515 93 803 207 753 93 b 326 140 431 93 369 108 l 769 738 b 803 482 794 675 803 590 z "},"Ù":{"ha":974,"x_min":0,"x_max":0,"o":"m 447 1035 l 551 1035 l 392 1226 l 225 1226 z m 486 -14 b 851 311 729 -14 851 83 l 851 964 l 728 964 l 728 339 b 488 96 728 156 674 96 b 247 339 310 96 247 156 l 247 964 l 124 964 l 124 311 b 486 -14 124 76 244 -14 z "},"Ú":{"ha":974,"x_min":0,"x_max":0,"o":"m 422 1035 l 526 1035 l 749 1226 l 581 1226 z m 486 -14 b 851 311 729 -14 851 83 l 851 964 l 728 964 l 728 339 b 488 96 728 156 674 96 b 247 339 310 96 247 156 l 247 964 l 124 964 l 124 311 b 486 -14 124 76 244 -14 z "},"Û":{"ha":974,"x_min":0,"x_max":0,"o":"m 224 1035 l 335 1035 l 488 1160 l 639 1035 l 750 1035 l 563 1240 l 411 1240 z m 486 -14 b 851 311 729 -14 851 83 l 851 964 l 728 964 l 728 339 b 488 96 728 156 674 96 b 247 339 310 96 247 156 l 247 964 l 124 964 l 124 311 b 486 -14 124 76 244 -14 z "},"Ü":{"ha":974,"x_min":0,"x_max":0,"o":"m 353 1049 b 424 1118 403 1049 424 1058 b 353 1189 424 1181 403 1189 b 282 1118 301 1189 282 1181 b 353 1049 282 1058 301 1049 z m 624 1049 b 693 1118 672 1049 693 1058 b 624 1189 693 1181 672 1189 b 551 1118 571 1189 551 1181 b 624 1049 551 1058 571 1049 z m 486 -14 b 851 311 729 -14 851 83 l 851 964 l 728 964 l 728 339 b 488 96 728 156 674 96 b 247 339 310 96 247 156 l 247 964 l 124 964 l 124 311 b 486 -14 124 76 244 -14 z "},"Ý":{"ha":825,"x_min":0,"x_max":0,"o":"m 347 1035 l 451 1035 l 674 1226 l 506 1226 z m 349 0 l 474 0 l 474 415 l 817 964 l 679 964 l 421 528 l 413 528 l 153 964 l 8 964 l 349 414 z "},"Þ":{"ha":829,"x_min":0,"x_max":0,"o":"m 396 771 l 253 771 l 253 964 l 128 964 l 128 0 l 253 0 l 253 204 l 396 204 b 749 490 646 204 749 292 b 396 771 749 676 668 771 z m 385 308 l 253 308 l 253 663 l 385 663 b 621 490 564 663 621 610 b 385 308 621 356 564 308 z "},"ß":{"ha":847,"x_min":0,"x_max":0,"o":"m 457 -15 b 764 300 667 -15 764 83 b 565 567 764 456 701 539 l 565 575 b 722 800 672 614 722 685 b 431 1061 722 979 631 1061 b 126 757 243 1061 126 968 l 126 0 l 246 0 l 246 743 b 436 965 246 911 314 965 b 608 792 553 965 608 910 b 392 611 608 668 540 611 l 326 611 l 326 514 l 393 514 b 644 301 565 514 644 447 b 436 89 644 156 579 89 b 319 104 397 89 358 93 l 319 0 b 457 -15 353 -11 396 -15 z "},"à":{"ha":850,"x_min":0,"x_max":0,"o":"m 513 854 l 396 1046 l 242 1046 l 415 854 z m 424 764 b 253 753 369 764 308 760 l 253 647 b 418 664 307 658 368 664 b 603 511 571 664 603 601 l 603 449 l 374 449 b 76 210 194 449 76 388 b 335 -14 76 68 156 -14 b 603 114 447 -14 560 32 l 621 0 l 722 0 l 722 532 b 424 764 722 667 660 764 z m 346 86 b 200 211 240 86 200 129 b 382 353 200 328 258 353 l 603 353 l 603 229 b 346 86 564 140 471 86 z "},"á":{"ha":850,"x_min":0,"x_max":0,"o":"m 653 1046 l 500 1046 l 383 854 l 481 854 z m 424 764 b 253 753 369 764 308 760 l 253 647 b 418 664 307 658 368 664 b 603 511 571 664 603 601 l 603 449 l 374 449 b 76 210 194 449 76 388 b 335 -14 76 68 156 -14 b 603 114 447 -14 560 32 l 621 0 l 722 0 l 722 532 b 424 764 722 667 660 764 z m 346 86 b 200 211 240 86 200 129 b 382 353 200 328 258 353 l 603 353 l 603 229 b 346 86 564 140 471 86 z "},"â":{"ha":850,"x_min":0,"x_max":0,"o":"m 449 972 l 571 854 l 668 854 l 524 1046 l 372 1046 l 228 854 l 325 854 z m 424 764 b 253 753 369 764 308 760 l 253 647 b 418 664 307 658 368 664 b 603 511 571 664 603 601 l 603 449 l 374 449 b 76 210 194 449 76 388 b 335 -14 76 68 156 -14 b 603 114 447 -14 560 32 l 621 0 l 722 0 l 722 532 b 424 764 722 667 660 764 z m 346 86 b 200 211 240 86 200 129 b 382 353 200 328 258 353 l 603 353 l 603 229 b 346 86 564 140 471 86 z "},"ã":{"ha":850,"x_min":0,"x_max":0,"o":"m 351 954 b 428 913 375 954 400 932 b 549 875 457 892 489 875 b 683 1043 622 875 676 939 l 589 1050 b 542 971 585 996 571 971 b 471 999 522 971 500 979 b 346 1050 426 1028 399 1050 b 213 882 269 1050 219 986 l 307 875 b 351 954 311 929 324 954 z m 424 764 b 253 753 369 764 308 760 l 253 647 b 418 664 307 658 368 664 b 603 511 571 664 603 601 l 603 449 l 374 449 b 76 210 194 449 76 388 b 335 -14 76 68 156 -14 b 603 114 447 -14 560 32 l 621 0 l 722 0 l 722 532 b 424 764 722 667 660 764 z m 346 86 b 200 211 240 86 200 129 b 382 353 200 328 258 353 l 603 353 l 603 229 b 346 86 564 140 471 86 z "},"ä":{"ha":850,"x_min":0,"x_max":0,"o":"m 329 888 b 399 958 378 888 399 897 b 329 1028 399 1019 378 1028 b 257 958 276 1028 257 1019 b 329 888 257 897 276 888 z m 569 888 b 640 958 619 888 640 897 b 569 1028 640 1019 619 1028 b 499 958 518 1028 499 1019 b 569 888 499 897 518 888 z m 424 764 b 253 753 369 764 308 760 l 253 647 b 418 664 307 658 368 664 b 603 511 571 664 603 601 l 603 449 l 374 449 b 76 210 194 449 76 388 b 335 -14 76 68 156 -14 b 603 114 447 -14 560 32 l 621 0 l 722 0 l 722 532 b 424 764 722 667 660 764 z m 346 86 b 200 211 240 86 200 129 b 382 353 200 328 258 353 l 603 353 l 603 229 b 346 86 564 140 471 86 z "},"å":{"ha":850,"x_min":0,"x_max":0,"o":"m 450 853 b 592 994 542 853 592 907 b 450 1132 592 1082 540 1132 b 306 994 360 1132 306 1083 b 450 853 306 906 360 853 z m 450 1056 b 511 990 492 1056 511 1036 b 450 931 511 950 492 931 b 389 990 408 931 389 950 b 450 1056 389 1036 408 1056 z m 424 764 b 253 753 369 764 308 760 l 253 647 b 418 664 307 658 368 664 b 603 511 571 664 603 601 l 603 449 l 374 449 b 76 210 194 449 76 388 b 335 -14 76 68 156 -14 b 603 114 447 -14 560 32 l 621 0 l 722 0 l 722 532 b 424 764 722 667 660 764 z m 346 86 b 200 211 240 86 200 129 b 382 353 200 328 258 353 l 603 353 l 603 229 b 346 86 564 140 471 86 z "},"æ":{"ha":1286,"x_min":0,"x_max":0,"o":"m 1197 353 b 1206 450 1204 392 1206 426 b 907 764 1206 596 1161 764 b 668 669 807 764 724 738 b 422 764 628 725 553 764 b 253 753 369 764 308 760 l 253 647 b 418 664 307 658 368 664 b 589 511 557 664 589 601 l 589 449 l 374 449 b 76 210 201 449 76 388 b 335 -14 76 68 164 -14 b 632 138 460 -14 576 39 b 913 -14 685 26 783 -14 b 1165 31 1021 -14 1122 8 l 1165 140 b 931 92 1110 113 1014 92 b 708 333 764 92 708 171 l 708 353 z m 906 665 b 1089 449 1069 665 1089 565 l 710 449 b 906 665 718 583 760 665 z m 346 86 b 200 211 240 86 200 129 b 382 353 200 328 258 353 l 589 353 l 589 229 b 346 86 551 140 471 86 z "},"ç":{"ha":690,"x_min":0,"x_max":0,"o":"m 628 14 l 628 124 b 432 92 574 101 503 92 b 210 374 265 92 210 156 b 431 660 210 594 265 660 b 625 626 507 660 569 647 l 625 736 b 429 764 583 750 513 764 b 82 375 208 764 82 674 b 375 -12 82 101 188 3 l 300 -106 l 333 -140 b 394 -135 356 -136 376 -135 b 447 -169 433 -135 447 -147 b 346 -219 447 -208 400 -219 b 261 -214 318 -219 292 -218 l 261 -278 b 353 -285 293 -282 324 -285 b 567 -165 507 -285 567 -236 b 457 -71 567 -101 525 -71 b 422 -74 444 -71 433 -72 l 474 -12 b 628 14 533 -8 594 1 z "},"è":{"ha":803,"x_min":0,"x_max":0,"o":"m 465 854 l 349 1046 l 194 1046 l 368 854 z m 722 450 b 422 764 722 596 678 764 b 82 375 208 764 82 674 b 429 -14 82 76 208 -14 b 682 31 536 -14 639 8 l 682 140 b 447 92 625 113 529 92 b 207 331 265 92 208 167 l 715 363 b 722 450 719 397 722 429 z m 207 419 b 422 665 211 572 250 665 b 604 449 585 665 604 564 z "},"é":{"ha":803,"x_min":0,"x_max":0,"o":"m 606 1046 l 453 1046 l 336 854 l 433 854 z m 722 450 b 422 764 722 596 678 764 b 82 375 208 764 82 674 b 429 -14 82 76 208 -14 b 682 31 536 -14 639 8 l 682 140 b 447 92 625 113 529 92 b 207 331 265 92 208 167 l 715 363 b 722 450 719 397 722 429 z m 207 419 b 422 665 211 572 250 665 b 604 449 585 665 604 564 z "},"ê":{"ha":803,"x_min":0,"x_max":0,"o":"m 401 972 l 524 854 l 621 854 l 476 1046 l 325 1046 l 181 854 l 278 854 z m 722 450 b 422 764 722 596 678 764 b 82 375 208 764 82 674 b 429 -14 82 76 208 -14 b 682 31 536 -14 639 8 l 682 140 b 447 92 625 113 529 92 b 207 331 265 92 208 167 l 715 363 b 722 450 719 397 722 429 z m 207 419 b 422 665 211 572 250 665 b 604 449 585 665 604 564 z "},"ë":{"ha":803,"x_min":0,"x_max":0,"o":"m 282 888 b 351 958 331 888 351 897 b 282 1028 351 1019 331 1028 b 210 958 229 1028 210 1019 b 282 888 210 897 229 888 z m 522 888 b 593 958 572 888 593 897 b 522 1028 593 1019 572 1028 b 451 958 471 1028 451 1019 b 522 888 451 897 471 888 z m 722 450 b 422 764 722 596 678 764 b 82 375 208 764 82 674 b 429 -14 82 76 208 -14 b 682 31 536 -14 639 8 l 682 140 b 447 92 625 113 529 92 b 207 331 265 92 208 167 l 715 363 b 722 450 719 397 722 429 z m 207 419 b 422 665 211 572 250 665 b 604 449 585 665 604 564 z "},"ì":{"ha":372,"x_min":0,"x_max":0,"o":"m 154 854 l 251 854 l 135 1046 l -19 1046 z m 126 0 l 246 0 l 246 750 l 126 750 z "},"í":{"ha":372,"x_min":0,"x_max":0,"o":"m 122 854 l 219 854 l 392 1046 l 239 1046 z m 126 0 l 246 0 l 246 750 l 126 750 z "},"î":{"ha":372,"x_min":0,"x_max":0,"o":"m -33 854 l 64 854 l 188 972 l 310 854 l 407 854 l 263 1046 l 111 1046 z m 126 0 l 246 0 l 246 750 l 126 750 z "},"ï":{"ha":372,"x_min":0,"x_max":0,"o":"m 68 888 b 138 958 117 888 138 897 b 68 1028 138 1019 117 1028 b -4 958 15 1028 -4 1019 b 68 888 -4 897 15 888 z m 308 888 b 379 958 358 888 379 897 b 308 1028 379 1019 358 1028 b 238 958 257 1028 238 1019 b 308 888 238 897 257 888 z m 126 0 l 246 0 l 246 750 l 126 750 z "},"ð":{"ha":858,"x_min":0,"x_max":0,"o":"m 569 915 l 692 969 l 647 1056 l 501 992 b 439 1056 482 1013 461 1033 l 286 1056 b 400 947 328 1018 365 983 l 256 883 l 300 796 l 467 869 b 565 728 503 825 536 779 b 429 749 519 743 475 749 b 82 375 208 749 82 658 b 429 -14 82 76 208 -14 b 775 375 651 -14 775 76 b 569 915 775 597 707 753 z m 429 88 b 210 375 267 88 210 156 b 429 649 210 579 261 649 b 649 375 593 649 649 579 b 429 88 649 156 599 88 z "},"ñ":{"ha":858,"x_min":0,"x_max":0,"o":"m 333 954 b 410 913 357 954 382 932 b 531 875 439 892 471 875 b 665 1043 604 875 658 939 l 571 1050 b 524 971 567 996 553 971 b 453 999 504 971 482 979 b 328 1050 408 1028 381 1050 b 194 882 251 1050 201 986 l 289 875 b 333 954 293 929 306 954 z m 486 764 b 246 643 394 764 292 739 l 246 750 l 126 750 l 126 0 l 246 0 l 246 507 b 474 657 288 639 379 657 b 617 475 593 657 617 590 l 617 0 l 738 0 l 738 519 b 486 764 738 663 682 764 z "},"ò":{"ha":858,"x_min":0,"x_max":0,"o":"m 396 854 l 493 854 l 376 1046 l 222 1046 z m 429 -14 b 775 375 651 -14 775 76 b 429 764 775 674 651 764 b 82 375 208 764 82 674 b 429 -14 82 76 208 -14 z m 429 88 b 210 375 267 88 210 156 b 429 664 210 594 261 664 b 649 375 593 664 649 594 b 429 88 649 156 599 88 z "},"ó":{"ha":858,"x_min":0,"x_max":0,"o":"m 364 854 l 461 854 l 633 1046 l 481 1046 z m 429 -14 b 775 375 651 -14 775 76 b 429 764 775 674 651 764 b 82 375 208 764 82 674 b 429 -14 82 76 208 -14 z m 429 88 b 210 375 267 88 210 156 b 429 664 210 594 261 664 b 649 375 593 664 649 594 b 429 88 649 156 599 88 z "},"ô":{"ha":858,"x_min":0,"x_max":0,"o":"m 208 854 l 306 854 l 429 972 l 551 854 l 649 854 l 504 1046 l 353 1046 z m 429 -14 b 775 375 651 -14 775 76 b 429 764 775 674 651 764 b 82 375 208 764 82 674 b 429 -14 82 76 208 -14 z m 429 88 b 210 375 267 88 210 156 b 429 664 210 594 261 664 b 649 375 593 664 649 594 b 429 88 649 156 599 88 z "},"õ":{"ha":858,"x_min":0,"x_max":0,"o":"m 529 875 b 664 1043 603 875 657 939 l 569 1050 b 522 971 565 996 551 971 b 451 999 503 971 481 979 b 326 1050 407 1028 379 1050 b 193 882 250 1050 200 986 l 288 875 b 332 954 292 929 304 954 b 408 913 356 954 381 932 b 529 875 438 892 469 875 z m 429 -14 b 775 375 651 -14 775 76 b 429 764 775 674 651 764 b 82 375 208 764 82 674 b 429 -14 82 76 208 -14 z m 429 88 b 210 375 267 88 210 156 b 429 664 210 594 261 664 b 649 375 593 664 649 594 b 429 88 649 156 599 88 z "},"ö":{"ha":858,"x_min":0,"x_max":0,"o":"m 310 888 b 379 958 358 888 379 897 b 310 1028 379 1019 358 1028 b 238 958 257 1028 238 1019 b 310 888 238 897 257 888 z m 550 888 b 621 958 600 888 621 897 b 550 1028 621 1019 600 1028 b 479 958 499 1028 479 1019 b 550 888 479 897 499 888 z m 429 -14 b 775 375 651 -14 775 76 b 429 764 775 674 651 764 b 82 375 208 764 82 674 b 429 -14 82 76 208 -14 z m 429 88 b 210 375 267 88 210 156 b 429 664 210 594 261 664 b 649 375 593 664 649 594 b 429 88 649 156 599 88 z "},"÷":{"ha":767,"x_min":0,"x_max":0,"o":"m 383 625 b 467 708 444 625 467 636 b 383 792 467 781 444 792 b 299 708 321 792 299 781 b 383 625 299 636 321 625 z m 49 358 l 718 358 l 718 476 l 49 476 z m 383 40 b 467 125 444 40 467 51 b 383 207 467 197 444 207 b 299 125 321 207 299 197 b 383 40 299 51 321 40 z "},"ø":{"ha":858,"x_min":0,"x_max":0,"o":"m 775 803 l 674 803 l 622 728 b 429 764 569 753 506 764 b 82 375 208 764 82 674 b 168 72 82 229 113 133 l 82 -53 l 183 -53 l 236 24 b 429 -14 288 -3 353 -14 b 775 375 651 -14 775 76 b 689 678 775 521 746 618 z m 208 375 b 429 664 208 594 261 664 b 560 638 485 664 526 656 l 240 176 b 208 375 218 221 208 286 z m 650 375 b 429 86 650 156 599 86 b 299 113 374 86 331 94 l 618 575 b 650 375 640 531 650 465 z "},"ù":{"ha":851,"x_min":0,"x_max":0,"o":"m 490 854 l 374 1046 l 219 1046 l 393 854 z m 606 750 l 606 240 b 385 92 563 111 479 92 b 240 275 265 92 240 161 l 240 750 l 121 750 l 121 231 b 372 -14 121 86 176 -14 b 608 108 464 -14 563 10 l 624 0 l 725 0 l 725 750 z "},"ú":{"ha":851,"x_min":0,"x_max":0,"o":"m 631 1046 l 478 1046 l 361 854 l 458 854 z m 606 750 l 606 240 b 385 92 563 111 479 92 b 240 275 265 92 240 161 l 240 750 l 121 750 l 121 231 b 372 -14 121 86 176 -14 b 608 108 464 -14 563 10 l 624 0 l 725 0 l 725 750 z "},"û":{"ha":851,"x_min":0,"x_max":0,"o":"m 426 972 l 549 854 l 646 854 l 501 1046 l 350 1046 l 206 854 l 303 854 z m 606 750 l 606 240 b 385 92 563 111 479 92 b 240 275 265 92 240 161 l 240 750 l 121 750 l 121 231 b 372 -14 121 86 176 -14 b 608 108 464 -14 563 10 l 624 0 l 725 0 l 725 750 z "},"ü":{"ha":851,"x_min":0,"x_max":0,"o":"m 307 888 b 376 958 356 888 376 897 b 307 1028 376 1019 356 1028 b 235 958 254 1028 235 1019 b 307 888 235 897 254 888 z m 547 888 b 618 958 597 888 618 897 b 547 1028 618 1019 597 1028 b 476 958 496 1028 476 1019 b 547 888 476 897 496 888 z m 606 750 l 606 240 b 385 92 563 111 479 92 b 240 275 265 92 240 161 l 240 750 l 121 750 l 121 231 b 372 -14 121 86 176 -14 b 608 108 464 -14 563 10 l 624 0 l 725 0 l 725 750 z "},"ý":{"ha":732,"x_min":0,"x_max":0,"o":"m 301 854 l 399 854 l 571 1046 l 418 1046 z m 93 -278 b 449 25 314 -278 378 -162 l 718 750 l 597 750 l 381 128 l 372 128 l 143 750 l 14 750 l 314 1 b 93 -175 276 -119 224 -175 z "},"þ":{"ha":882,"x_min":0,"x_max":0,"o":"m 489 764 b 246 615 346 764 276 704 l 246 1056 l 126 1056 l 126 -278 l 246 -278 l 246 131 b 489 -14 276 43 343 -14 b 799 375 740 -14 799 168 b 489 764 799 604 740 764 z m 474 88 b 240 375 293 88 240 203 b 474 664 240 554 293 664 b 674 375 647 664 674 533 b 474 88 674 229 651 88 z "},"ÿ":{"ha":732,"x_min":0,"x_max":0,"o":"m 247 888 b 317 958 296 888 317 897 b 247 1028 317 1019 296 1028 b 175 958 194 1028 175 1019 b 247 888 175 897 194 888 z m 488 888 b 558 958 538 888 558 897 b 488 1028 558 1019 538 1028 b 417 958 436 1028 417 1019 b 488 888 417 897 436 888 z m 93 -278 b 449 25 314 -278 378 -162 l 718 750 l 597 750 l 381 128 l 372 128 l 143 750 l 14 750 l 314 1 b 93 -175 276 -119 224 -175 z "},"Ā":{"ha":926,"x_min":0,"x_max":0,"o":"m 667 1190 l 261 1190 l 261 1092 l 667 1092 z m 779 0 l 911 0 l 547 964 l 381 964 l 15 0 l 143 0 l 249 288 l 675 288 z m 290 399 l 456 847 l 472 847 l 635 399 z "},"ā":{"ha":850,"x_min":0,"x_max":0,"o":"m 651 1008 l 246 1008 l 246 910 l 651 910 z m 424 764 b 253 753 369 764 308 760 l 253 647 b 418 664 307 658 368 664 b 603 511 571 664 603 601 l 603 449 l 374 449 b 76 210 194 449 76 388 b 335 -14 76 68 156 -14 b 603 114 447 -14 560 32 l 621 0 l 722 0 l 722 532 b 424 764 722 667 660 764 z m 346 86 b 200 211 240 86 200 129 b 382 353 200 328 258 353 l 603 353 l 603 229 b 346 86 564 140 471 86 z "},"Ă":{"ha":926,"x_min":0,"x_max":0,"o":"m 464 1035 b 699 1228 601 1035 669 1104 l 596 1228 b 464 1129 581 1167 531 1129 b 329 1228 397 1129 346 1167 l 228 1228 b 464 1035 257 1104 326 1035 z m 779 0 l 911 0 l 547 964 l 381 964 l 15 0 l 143 0 l 249 288 l 675 288 z m 290 399 l 456 847 l 472 847 l 635 399 z "},"ă":{"ha":850,"x_min":0,"x_max":0,"o":"m 449 825 b 669 1019 578 825 642 896 l 567 1019 b 449 919 553 958 508 919 b 328 1019 389 919 343 958 l 226 1019 b 449 825 254 896 319 825 z m 424 764 b 253 753 369 764 308 760 l 253 647 b 418 664 307 658 368 664 b 603 511 571 664 603 601 l 603 449 l 374 449 b 76 210 194 449 76 388 b 335 -14 76 68 156 -14 b 603 114 447 -14 560 32 l 621 0 l 722 0 l 722 532 b 424 764 722 667 660 764 z m 346 86 b 200 211 240 86 200 129 b 382 353 200 328 258 353 l 603 353 l 603 229 b 346 86 564 140 471 86 z "},"Ą":{"ha":926,"x_min":0,"x_max":0,"o":"m 875 -210 b 796 -126 825 -210 796 -176 b 894 0 796 -65 829 -31 l 911 0 l 547 964 l 381 964 l 15 0 l 143 0 l 249 288 l 675 288 l 779 0 l 793 0 b 676 -156 731 -33 676 -90 b 850 -283 676 -246 751 -283 b 939 -267 878 -283 907 -278 l 939 -200 b 875 -210 915 -207 894 -210 z m 290 399 l 456 847 l 472 847 l 635 399 z "},"ą":{"ha":850,"x_min":0,"x_max":0,"o":"m 701 -210 b 622 -126 651 -210 622 -176 b 721 0 622 -65 656 -31 l 722 0 l 722 532 b 424 764 722 667 660 764 b 253 753 369 764 308 760 l 253 647 b 418 664 307 658 368 664 b 603 511 571 664 603 601 l 603 449 l 374 449 b 76 210 194 449 76 388 b 335 -14 76 68 156 -14 b 603 114 447 -14 560 32 l 621 1 b 503 -156 558 -32 503 -90 b 676 -283 503 -246 578 -283 b 765 -267 704 -283 733 -278 l 765 -200 b 701 -210 742 -207 721 -210 z m 346 86 b 200 211 240 86 200 129 b 382 353 200 328 258 353 l 603 353 l 603 229 b 346 86 564 140 471 86 z "},"Ć":{"ha":832,"x_min":0,"x_max":0,"o":"m 415 1035 l 519 1035 l 742 1226 l 574 1226 z m 539 -14 b 772 28 636 -14 718 4 l 772 136 b 543 99 699 111 633 99 b 231 485 329 99 231 178 b 556 868 231 772 336 868 b 761 835 640 868 706 856 l 761 950 b 553 978 704 968 642 978 b 100 482 275 978 100 854 b 539 -14 100 79 274 -14 z "},"ć":{"ha":690,"x_min":0,"x_max":0,"o":"m 322 854 l 419 854 l 592 1046 l 439 1046 z m 429 -14 b 628 14 500 -14 586 -1 l 628 124 b 432 92 574 101 503 92 b 210 374 265 92 210 156 b 431 660 210 594 265 660 b 625 626 507 660 569 647 l 625 736 b 429 764 583 750 513 764 b 82 375 208 764 82 674 b 429 -14 82 76 208 -14 z "},"Ĉ":{"ha":832,"x_min":0,"x_max":0,"o":"m 217 1035 l 328 1035 l 481 1160 l 632 1035 l 743 1035 l 556 1240 l 404 1240 z m 539 -14 b 772 28 636 -14 718 4 l 772 136 b 543 99 699 111 633 99 b 231 485 329 99 231 178 b 556 868 231 772 336 868 b 761 835 640 868 706 856 l 761 950 b 553 978 704 968 642 978 b 100 482 275 978 100 854 b 539 -14 100 79 274 -14 z "},"ĉ":{"ha":690,"x_min":0,"x_max":0,"o":"m 167 854 l 264 854 l 388 972 l 510 854 l 607 854 l 463 1046 l 311 1046 z m 429 -14 b 628 14 500 -14 586 -1 l 628 124 b 432 92 574 101 503 92 b 210 374 265 92 210 156 b 431 660 210 594 265 660 b 625 626 507 660 569 647 l 625 736 b 429 764 583 750 513 764 b 82 375 208 764 82 674 b 429 -14 82 76 208 -14 z "},"Ċ":{"ha":832,"x_min":0,"x_max":0,"o":"m 481 1056 b 551 1126 531 1056 551 1065 b 481 1197 551 1189 531 1197 b 408 1126 428 1197 408 1189 b 481 1056 408 1065 428 1056 z m 539 -14 b 772 28 636 -14 718 4 l 772 136 b 543 99 699 111 633 99 b 231 485 329 99 231 178 b 556 868 231 772 336 868 b 761 835 640 868 706 856 l 761 950 b 553 978 704 968 642 978 b 100 482 275 978 100 854 b 539 -14 100 79 274 -14 z "},"ċ":{"ha":690,"x_min":0,"x_max":0,"o":"m 388 888 b 458 958 438 888 458 897 b 388 1028 458 1019 438 1028 b 315 958 335 1028 315 1019 b 388 888 315 897 335 888 z m 429 -14 b 628 14 500 -14 586 -1 l 628 124 b 432 92 574 101 503 92 b 210 374 265 92 210 156 b 431 660 210 594 265 660 b 625 626 507 660 569 647 l 625 736 b 429 764 583 750 513 764 b 82 375 208 764 82 674 b 429 -14 82 76 208 -14 z "},"Č":{"ha":832,"x_min":0,"x_max":0,"o":"m 404 1053 l 556 1053 l 743 1258 l 632 1258 l 479 1135 l 328 1258 l 217 1258 z m 539 -14 b 772 28 636 -14 718 4 l 772 136 b 543 99 699 111 633 99 b 231 485 329 99 231 178 b 556 868 231 772 336 868 b 761 835 640 868 706 856 l 761 950 b 553 978 704 968 642 978 b 100 482 275 978 100 854 b 539 -14 100 79 274 -14 z "},"č":{"ha":690,"x_min":0,"x_max":0,"o":"m 311 854 l 463 854 l 607 1046 l 510 1046 l 386 928 l 264 1046 l 167 1046 z m 429 -14 b 628 14 500 -14 586 -1 l 628 124 b 432 92 574 101 503 92 b 210 374 265 92 210 156 b 431 660 210 594 265 660 b 625 626 507 660 569 647 l 625 736 b 429 764 583 750 513 764 b 82 375 208 764 82 674 b 429 -14 82 76 208 -14 z "},"Ď":{"ha":971,"x_min":0,"x_max":0,"o":"m 508 1053 l 696 1258 l 585 1258 l 432 1135 l 281 1258 l 169 1258 l 357 1053 z m 406 964 l 128 964 l 128 0 l 406 0 b 871 482 682 0 871 110 b 406 964 871 883 682 964 z m 403 110 l 253 110 l 253 856 l 403 856 b 742 482 599 856 742 790 b 403 110 742 192 604 110 z "},"ď":{"ha":889,"x_min":0,"x_max":0,"o":"m 924 1057 l 817 1057 b 832 972 828 1032 832 1001 b 811 861 832 935 824 894 l 888 861 b 935 989 910 886 935 938 b 924 1057 935 1013 931 1035 z m 638 619 b 393 764 607 707 540 764 b 83 375 144 764 83 581 b 393 -14 83 146 144 -14 b 638 124 529 -14 608 44 l 656 0 l 757 0 l 757 1056 l 638 1056 z m 411 88 b 211 375 235 88 211 218 b 411 664 211 521 231 664 b 642 375 592 664 642 547 b 411 88 642 196 592 88 z "},"Đ":{"ha":999,"x_min":0,"x_max":0,"o":"m 433 964 l 156 964 l 156 554 l 46 554 l 46 449 l 156 449 l 156 0 l 433 0 b 899 482 710 0 899 110 b 433 964 899 883 710 964 z m 431 110 l 281 110 l 281 449 l 510 449 l 510 554 l 281 554 l 281 856 l 431 856 b 769 482 626 856 769 790 b 431 110 769 192 632 110 z "},"đ":{"ha":882,"x_min":0,"x_max":0,"o":"m 858 946 l 757 946 l 757 1056 l 638 1056 l 638 946 l 394 946 l 394 850 l 638 850 l 638 619 b 393 764 607 707 540 764 b 83 375 144 764 83 581 b 393 -14 83 146 144 -14 b 638 124 529 -14 608 44 l 656 0 l 757 0 l 757 850 l 858 850 z m 411 88 b 211 375 235 88 211 218 b 411 664 211 521 231 664 b 642 375 592 664 642 547 b 411 88 642 196 592 88 z "},"Ē":{"ha":772,"x_min":0,"x_max":0,"o":"m 603 1190 l 197 1190 l 197 1092 l 603 1092 z m 253 113 l 253 449 l 636 449 l 636 554 l 253 554 l 253 853 l 664 853 l 664 964 l 128 964 l 128 0 l 699 0 l 699 113 z "},"ē":{"ha":803,"x_min":0,"x_max":0,"o":"m 604 1008 l 199 1008 l 199 910 l 604 910 z m 722 450 b 422 764 722 596 678 764 b 82 375 208 764 82 674 b 429 -14 82 76 208 -14 b 682 31 536 -14 639 8 l 682 140 b 447 92 625 113 529 92 b 207 331 265 92 208 167 l 715 363 b 722 450 719 397 722 429 z m 207 419 b 422 665 211 572 250 665 b 604 449 585 665 604 564 z "},"Ĕ":{"ha":772,"x_min":0,"x_max":0,"o":"m 400 1035 b 635 1228 538 1035 606 1104 l 532 1228 b 400 1129 517 1167 467 1129 b 265 1228 333 1129 282 1167 l 164 1228 b 400 1035 193 1104 263 1035 z m 253 113 l 253 449 l 636 449 l 636 554 l 253 554 l 253 853 l 664 853 l 664 964 l 128 964 l 128 0 l 699 0 l 699 113 z "},"ĕ":{"ha":803,"x_min":0,"x_max":0,"o":"m 401 825 b 622 1019 531 825 594 896 l 519 1019 b 401 919 506 958 461 919 b 281 1019 342 919 296 958 l 179 1019 b 401 825 207 896 272 825 z m 722 450 b 422 764 722 596 678 764 b 82 375 208 764 82 674 b 429 -14 82 76 208 -14 b 682 31 536 -14 639 8 l 682 140 b 447 92 625 113 529 92 b 207 331 265 92 208 167 l 715 363 b 722 450 719 397 722 429 z m 207 419 b 422 665 211 572 250 665 b 604 449 585 665 604 564 z "},"Ė":{"ha":772,"x_min":0,"x_max":0,"o":"m 400 1056 b 471 1126 450 1056 471 1065 b 400 1197 471 1189 450 1197 b 328 1126 347 1197 328 1189 b 400 1056 328 1065 347 1056 z m 253 113 l 253 449 l 636 449 l 636 554 l 253 554 l 253 853 l 664 853 l 664 964 l 128 964 l 128 0 l 699 0 l 699 113 z "},"ė":{"ha":803,"x_min":0,"x_max":0,"o":"m 401 888 b 472 958 451 888 472 897 b 401 1028 472 1019 451 1028 b 329 958 349 1028 329 1019 b 401 888 329 897 349 888 z m 722 450 b 422 764 722 596 678 764 b 82 375 208 764 82 674 b 429 -14 82 76 208 -14 b 682 31 536 -14 639 8 l 682 140 b 447 92 625 113 529 92 b 207 331 265 92 208 167 l 715 363 b 722 450 719 397 722 429 z m 207 419 b 422 665 211 572 250 665 b 604 449 585 665 604 564 z "},"Ę":{"ha":772,"x_min":0,"x_max":0,"o":"m 628 0 l 699 0 l 699 113 l 253 113 l 253 449 l 636 449 l 636 554 l 253 554 l 253 853 l 664 853 l 664 964 l 128 964 l 128 0 l 526 0 b 410 -156 464 -33 410 -90 b 583 -283 410 -246 485 -283 b 672 -267 611 -283 640 -278 l 672 -200 b 608 -210 649 -207 628 -210 b 529 -126 558 -210 529 -176 b 628 0 529 -65 563 -31 z "},"ę":{"ha":803,"x_min":0,"x_max":0,"o":"m 722 450 b 422 764 722 596 678 764 b 82 375 208 764 82 674 b 429 -14 82 76 208 -14 b 499 -11 453 -14 476 -12 b 425 -139 457 -44 425 -89 b 599 -267 425 -229 500 -267 b 688 -250 626 -267 656 -261 l 688 -183 b 624 -193 664 -190 643 -193 b 544 -110 574 -193 544 -160 b 636 14 544 -51 575 -17 b 682 31 654 18 671 25 l 682 140 b 447 92 625 113 529 92 b 207 331 265 92 208 167 l 715 363 b 722 450 719 397 722 429 z m 207 419 b 422 665 211 572 250 665 b 604 449 585 665 604 564 z "},"Ě":{"ha":772,"x_min":0,"x_max":0,"o":"m 475 1053 l 663 1258 l 551 1258 l 399 1135 l 247 1258 l 136 1258 l 324 1053 z m 253 113 l 253 449 l 636 449 l 636 554 l 253 554 l 253 853 l 664 853 l 664 964 l 128 964 l 128 0 l 699 0 l 699 113 z "},"ě":{"ha":803,"x_min":0,"x_max":0,"o":"m 476 854 l 621 1046 l 524 1046 l 400 928 l 278 1046 l 181 1046 l 325 854 z m 722 450 b 422 764 722 596 678 764 b 82 375 208 764 82 674 b 429 -14 82 76 208 -14 b 682 31 536 -14 639 8 l 682 140 b 447 92 625 113 529 92 b 207 331 265 92 208 167 l 715 363 b 722 450 719 397 722 429 z m 207 419 b 422 665 211 572 250 665 b 604 449 585 665 604 564 z "},"Ĝ":{"ha":951,"x_min":0,"x_max":0,"o":"m 250 1035 l 361 1035 l 514 1160 l 665 1035 l 776 1035 l 589 1240 l 438 1240 z m 551 -14 b 842 26 674 -14 772 4 l 842 517 l 529 517 l 529 411 l 722 411 l 722 113 b 565 94 678 100 610 94 b 231 482 349 94 231 154 b 571 868 231 794 356 868 b 817 829 668 868 753 854 l 817 940 b 565 978 760 964 654 978 b 100 482 275 978 100 854 b 551 -14 100 79 271 -14 z "},"ĝ":{"ha":883,"x_min":0,"x_max":0,"o":"m 397 972 l 519 854 l 617 854 l 472 1046 l 321 1046 l 176 854 l 274 854 z m 638 750 l 638 610 b 394 764 608 699 546 764 b 83 382 144 764 83 589 b 394 0 83 153 144 0 b 638 140 539 0 607 53 l 638 65 b 392 -175 638 -107 558 -175 b 208 -158 328 -175 265 -169 l 208 -260 b 390 -278 256 -269 326 -278 b 757 53 644 -278 757 -154 l 757 750 z m 411 100 b 211 382 235 100 211 225 b 411 664 211 528 231 664 b 642 382 592 664 642 554 b 411 100 642 203 592 100 z "},"Ğ":{"ha":951,"x_min":0,"x_max":0,"o":"m 514 1035 b 749 1228 651 1035 719 1104 l 646 1228 b 514 1129 631 1167 581 1129 b 379 1228 447 1129 396 1167 l 278 1228 b 514 1035 307 1104 376 1035 z m 551 -14 b 842 26 674 -14 772 4 l 842 517 l 529 517 l 529 411 l 722 411 l 722 113 b 565 94 678 100 610 94 b 231 482 349 94 231 154 b 571 868 231 794 356 868 b 817 829 668 868 753 854 l 817 940 b 565 978 760 964 654 978 b 100 482 275 978 100 854 b 551 -14 100 79 271 -14 z "},"ğ":{"ha":883,"x_min":0,"x_max":0,"o":"m 397 825 b 618 1019 526 825 590 896 l 515 1019 b 397 919 501 958 457 919 b 276 1019 338 919 292 958 l 175 1019 b 397 825 203 896 268 825 z m 638 750 l 638 610 b 394 764 608 699 546 764 b 83 382 144 764 83 589 b 394 0 83 153 144 0 b 638 140 539 0 607 53 l 638 65 b 392 -175 638 -107 558 -175 b 208 -158 328 -175 265 -169 l 208 -260 b 390 -278 256 -269 326 -278 b 757 53 644 -278 757 -154 l 757 750 z m 411 100 b 211 382 235 100 211 225 b 411 664 211 528 231 664 b 642 382 592 664 642 554 b 411 100 642 203 592 100 z "},"Ġ":{"ha":951,"x_min":0,"x_max":0,"o":"m 514 1056 b 585 1126 564 1056 585 1065 b 514 1197 585 1189 564 1197 b 442 1126 461 1197 442 1189 b 514 1056 442 1065 461 1056 z m 551 -14 b 842 26 674 -14 772 4 l 842 517 l 529 517 l 529 411 l 722 411 l 722 113 b 565 94 678 100 610 94 b 231 482 349 94 231 154 b 571 868 231 794 356 868 b 817 829 668 868 753 854 l 817 940 b 565 978 760 964 654 978 b 100 482 275 978 100 854 b 551 -14 100 79 271 -14 z "},"ġ":{"ha":883,"x_min":0,"x_max":0,"o":"m 397 888 b 468 958 447 888 468 897 b 397 1028 468 1019 447 1028 b 325 958 344 1028 325 1019 b 397 888 325 897 344 888 z m 638 750 l 638 610 b 394 764 608 699 546 764 b 83 382 144 764 83 589 b 394 0 83 153 144 0 b 638 140 539 0 607 53 l 638 65 b 392 -175 638 -107 558 -175 b 208 -158 328 -175 265 -169 l 208 -260 b 390 -278 256 -269 326 -278 b 757 53 644 -278 757 -154 l 757 750 z m 411 100 b 211 382 235 100 211 225 b 411 664 211 528 231 664 b 642 382 592 664 642 554 b 411 100 642 203 592 100 z "},"Ģ":{"ha":951,"x_min":0,"x_max":0,"o":"m 551 -14 b 842 26 674 -14 772 4 l 842 517 l 529 517 l 529 411 l 722 411 l 722 113 b 565 94 678 100 610 94 b 231 482 349 94 231 154 b 571 868 231 794 356 868 b 817 829 668 868 753 854 l 817 940 b 565 978 760 964 654 978 b 100 482 275 978 100 854 b 551 -14 100 79 271 -14 z m 426 -278 l 514 -278 b 619 -85 565 -221 619 -139 l 486 -85 b 426 -278 486 -143 458 -218 z "},"ģ":{"ha":883,"x_min":0,"x_max":0,"o":"m 522 1042 l 433 1042 b 328 849 382 985 328 903 l 461 849 b 522 1042 461 907 489 982 z m 638 750 l 638 610 b 394 764 608 699 546 764 b 83 382 144 764 83 589 b 394 0 83 153 144 0 b 638 140 539 0 607 53 l 638 65 b 392 -175 638 -107 558 -175 b 208 -158 328 -175 265 -169 l 208 -260 b 390 -278 256 -269 326 -278 b 757 53 644 -278 757 -154 l 757 750 z m 411 100 b 211 382 235 100 211 225 b 411 664 211 528 231 664 b 642 382 592 664 642 554 b 411 100 642 203 592 100 z "},"Ĥ":{"ha":983,"x_min":0,"x_max":0,"o":"m 492 1160 l 643 1035 l 754 1035 l 567 1240 l 415 1240 l 228 1035 l 339 1035 z m 729 964 l 729 571 l 253 571 l 253 964 l 128 964 l 128 0 l 253 0 l 253 467 l 729 467 l 729 0 l 856 0 l 856 964 z "},"ĥ":{"ha":858,"x_min":0,"x_max":0,"o":"m 308 1106 l 406 1106 l 261 1297 l 110 1297 l -35 1106 l 63 1106 l 186 1224 z m 486 764 b 246 643 394 764 292 739 l 246 1056 l 126 1056 l 126 0 l 246 0 l 246 507 b 474 657 288 639 379 657 b 618 475 593 657 618 590 l 618 0 l 738 0 l 738 519 b 486 764 738 663 682 764 z "},"Ħ":{"ha":983,"x_min":0,"x_max":0,"o":"m 924 829 l 856 829 l 856 964 l 729 964 l 729 829 l 253 829 l 253 964 l 128 964 l 128 829 l 60 829 l 60 724 l 128 724 l 128 0 l 253 0 l 253 467 l 729 467 l 729 0 l 856 0 l 856 724 l 924 724 z m 729 571 l 253 571 l 253 724 l 729 724 z "},"ħ":{"ha":858,"x_min":0,"x_max":0,"o":"m 486 764 b 246 643 394 764 292 739 l 246 850 l 461 850 l 461 946 l 246 946 l 246 1056 l 126 1056 l 126 946 l 24 946 l 24 850 l 126 850 l 126 0 l 246 0 l 246 507 b 474 657 288 639 379 657 b 618 475 593 657 618 590 l 618 0 l 738 0 l 738 519 b 486 764 738 663 682 764 z "},"Ĩ":{"ha":381,"x_min":0,"x_max":0,"o":"m 290 1036 b 426 1203 364 1036 418 1100 l 332 1211 b 283 1132 328 1157 313 1132 b 213 1160 264 1132 242 1140 b 88 1211 168 1189 140 1211 b -46 1043 11 1211 -39 1147 l 49 1036 b 94 1115 53 1090 67 1115 b 169 1074 117 1115 142 1093 b 290 1036 199 1053 231 1036 z m 128 0 l 253 0 l 253 964 l 128 964 z "},"ĩ":{"ha":372,"x_min":0,"x_max":0,"o":"m 288 875 b 422 1043 361 875 415 939 l 328 1050 b 281 971 324 996 310 971 b 210 999 261 971 239 979 b 85 1050 165 1028 138 1050 b -49 882 8 1050 -42 986 l 46 875 b 90 954 50 929 63 954 b 167 913 114 954 139 932 b 288 875 196 892 228 875 z m 126 0 l 246 0 l 246 750 l 126 750 z "},"Ī":{"ha":381,"x_min":0,"x_max":0,"o":"m -12 1056 l 393 1056 l 393 1154 l -12 1154 z m 128 0 l 253 0 l 253 964 l 128 964 z "},"ī":{"ha":372,"x_min":0,"x_max":0,"o":"m -15 910 l 390 910 l 390 1008 l -15 1008 z m 126 0 l 246 0 l 246 750 l 126 750 z "},"Ĭ":{"ha":381,"x_min":0,"x_max":0,"o":"m 190 1026 b 411 1219 319 1026 383 1096 l 310 1219 b 190 1121 294 1158 250 1121 b 71 1219 131 1121 86 1158 l -32 1219 b 190 1026 -4 1096 61 1026 z m 128 0 l 253 0 l 253 964 l 128 964 z "},"ĭ":{"ha":372,"x_min":0,"x_max":0,"o":"m 188 825 b 408 1019 317 825 381 896 l 306 1019 b 188 919 292 958 247 919 b 67 1019 128 919 82 958 l -35 1019 b 188 825 -7 896 58 825 z m 126 0 l 246 0 l 246 750 l 126 750 z "},"Į":{"ha":381,"x_min":0,"x_max":0,"o":"m 231 -210 b 151 -126 181 -210 151 -176 b 250 0 151 -65 185 -31 l 253 0 l 253 964 l 128 964 l 128 0 l 149 0 b 32 -156 86 -33 32 -90 b 206 -283 32 -246 107 -283 b 294 -267 233 -283 263 -278 l 294 -200 b 231 -210 271 -207 250 -210 z "},"į":{"ha":372,"x_min":0,"x_max":0,"o":"m 225 -210 b 146 -126 175 -210 146 -176 b 244 0 146 -65 179 -31 l 246 0 l 246 750 l 126 750 l 126 0 l 143 0 b 26 -156 81 -33 26 -90 b 200 -283 26 -246 101 -283 b 289 -267 228 -283 257 -278 l 289 -200 b 225 -210 265 -207 244 -210 z m 188 888 b 258 958 238 888 258 897 b 188 1029 258 1021 238 1029 b 115 958 135 1029 115 1021 b 188 888 115 897 135 888 z "},"İ":{"ha":381,"x_min":0,"x_max":0,"o":"m 190 1101 b 261 1172 240 1101 261 1111 b 190 1242 261 1233 240 1242 b 118 1172 138 1242 118 1233 b 190 1101 118 1111 138 1101 z m 128 0 l 253 0 l 253 964 l 128 964 z "},"Ĳ":{"ha":757,"x_min":0,"x_max":0,"o":"m 128 0 l 253 0 l 253 964 l 128 964 z m 372 -251 b 635 22 551 -251 635 -146 l 635 964 l 510 964 l 510 35 b 368 -142 510 -71 469 -142 b 275 -132 322 -142 297 -136 l 275 -243 b 372 -251 301 -249 344 -251 z "},"ĳ":{"ha":744,"x_min":0,"x_max":0,"o":"m 188 888 b 258 958 238 888 258 897 b 188 1029 258 1021 238 1029 b 115 958 135 1029 115 1021 b 188 888 115 897 135 888 z m 560 888 b 631 958 610 888 631 897 b 560 1029 631 1021 610 1029 b 488 958 507 1029 488 1021 b 560 888 488 897 507 888 z m 126 0 l 246 0 l 246 750 l 126 750 z m 363 -278 b 618 10 533 -278 618 -232 l 618 750 l 499 750 l 499 22 b 371 -179 499 -131 478 -179 b 275 -172 336 -179 300 -175 l 275 -271 b 363 -278 304 -275 333 -278 z "},"Ĵ":{"ha":376,"x_min":0,"x_max":0,"o":"m -76 1035 l 35 1035 l 188 1160 l 339 1035 l 450 1035 l 263 1240 l 111 1240 z m -8 -251 b 254 22 171 -251 254 -146 l 254 964 l 129 964 l 129 35 b -12 -142 129 -71 89 -142 b -106 -132 -58 -142 -83 -136 l -106 -243 b -8 -251 -79 -249 -36 -251 z "},"ĵ":{"ha":372,"x_min":0,"x_max":0,"o":"m -33 854 l 64 854 l 188 972 l 310 854 l 407 854 l 263 1046 l 111 1046 z m -10 -278 b 246 10 161 -278 246 -232 l 246 750 l 126 750 l 126 22 b -1 -179 126 -131 106 -179 b -97 -172 -36 -179 -72 -175 l -97 -271 b -10 -278 -68 -275 -39 -278 z "},"Ķ":{"ha":853,"x_min":0,"x_max":0,"o":"m 419 515 l 814 964 l 658 964 l 321 563 l 253 563 l 253 964 l 128 964 l 128 0 l 253 0 l 253 453 l 321 453 l 665 0 l 826 0 z m 340 -278 l 428 -278 b 533 -85 479 -221 533 -139 l 400 -85 b 340 -278 400 -143 372 -218 z "},"ķ":{"ha":719,"x_min":0,"x_max":0,"o":"m 382 401 l 697 750 l 549 750 l 289 443 l 246 443 l 246 1056 l 126 1056 l 126 0 l 246 0 l 246 350 l 286 350 l 560 0 l 714 0 z m 290 -278 l 378 -278 b 483 -85 429 -221 483 -139 l 350 -85 b 290 -278 350 -143 322 -218 z "},"ĸ":{"ha":719,"x_min":0,"x_max":0,"o":"m 382 401 l 697 750 l 549 750 l 289 443 l 246 443 l 246 750 l 126 750 l 126 0 l 246 0 l 246 350 l 286 350 l 560 0 l 714 0 z "},"Ĺ":{"ha":704,"x_min":0,"x_max":0,"o":"m 450 1226 l 282 1226 l 124 1035 l 228 1035 z m 253 113 l 253 964 l 128 964 l 128 0 l 671 0 l 671 113 z "},"ĺ":{"ha":397,"x_min":0,"x_max":0,"o":"m 135 1160 l 232 1160 l 404 1351 l 251 1351 z m 293 -8 b 372 0 326 -8 350 -6 l 372 99 b 315 92 353 93 332 92 b 246 182 267 92 246 107 l 246 1056 l 126 1056 l 126 151 b 293 -8 126 39 182 -8 z "},"Ļ":{"ha":704,"x_min":0,"x_max":0,"o":"m 253 113 l 253 964 l 128 964 l 128 0 l 671 0 l 671 113 z m 301 -278 l 389 -278 b 494 -85 440 -221 494 -139 l 361 -85 b 301 -278 361 -143 333 -218 z "},"ļ":{"ha":397,"x_min":0,"x_max":0,"o":"m 293 -8 b 372 0 326 -8 350 -6 l 372 99 b 315 92 353 93 332 92 b 246 182 267 92 246 107 l 246 1056 l 126 1056 l 126 151 b 293 -8 126 39 182 -8 z m 149 -278 l 236 -278 b 342 -85 288 -221 342 -139 l 208 -85 b 149 -278 208 -143 181 -218 z "},"Ľ":{"ha":704,"x_min":0,"x_max":0,"o":"m 444 769 b 492 897 467 794 492 846 b 479 965 492 921 488 943 l 372 965 b 389 881 385 940 389 910 b 368 769 389 843 379 803 z m 253 113 l 253 964 l 128 964 l 128 0 l 671 0 l 671 113 z "},"ľ":{"ha":403,"x_min":0,"x_max":0,"o":"m 294 861 l 371 861 b 418 989 392 886 418 938 b 406 1057 418 1013 413 1035 l 299 1057 b 314 972 310 1032 314 1001 b 294 861 314 935 306 894 z m 293 -8 b 372 0 326 -8 350 -6 l 372 99 b 315 92 353 93 332 92 b 246 182 267 92 246 107 l 246 1056 l 126 1056 l 126 151 b 293 -8 126 39 182 -8 z "},"Ŀ":{"ha":704,"x_min":0,"x_max":0,"o":"m 253 113 l 253 964 l 128 964 l 128 0 l 671 0 l 671 113 z m 531 411 b 601 481 581 411 601 421 b 531 551 601 543 581 551 b 458 481 478 551 458 543 b 531 411 458 421 478 411 z "},"ŀ":{"ha":404,"x_min":0,"x_max":0,"o":"m 293 -8 b 372 0 326 -8 350 -6 l 372 99 b 315 92 353 93 332 92 b 246 182 267 92 246 107 l 246 1056 l 126 1056 l 126 151 b 293 -8 126 39 182 -8 z m 388 425 b 458 496 438 425 458 435 b 388 565 458 557 438 565 b 315 496 335 565 315 557 b 388 425 315 435 335 425 z "},"Ł":{"ha":704,"x_min":0,"x_max":0,"o":"m 253 113 l 253 488 l 497 628 l 444 719 l 253 608 l 253 964 l 128 964 l 128 536 l -7 458 l 46 368 l 128 415 l 128 0 l 671 0 l 671 113 z "},"ł":{"ha":397,"x_min":0,"x_max":0,"o":"m 246 182 l 246 546 l 401 686 l 338 757 l 246 674 l 246 1056 l 126 1056 l 126 565 l -6 446 l 57 375 l 126 438 l 126 151 b 293 -8 126 39 182 -8 b 372 0 326 -8 350 -6 l 372 99 b 315 92 353 93 332 92 b 246 182 267 92 246 107 z "},"Ń":{"ha":1024,"x_min":0,"x_max":0,"o":"m 447 1035 l 551 1035 l 774 1226 l 606 1226 z m 128 0 l 250 0 l 250 849 l 258 849 l 731 0 l 896 0 l 896 964 l 771 964 l 771 164 l 763 164 l 324 964 l 128 964 z "},"ń":{"ha":858,"x_min":0,"x_max":0,"o":"m 635 1046 l 482 1046 l 365 854 l 463 854 z m 486 764 b 246 643 394 764 292 739 l 246 750 l 126 750 l 126 0 l 246 0 l 246 507 b 474 657 288 639 379 657 b 617 475 593 657 617 590 l 617 0 l 738 0 l 738 519 b 486 764 738 663 682 764 z "},"Ņ":{"ha":1024,"x_min":0,"x_max":0,"o":"m 128 0 l 250 0 l 250 849 l 258 849 l 731 0 l 896 0 l 896 964 l 771 964 l 771 164 l 763 164 l 324 964 l 128 964 z m 414 -278 l 501 -278 b 607 -85 553 -221 607 -139 l 474 -85 b 414 -278 474 -143 446 -218 z "},"ņ":{"ha":858,"x_min":0,"x_max":0,"o":"m 486 764 b 246 643 394 764 292 739 l 246 750 l 126 750 l 126 0 l 246 0 l 246 507 b 474 657 288 639 379 657 b 617 475 593 657 617 590 l 617 0 l 738 0 l 738 519 b 486 764 738 663 682 764 z m 339 -278 l 426 -278 b 532 -85 478 -221 532 -139 l 399 -85 b 339 -278 399 -143 371 -218 z "},"Ň":{"ha":1024,"x_min":0,"x_max":0,"o":"m 436 1053 l 588 1053 l 775 1258 l 664 1258 l 511 1135 l 360 1258 l 249 1258 z m 128 0 l 250 0 l 250 849 l 258 849 l 731 0 l 896 0 l 896 964 l 771 964 l 771 164 l 763 164 l 324 964 l 128 964 z "},"ň":{"ha":858,"x_min":0,"x_max":0,"o":"m 506 854 l 650 1046 l 553 1046 l 429 928 l 307 1046 l 210 1046 l 354 854 z m 486 764 b 246 643 394 764 292 739 l 246 750 l 126 750 l 126 0 l 246 0 l 246 507 b 474 657 288 639 379 657 b 617 475 593 657 617 590 l 617 0 l 738 0 l 738 519 b 486 764 738 663 682 764 z "},"ŉ":{"ha":929,"x_min":0,"x_max":0,"o":"m -32 700 l 56 700 b 161 1056 108 803 161 956 l 44 1056 b -32 700 44 949 8 808 z m 556 764 b 315 643 464 764 363 739 l 315 750 l 196 750 l 196 0 l 315 0 l 315 507 b 544 657 357 639 449 657 b 688 475 664 657 688 590 l 688 0 l 808 0 l 808 519 b 556 764 808 663 751 764 z "},"Ŋ":{"ha":1024,"x_min":0,"x_max":0,"o":"m 771 964 l 771 201 l 324 964 l 128 964 l 128 0 l 250 0 l 250 849 l 258 849 l 772 -21 l 772 -40 b 661 -161 772 -118 750 -161 b 614 -160 644 -161 629 -161 l 614 -264 b 676 -268 631 -267 654 -268 b 896 -44 824 -268 896 -193 l 896 964 z "},"ŋ":{"ha":858,"x_min":0,"x_max":0,"o":"m 486 764 b 246 643 394 764 292 739 l 246 750 l 126 750 l 126 0 l 246 0 l 246 507 b 474 657 288 639 379 657 b 617 475 593 657 617 590 l 617 22 b 490 -179 617 -131 597 -179 b 394 -172 456 -179 419 -175 l 394 -271 b 482 -278 424 -275 453 -278 b 738 0 649 -278 735 -233 l 738 519 b 486 764 738 663 682 764 z "},"Ō":{"ha":1032,"x_min":0,"x_max":0,"o":"m 314 1092 l 719 1092 l 719 1190 l 314 1190 z m 515 -14 b 931 482 789 -14 931 93 b 515 978 931 869 789 978 b 100 482 243 978 100 869 b 515 -14 100 93 243 -14 z m 515 93 b 231 482 281 93 231 207 b 515 872 231 749 281 872 b 801 482 751 872 801 749 b 515 93 801 207 751 93 z "},"ō":{"ha":858,"x_min":0,"x_max":0,"o":"m 226 910 l 632 910 l 632 1008 l 226 1008 z m 429 -14 b 775 375 651 -14 775 76 b 429 764 775 674 651 764 b 82 375 208 764 82 674 b 429 -14 82 76 208 -14 z m 429 88 b 210 375 267 88 210 156 b 429 664 210 594 261 664 b 649 375 593 664 649 594 b 429 88 649 156 599 88 z "},"Ŏ":{"ha":1032,"x_min":0,"x_max":0,"o":"m 517 1035 b 751 1228 654 1035 722 1104 l 649 1228 b 517 1129 633 1167 583 1129 b 382 1228 450 1129 399 1167 l 281 1228 b 517 1035 310 1104 379 1035 z m 515 -14 b 931 482 789 -14 931 93 b 515 978 931 869 789 978 b 100 482 243 978 100 869 b 515 -14 100 93 243 -14 z m 515 93 b 231 482 281 93 231 207 b 515 872 231 749 281 872 b 801 482 751 872 801 749 b 515 93 801 207 751 93 z "},"ŏ":{"ha":858,"x_min":0,"x_max":0,"o":"m 429 825 b 650 1019 558 825 622 896 l 547 1019 b 429 919 533 958 489 919 b 308 1019 369 919 324 958 l 207 1019 b 429 825 235 896 300 825 z m 429 -14 b 775 375 651 -14 775 76 b 429 764 775 674 651 764 b 82 375 208 764 82 674 b 429 -14 82 76 208 -14 z m 429 88 b 210 375 267 88 210 156 b 429 664 210 594 261 664 b 649 375 593 664 649 594 b 429 88 649 156 599 88 z "},"Ő":{"ha":1032,"x_min":0,"x_max":0,"o":"m 325 1035 l 428 1035 l 649 1226 l 482 1226 z m 536 1035 l 640 1035 l 860 1226 l 693 1226 z m 515 -14 b 931 482 789 -14 931 93 b 515 978 931 869 789 978 b 100 482 243 978 100 869 b 515 -14 100 93 243 -14 z m 515 93 b 231 482 281 93 231 207 b 515 872 231 749 281 872 b 801 482 751 872 801 749 b 515 93 801 207 751 93 z "},"ő":{"ha":858,"x_min":0,"x_max":0,"o":"m 224 854 l 319 854 l 492 1046 l 340 1046 z m 449 854 l 544 854 l 717 1046 l 565 1046 z m 429 -14 b 775 375 651 -14 775 76 b 429 764 775 674 651 764 b 82 375 208 764 82 674 b 429 -14 82 76 208 -14 z m 429 88 b 210 375 267 88 210 156 b 429 664 210 594 261 664 b 649 375 593 664 649 594 b 429 88 649 156 599 88 z "},"Œ":{"ha":1371,"x_min":0,"x_max":0,"o":"m 851 113 l 851 449 l 1233 449 l 1233 554 l 851 554 l 851 853 l 1261 853 l 1261 964 l 725 964 l 725 890 b 475 978 667 951 583 978 b 100 482 242 978 100 869 b 475 -14 100 93 242 -14 b 725 74 582 -14 665 13 l 725 0 l 1296 0 l 1296 113 z m 478 93 b 231 482 281 93 231 207 b 478 872 231 749 281 872 b 725 479 690 872 725 747 b 478 93 725 206 690 93 z "},"œ":{"ha":1274,"x_min":0,"x_max":0,"o":"m 1193 450 b 915 764 1193 596 1149 764 b 661 624 781 764 703 711 b 404 764 615 726 529 764 b 82 375 208 764 82 674 b 404 -14 82 76 208 -14 b 663 124 529 -14 615 18 b 921 -14 714 14 807 -14 b 1153 31 1008 -14 1110 8 l 1153 140 b 939 92 1097 113 1001 92 b 724 331 781 92 725 167 l 1186 363 b 1193 450 1192 397 1193 429 z m 724 419 b 914 665 728 572 765 665 b 1076 449 1057 665 1076 564 z m 404 88 b 210 375 267 88 210 156 b 404 664 210 594 261 664 b 599 375 554 664 599 594 b 404 88 599 156 560 88 z "},"Ŕ":{"ha":853,"x_min":0,"x_max":0,"o":"m 674 1226 l 506 1226 l 347 1035 l 451 1035 z m 832 0 l 543 403 b 740 679 676 433 740 513 b 372 964 740 892 642 964 l 128 964 l 128 0 l 253 0 l 253 388 l 372 388 b 419 389 389 388 404 388 l 685 0 z m 361 492 l 253 492 l 253 856 l 361 856 b 614 679 540 856 614 825 b 361 492 614 515 540 492 z "},"ŕ":{"ha":526,"x_min":0,"x_max":0,"o":"m 506 1046 l 353 1046 l 236 854 l 333 854 z m 246 614 l 246 750 l 126 750 l 126 0 l 246 0 l 246 490 b 478 656 288 624 382 656 l 494 656 l 499 764 l 485 764 b 246 614 394 764 293 739 z "},"Ŗ":{"ha":853,"x_min":0,"x_max":0,"o":"m 543 403 b 740 679 676 433 740 513 b 372 964 740 892 642 964 l 128 964 l 128 0 l 253 0 l 253 388 l 372 388 b 419 389 389 388 404 388 l 685 0 l 832 0 z m 361 492 l 253 492 l 253 856 l 361 856 b 614 679 540 856 614 825 b 361 492 614 515 540 492 z m 349 -278 l 436 -278 b 542 -85 488 -221 542 -139 l 408 -85 b 349 -278 408 -143 381 -218 z "},"ŗ":{"ha":526,"x_min":0,"x_max":0,"o":"m 485 764 b 246 614 394 764 293 739 l 246 750 l 126 750 l 126 0 l 246 0 l 246 490 b 478 656 288 624 382 656 l 494 656 l 499 764 z m 93 -278 l 181 -278 b 286 -85 232 -221 286 -139 l 153 -85 b 93 -278 153 -143 125 -218 z "},"Ř":{"ha":853,"x_min":0,"x_max":0,"o":"m 488 1053 l 675 1258 l 564 1258 l 411 1135 l 260 1258 l 149 1258 l 336 1053 z m 832 0 l 543 403 b 740 679 676 433 740 513 b 372 964 740 892 642 964 l 128 964 l 128 0 l 253 0 l 253 388 l 372 388 b 419 389 389 388 404 388 l 685 0 z m 361 492 l 253 492 l 253 856 l 361 856 b 614 679 540 856 614 825 b 361 492 614 515 540 492 z "},"ř":{"ha":526,"x_min":0,"x_max":0,"o":"m 378 854 l 522 1046 l 425 1046 l 301 928 l 179 1046 l 82 1046 l 226 854 z m 246 614 l 246 750 l 126 750 l 126 0 l 246 0 l 246 490 b 478 656 288 624 382 656 l 494 656 l 499 764 l 485 764 b 246 614 394 764 293 739 z "},"Ś":{"ha":786,"x_min":0,"x_max":0,"o":"m 328 1035 l 432 1035 l 654 1226 l 486 1226 z m 365 -14 b 707 260 588 -14 707 72 b 414 556 707 449 629 506 b 217 718 240 596 217 628 b 415 869 217 843 281 869 b 656 831 503 869 600 851 l 656 944 b 414 979 610 963 507 979 b 93 718 196 979 93 893 b 363 451 93 547 165 499 b 585 258 543 408 585 376 b 365 96 585 139 510 96 b 79 139 251 96 136 118 l 79 24 b 365 -14 126 7 246 -14 z "},"ś":{"ha":665,"x_min":0,"x_max":0,"o":"m 267 854 l 364 854 l 536 1046 l 383 1046 z m 300 -8 b 585 208 483 -8 585 60 b 350 439 585 353 522 400 b 207 558 233 465 207 482 b 365 667 207 643 260 667 b 544 638 435 667 501 654 l 553 739 b 364 764 517 753 436 764 b 94 561 186 764 94 682 b 304 344 94 435 139 382 b 472 204 447 311 472 293 b 299 89 472 117 413 89 b 82 118 231 89 135 103 l 82 15 b 300 -8 124 3 228 -8 z "},"Ŝ":{"ha":786,"x_min":0,"x_max":0,"o":"m 129 1035 l 240 1035 l 393 1160 l 544 1035 l 656 1035 l 468 1240 l 317 1240 z m 365 -14 b 707 260 588 -14 707 72 b 414 556 707 449 629 506 b 217 718 240 596 217 628 b 415 869 217 843 281 869 b 656 831 503 869 600 851 l 656 944 b 414 979 610 963 507 979 b 93 718 196 979 93 893 b 363 451 93 547 165 499 b 585 258 543 408 585 376 b 365 96 585 139 510 96 b 79 139 251 96 136 118 l 79 24 b 365 -14 126 7 246 -14 z "},"ŝ":{"ha":665,"x_min":0,"x_max":0,"o":"m 111 854 l 208 854 l 332 972 l 454 854 l 551 854 l 407 1046 l 256 1046 z m 300 -8 b 585 208 483 -8 585 60 b 350 439 585 353 522 400 b 207 558 233 465 207 482 b 365 667 207 643 260 667 b 544 638 435 667 501 654 l 553 739 b 364 764 517 753 436 764 b 94 561 186 764 94 682 b 304 344 94 435 139 382 b 472 204 447 311 472 293 b 299 89 472 117 413 89 b 82 118 231 89 135 103 l 82 15 b 300 -8 124 3 228 -8 z "},"Ş":{"ha":786,"x_min":0,"x_max":0,"o":"m 707 260 b 414 556 707 449 629 506 b 217 718 240 596 217 628 b 415 869 217 843 281 869 b 656 831 503 869 600 851 l 656 944 b 414 979 610 963 507 979 b 93 718 196 979 93 893 b 363 451 93 547 165 499 b 585 258 543 408 585 376 b 365 96 585 139 510 96 b 79 139 251 96 136 118 l 79 24 b 365 -14 126 7 246 -14 l 368 -14 l 294 -106 l 328 -140 b 389 -135 350 -136 371 -135 b 442 -169 428 -135 442 -147 b 340 -219 442 -208 394 -219 b 256 -214 313 -219 286 -218 l 256 -278 b 347 -285 288 -282 318 -285 b 561 -165 501 -285 561 -236 b 451 -71 561 -101 519 -71 b 417 -74 439 -71 428 -72 l 474 -6 b 707 260 626 19 707 106 z "},"ş":{"ha":665,"x_min":0,"x_max":0,"o":"m 585 208 b 350 439 585 353 522 400 b 207 558 233 465 207 482 b 365 667 207 643 260 667 b 544 638 435 667 501 654 l 553 739 b 364 764 517 753 436 764 b 94 561 186 764 94 682 b 304 344 94 435 139 382 b 472 204 447 311 472 293 b 299 89 472 117 413 89 b 82 118 231 89 135 103 l 82 15 b 300 -8 124 3 228 -8 l 307 -8 l 232 -101 l 265 -136 b 326 -131 288 -132 308 -131 b 379 -165 365 -131 379 -143 b 278 -215 379 -204 332 -215 b 193 -210 250 -215 224 -214 l 193 -274 b 285 -281 225 -278 256 -281 b 499 -161 439 -281 499 -232 b 389 -67 499 -97 457 -67 b 354 -69 376 -67 365 -68 l 414 3 b 585 208 525 28 585 94 z "},"Š":{"ha":786,"x_min":0,"x_max":0,"o":"m 317 1053 l 468 1053 l 656 1258 l 544 1258 l 392 1135 l 240 1258 l 129 1258 z m 365 -14 b 707 260 588 -14 707 72 b 414 556 707 449 629 506 b 217 718 240 596 217 628 b 415 869 217 843 281 869 b 656 831 503 869 600 851 l 656 944 b 414 979 610 963 507 979 b 93 718 196 979 93 893 b 363 451 93 547 165 499 b 585 258 543 408 585 376 b 365 96 585 139 510 96 b 79 139 251 96 136 118 l 79 24 b 365 -14 126 7 246 -14 z "},"š":{"ha":665,"x_min":0,"x_max":0,"o":"m 256 854 l 407 854 l 551 1046 l 454 1046 l 331 928 l 208 1046 l 111 1046 z m 300 -8 b 585 208 483 -8 585 60 b 350 439 585 353 522 400 b 207 558 233 465 207 482 b 365 667 207 643 260 667 b 544 638 435 667 501 654 l 553 739 b 364 764 517 753 436 764 b 94 561 186 764 94 682 b 304 344 94 435 139 382 b 472 204 447 311 472 293 b 299 89 472 117 413 89 b 82 118 231 89 135 103 l 82 15 b 300 -8 124 3 228 -8 z "},"Ţ":{"ha":733,"x_min":0,"x_max":0,"o":"m 429 0 l 429 853 l 710 853 l 710 964 l 22 964 l 22 853 l 304 853 l 304 0 l 328 0 l 243 -106 l 276 -140 b 338 -135 299 -136 319 -135 b 390 -169 376 -135 390 -147 b 289 -219 390 -208 343 -219 b 204 -214 261 -219 235 -218 l 204 -278 b 296 -285 236 -282 267 -285 b 510 -165 450 -285 510 -236 b 400 -71 510 -101 468 -71 b 365 -74 388 -71 376 -72 l 426 0 z "},"ţ":{"ha":468,"x_min":0,"x_max":0,"o":"m 346 -71 b 311 -74 333 -71 322 -72 l 365 -8 b 442 -1 393 -8 415 -6 l 442 100 b 360 92 415 94 393 92 b 251 236 268 92 251 119 l 251 650 l 438 650 l 438 750 l 251 750 l 251 928 l 132 928 l 132 750 l 21 750 l 21 650 l 132 650 l 132 229 b 272 -3 132 71 171 14 l 189 -106 l 222 -140 b 283 -135 244 -136 265 -135 b 336 -169 322 -135 336 -147 b 235 -219 336 -208 289 -219 b 150 -214 207 -219 181 -218 l 150 -278 b 242 -285 182 -282 213 -285 b 456 -165 396 -285 456 -236 b 346 -71 456 -101 414 -71 z "},"Ť":{"ha":733,"x_min":0,"x_max":0,"o":"m 442 1053 l 629 1258 l 518 1258 l 365 1135 l 214 1258 l 103 1258 l 290 1053 z m 710 964 l 22 964 l 22 853 l 304 853 l 304 0 l 429 0 l 429 853 l 710 853 z "},"ť":{"ha":472,"x_min":0,"x_max":0,"o":"m 410 846 b 456 975 431 871 456 922 b 444 1042 456 997 451 1019 l 338 1042 b 353 957 349 1017 353 988 b 333 846 353 919 344 879 z m 251 236 l 251 650 l 438 650 l 438 750 l 251 750 l 251 928 l 132 928 l 132 750 l 21 750 l 21 650 l 132 650 l 132 229 b 357 -8 132 32 192 -8 b 442 -1 389 -8 413 -6 l 442 100 b 360 92 415 94 393 92 b 251 236 268 92 251 119 z "},"Ŧ":{"ha":733,"x_min":0,"x_max":0,"o":"m 710 853 l 710 964 l 22 964 l 22 853 l 304 853 l 304 568 l 93 568 l 93 463 l 304 463 l 304 0 l 429 0 l 429 463 l 649 463 l 649 568 l 429 568 l 429 853 z "},"ŧ":{"ha":468,"x_min":0,"x_max":0,"o":"m 360 92 b 251 236 268 92 251 119 l 251 376 l 428 376 l 428 472 l 251 472 l 251 650 l 438 650 l 438 750 l 251 750 l 251 928 l 132 928 l 132 750 l 21 750 l 21 650 l 132 650 l 132 472 l 26 472 l 26 376 l 132 376 l 132 229 b 357 -8 132 32 192 -8 b 442 -1 389 -8 413 -6 l 442 100 b 360 92 415 94 393 92 z "},"Ũ":{"ha":974,"x_min":0,"x_max":0,"o":"m 603 1036 b 751 1203 683 1036 743 1100 l 657 1211 b 594 1132 651 1157 632 1132 b 510 1160 571 1132 546 1136 b 371 1211 463 1190 429 1211 b 222 1043 286 1211 231 1147 l 317 1036 b 376 1115 322 1090 340 1115 b 464 1075 399 1115 426 1094 b 603 1036 504 1053 536 1036 z m 486 -14 b 851 311 729 -14 851 83 l 851 964 l 728 964 l 728 339 b 488 96 728 156 674 96 b 247 339 310 96 247 156 l 247 964 l 124 964 l 124 311 b 486 -14 124 76 244 -14 z "},"ũ":{"ha":851,"x_min":0,"x_max":0,"o":"m 329 954 b 406 913 353 954 378 932 b 526 875 435 892 467 875 b 661 1043 600 875 654 939 l 567 1050 b 519 971 563 996 549 971 b 449 999 500 971 478 979 b 324 1050 404 1028 376 1050 b 190 882 247 1050 197 986 l 285 875 b 329 954 289 929 301 954 z m 606 750 l 606 240 b 385 92 563 111 479 92 b 240 275 265 92 240 161 l 240 750 l 121 750 l 121 231 b 372 -14 121 86 176 -14 b 608 108 464 -14 563 10 l 624 0 l 725 0 l 725 750 z "},"Ū":{"ha":974,"x_min":0,"x_max":0,"o":"m 285 1092 l 690 1092 l 690 1190 l 285 1190 z m 486 -14 b 851 311 729 -14 851 83 l 851 964 l 728 964 l 728 339 b 488 96 728 156 674 96 b 247 339 310 96 247 156 l 247 964 l 124 964 l 124 311 b 486 -14 124 76 244 -14 z "},"ū":{"ha":851,"x_min":0,"x_max":0,"o":"m 629 1008 l 224 1008 l 224 910 l 629 910 z m 606 750 l 606 240 b 385 92 563 111 479 92 b 240 275 265 92 240 161 l 240 750 l 121 750 l 121 231 b 372 -14 121 86 176 -14 b 608 108 464 -14 563 10 l 624 0 l 725 0 l 725 750 z "},"Ŭ":{"ha":974,"x_min":0,"x_max":0,"o":"m 488 1035 b 722 1228 625 1035 693 1104 l 619 1228 b 488 1129 604 1167 554 1129 b 353 1228 421 1129 369 1167 l 251 1228 b 488 1035 281 1104 350 1035 z m 486 -14 b 851 311 729 -14 851 83 l 851 964 l 728 964 l 728 339 b 488 96 728 156 674 96 b 247 339 310 96 247 156 l 247 964 l 124 964 l 124 311 b 486 -14 124 76 244 -14 z "},"ŭ":{"ha":851,"x_min":0,"x_max":0,"o":"m 426 825 b 647 1019 556 825 619 896 l 544 1019 b 426 919 531 958 486 919 b 306 1019 367 919 321 958 l 204 1019 b 426 825 232 896 297 825 z m 606 750 l 606 240 b 385 92 563 111 479 92 b 240 275 265 92 240 161 l 240 750 l 121 750 l 121 231 b 372 -14 121 86 176 -14 b 608 108 464 -14 563 10 l 624 0 l 725 0 l 725 750 z "},"Ů":{"ha":974,"x_min":0,"x_max":0,"o":"m 489 1013 b 631 1154 581 1013 631 1067 b 489 1292 631 1240 579 1292 b 344 1154 399 1292 344 1243 b 489 1013 344 1065 399 1013 z m 489 1090 b 428 1150 447 1090 428 1110 b 489 1215 428 1196 447 1215 b 550 1150 531 1215 550 1196 b 489 1090 550 1110 531 1090 z m 486 -14 b 851 311 729 -14 851 83 l 851 964 l 728 964 l 728 339 b 488 96 728 156 674 96 b 247 339 310 96 247 156 l 247 964 l 124 964 l 124 311 b 486 -14 124 76 244 -14 z "},"ů":{"ha":851,"x_min":0,"x_max":0,"o":"m 428 853 b 569 994 519 853 569 907 b 428 1132 569 1082 518 1132 b 283 994 338 1132 283 1083 b 428 853 283 906 338 853 z m 428 1056 b 489 990 469 1056 489 1036 b 428 931 489 950 469 931 b 367 990 386 931 367 950 b 428 1056 367 1036 386 1056 z m 606 750 l 606 240 b 385 92 563 111 479 92 b 240 275 265 92 240 161 l 240 750 l 121 750 l 121 231 b 372 -14 121 86 176 -14 b 608 108 464 -14 563 10 l 624 0 l 725 0 l 725 750 z "},"Ű":{"ha":974,"x_min":0,"x_max":0,"o":"m 296 1035 l 399 1035 l 619 1226 l 453 1226 z m 507 1035 l 611 1035 l 831 1226 l 664 1226 z m 486 -14 b 851 311 729 -14 851 83 l 851 964 l 728 964 l 728 339 b 488 96 728 156 674 96 b 247 339 310 96 247 156 l 247 964 l 124 964 l 124 311 b 486 -14 124 76 244 -14 z "},"ű":{"ha":851,"x_min":0,"x_max":0,"o":"m 489 1046 l 338 1046 l 221 854 l 317 854 z m 542 854 l 714 1046 l 563 1046 l 446 854 z m 606 750 l 606 240 b 385 92 563 111 479 92 b 240 275 265 92 240 161 l 240 750 l 121 750 l 121 231 b 372 -14 121 86 176 -14 b 608 108 464 -14 563 10 l 624 0 l 725 0 l 725 750 z "},"Ų":{"ha":974,"x_min":0,"x_max":0,"o":"m 728 964 l 728 339 b 488 96 728 156 674 96 b 247 339 310 96 247 156 l 247 964 l 124 964 l 124 311 b 467 -14 124 83 238 -8 b 360 -164 408 -47 360 -103 b 533 -292 360 -254 435 -292 b 622 -275 561 -292 590 -286 l 622 -208 b 558 -218 599 -215 578 -218 b 479 -135 508 -218 479 -185 b 578 -8 479 -74 513 -39 b 851 311 760 14 851 114 l 851 964 z "},"ų":{"ha":851,"x_min":0,"x_max":0,"o":"m 706 -210 b 626 -126 656 -210 626 -176 b 725 0 626 -65 660 -31 l 725 750 l 606 750 l 606 240 b 385 92 563 111 479 92 b 240 275 265 92 240 161 l 240 750 l 121 750 l 121 231 b 372 -14 121 86 176 -14 b 608 108 464 -14 563 10 l 624 0 b 507 -156 561 -33 507 -90 b 681 -283 507 -246 582 -283 b 769 -267 708 -283 738 -278 l 769 -200 b 706 -210 746 -207 725 -210 z "},"Ŵ":{"ha":1247,"x_min":0,"x_max":0,"o":"m 361 1035 l 472 1035 l 625 1160 l 776 1035 l 888 1035 l 700 1240 l 549 1240 z m 261 0 l 419 0 l 619 714 l 628 714 l 824 0 l 982 0 l 1211 964 l 1085 964 l 906 146 l 897 146 l 701 851 l 551 851 l 356 146 l 347 146 l 167 964 l 36 964 z "},"ŵ":{"ha":1150,"x_min":0,"x_max":0,"o":"m 356 854 l 453 854 l 576 972 l 699 854 l 796 854 l 651 1046 l 500 1046 z m 233 0 l 382 0 l 569 615 l 578 615 l 764 0 l 913 0 l 1121 750 l 1003 750 l 844 121 l 836 121 l 644 750 l 503 750 l 317 121 l 308 121 l 150 750 l 31 750 z "},"Ŷ":{"ha":825,"x_min":0,"x_max":0,"o":"m 149 1035 l 260 1035 l 413 1160 l 564 1035 l 675 1035 l 488 1240 l 336 1240 z m 349 0 l 474 0 l 474 415 l 817 964 l 679 964 l 421 528 l 413 528 l 153 964 l 8 964 l 349 414 z "},"ŷ":{"ha":732,"x_min":0,"x_max":0,"o":"m 146 854 l 243 854 l 367 972 l 489 854 l 586 854 l 442 1046 l 290 1046 z m 93 -278 b 449 25 314 -278 378 -162 l 718 750 l 597 750 l 381 128 l 372 128 l 143 750 l 14 750 l 314 1 b 93 -175 276 -119 224 -175 z "},"Ÿ":{"ha":825,"x_min":0,"x_max":0,"o":"m 278 1049 b 349 1118 328 1049 349 1058 b 278 1189 349 1181 328 1189 b 207 1118 226 1189 207 1181 b 278 1049 207 1058 226 1049 z m 549 1049 b 618 1118 597 1049 618 1058 b 549 1189 618 1181 597 1189 b 476 1118 496 1189 476 1181 b 549 1049 476 1058 496 1049 z m 349 0 l 474 0 l 474 415 l 817 964 l 679 964 l 421 528 l 413 528 l 153 964 l 8 964 l 349 414 z "},"Ź":{"ha":869,"x_min":0,"x_max":0,"o":"m 369 1035 l 474 1035 l 696 1226 l 528 1226 z m 81 0 l 810 0 l 810 113 l 215 113 l 215 121 l 778 844 l 778 964 l 108 964 l 108 853 l 633 853 l 635 844 l 81 128 z "},"ź":{"ha":703,"x_min":0,"x_max":0,"o":"m 286 854 l 383 854 l 556 1046 l 403 1046 z m 61 0 l 653 0 l 653 103 l 204 103 l 204 111 l 629 660 l 629 750 l 94 750 l 94 651 l 483 651 l 483 643 l 61 97 z "},"Ż":{"ha":869,"x_min":0,"x_max":0,"o":"m 435 1056 b 506 1126 485 1056 506 1065 b 435 1197 506 1189 485 1197 b 363 1126 382 1197 363 1189 b 435 1056 363 1065 382 1056 z m 81 0 l 810 0 l 810 113 l 215 113 l 215 121 l 778 844 l 778 964 l 108 964 l 108 853 l 633 853 l 635 844 l 81 128 z "},"ż":{"ha":703,"x_min":0,"x_max":0,"o":"m 353 888 b 424 958 403 888 424 897 b 353 1028 424 1019 403 1028 b 281 958 300 1028 281 1019 b 353 888 281 897 300 888 z m 61 0 l 653 0 l 653 103 l 204 103 l 204 111 l 629 660 l 629 750 l 94 750 l 94 651 l 483 651 l 483 643 l 61 97 z "},"Ž":{"ha":869,"x_min":0,"x_max":0,"o":"m 358 1053 l 510 1053 l 697 1258 l 586 1258 l 433 1135 l 282 1258 l 171 1258 z m 81 0 l 810 0 l 810 113 l 215 113 l 215 121 l 778 844 l 778 964 l 108 964 l 108 853 l 633 853 l 635 844 l 81 128 z "},"ž":{"ha":703,"x_min":0,"x_max":0,"o":"m 275 854 l 426 854 l 571 1046 l 474 1046 l 350 928 l 228 1046 l 131 1046 z m 61 0 l 653 0 l 653 103 l 204 103 l 204 111 l 629 660 l 629 750 l 94 750 l 94 651 l 483 651 l 483 643 l 61 97 z "},"ﬁ":{"ha":839,"x_min":0,"x_max":0,"o":"m 150 757 l 150 750 l 25 750 l 25 651 l 150 651 l 150 0 l 269 0 l 269 651 l 446 651 l 446 750 l 269 750 b 401 965 271 921 300 965 b 475 958 428 965 453 963 l 475 1054 b 403 1061 449 1058 425 1061 b 150 757 249 1061 150 1017 z m 654 888 b 725 958 704 888 725 897 b 654 1029 725 1021 704 1029 b 582 958 601 1029 582 1021 b 654 888 582 897 601 888 z m 593 0 l 713 0 l 713 750 l 593 750 z "},"ﬂ":{"ha":864,"x_min":0,"x_max":0,"o":"m 150 757 l 150 750 l 25 750 l 25 651 l 150 651 l 150 0 l 269 0 l 269 651 l 446 651 l 446 750 l 269 750 b 401 965 271 921 300 965 b 475 958 428 965 453 963 l 475 1054 b 403 1061 449 1058 425 1061 b 150 757 249 1061 150 1017 z m 782 92 b 713 182 733 92 713 107 l 713 1056 l 593 1056 l 593 151 b 760 -8 593 39 650 -8 b 839 0 793 -8 817 -6 l 839 99 b 782 92 819 93 799 92 z "},"ﬀ":{"ha":926,"x_min":0,"x_max":0,"o":"m 844 965 b 929 958 878 965 907 963 l 929 1054 b 846 1061 903 1058 874 1061 b 593 757 693 1061 593 1017 l 593 750 l 269 750 b 403 965 271 921 300 965 b 486 958 435 965 465 963 l 486 1054 b 403 1061 460 1058 431 1061 b 150 757 250 1061 150 1017 l 150 750 l 25 750 l 25 651 l 150 651 l 150 0 l 269 0 l 269 651 l 593 651 l 593 0 l 713 0 l 713 651 l 901 651 l 901 750 l 713 750 b 844 965 714 921 742 965 z "},"ﬃ":{"ha":1282,"x_min":0,"x_max":0,"o":"m 593 757 l 593 750 l 269 750 b 403 965 271 921 300 965 b 486 958 435 965 465 963 l 486 1054 b 403 1061 460 1058 431 1061 b 150 757 250 1061 150 1017 l 150 750 l 25 750 l 25 651 l 150 651 l 150 0 l 269 0 l 269 651 l 593 651 l 593 0 l 713 0 l 713 651 l 901 651 l 901 750 l 713 750 b 843 965 714 921 742 965 b 917 958 871 965 894 963 l 917 1054 b 844 1061 890 1058 867 1061 b 593 757 692 1061 593 1017 z m 1096 888 b 1167 958 1146 888 1167 897 b 1096 1029 1167 1021 1146 1029 b 1024 958 1043 1029 1024 1021 b 1096 888 1024 897 1043 888 z m 1035 0 l 1154 0 l 1154 750 l 1035 750 z "},"ﬄ":{"ha":1307,"x_min":0,"x_max":0,"o":"m 593 757 l 593 750 l 269 750 b 403 965 271 921 300 965 b 486 958 435 965 465 963 l 486 1054 b 403 1061 460 1058 431 1061 b 150 757 250 1061 150 1017 l 150 750 l 25 750 l 25 651 l 150 651 l 150 0 l 269 0 l 269 651 l 593 651 l 593 0 l 713 0 l 713 651 l 901 651 l 901 750 l 713 750 b 843 965 714 921 742 965 b 917 958 871 965 894 963 l 917 1054 b 844 1061 890 1058 867 1061 b 593 757 692 1061 593 1017 z m 1225 92 b 1154 182 1175 92 1154 107 l 1154 1056 l 1035 1056 l 1035 151 b 1203 -8 1035 39 1092 -8 b 1281 0 1236 -8 1260 -6 l 1281 99 b 1225 92 1261 93 1242 92 z "},"ſ":{"ha":431,"x_min":0,"x_max":0,"o":"m 403 1061 b 150 757 250 1061 150 1017 l 150 750 l 25 750 l 25 651 l 150 651 l 150 0 l 269 0 l 269 743 b 403 965 269 919 299 965 b 486 958 435 965 465 963 l 486 1054 b 403 1061 460 1058 431 1061 z "},"Ǻ":{"ha":926,"x_min":0,"x_max":0,"o":"m 725 1533 l 557 1533 l 399 1340 l 503 1340 z m 465 1013 b 607 1154 557 1013 607 1067 b 465 1292 607 1240 556 1292 b 321 1154 375 1292 321 1243 b 465 1013 321 1065 375 1013 z m 465 1215 b 526 1150 507 1215 526 1196 b 465 1090 526 1110 507 1090 b 404 1150 424 1090 404 1110 b 465 1215 404 1196 424 1215 z m 779 0 l 911 0 l 547 964 l 381 964 l 15 0 l 143 0 l 249 288 l 675 288 z m 290 399 l 456 847 l 472 847 l 635 399 z "},"ǻ":{"ha":850,"x_min":0,"x_max":0,"o":"m 654 1401 l 501 1401 l 383 1210 l 481 1210 z m 450 853 b 592 994 542 853 592 907 b 450 1132 592 1082 540 1132 b 306 994 360 1132 306 1083 b 450 853 306 906 360 853 z m 450 1056 b 511 990 492 1056 511 1036 b 450 931 511 950 492 931 b 389 990 408 931 389 950 b 450 1056 389 1036 408 1056 z m 424 764 b 253 753 369 764 308 760 l 253 647 b 418 664 307 658 368 664 b 603 511 571 664 603 601 l 603 449 l 374 449 b 76 210 194 449 76 388 b 335 -14 76 68 156 -14 b 603 114 447 -14 560 32 l 621 0 l 722 0 l 722 532 b 424 764 722 667 660 764 z m 346 86 b 200 211 240 86 200 129 b 382 353 200 328 258 353 l 603 353 l 603 229 b 346 86 564 140 471 86 z "},"Ǽ":{"ha":1235,"x_min":0,"x_max":0,"o":"m 1068 1226 l 900 1226 l 742 1035 l 846 1035 z m 715 113 l 715 449 l 1097 449 l 1097 554 l 715 554 l 715 853 l 1125 853 l 1125 964 l 483 964 l -8 0 l 126 0 l 269 288 l 589 288 l 589 0 l 1160 0 l 1160 113 z m 325 399 l 554 857 l 589 857 l 589 399 z "},"ǽ":{"ha":1286,"x_min":0,"x_max":0,"o":"m 847 1046 l 694 1046 l 578 854 l 675 854 z m 1197 353 b 1206 450 1204 392 1206 426 b 907 764 1206 596 1161 764 b 668 669 807 764 724 738 b 422 764 628 725 553 764 b 253 753 369 764 308 760 l 253 647 b 418 664 307 658 368 664 b 589 511 557 664 589 601 l 589 449 l 374 449 b 76 210 201 449 76 388 b 335 -14 76 68 164 -14 b 632 138 460 -14 576 39 b 913 -14 685 26 783 -14 b 1165 31 1021 -14 1122 8 l 1165 140 b 931 92 1110 113 1014 92 b 708 333 764 92 708 171 l 708 353 z m 906 665 b 1089 449 1069 665 1089 565 l 710 449 b 906 665 718 583 760 665 z m 346 86 b 200 211 240 86 200 129 b 382 353 200 328 258 353 l 589 353 l 589 229 b 346 86 551 140 471 86 z "},"Ǿ":{"ha":1032,"x_min":0,"x_max":0,"o":"m 778 1226 l 610 1226 l 451 1035 l 556 1035 z m 931 956 l 808 956 l 779 915 b 515 978 713 961 624 978 b 100 482 243 978 100 869 b 185 114 100 308 129 190 l 100 0 l 222 0 l 256 46 b 515 -14 322 3 408 -14 b 931 482 789 -14 931 93 b 849 846 931 653 903 769 z m 229 482 b 515 872 229 749 279 872 b 708 821 603 872 665 856 l 264 221 b 229 482 238 283 229 369 z m 803 482 b 515 93 803 207 753 93 b 326 140 431 93 369 108 l 769 738 b 803 482 794 675 803 590 z "},"ǿ":{"ha":858,"x_min":0,"x_max":0,"o":"m 633 1046 l 481 1046 l 364 854 l 461 854 z m 775 803 l 674 803 l 622 728 b 429 764 569 753 506 764 b 82 375 208 764 82 674 b 168 72 82 229 113 133 l 82 -53 l 183 -53 l 236 24 b 429 -14 288 -3 353 -14 b 775 375 651 -14 775 76 b 689 678 775 521 746 618 z m 208 375 b 429 664 208 594 261 664 b 560 638 485 664 526 656 l 240 176 b 208 375 218 221 208 286 z m 650 375 b 429 86 650 156 599 86 b 299 113 374 86 331 94 l 618 575 b 650 375 640 531 650 465 z "},"Ș":{"ha":786,"x_min":0,"x_max":0,"o":"m 365 -14 b 707 260 588 -14 707 72 b 414 556 707 449 629 506 b 217 718 240 596 217 628 b 415 869 217 843 281 869 b 656 831 503 869 600 851 l 656 944 b 414 979 610 963 507 979 b 93 718 196 979 93 893 b 363 451 93 547 165 499 b 585 258 543 408 585 376 b 365 96 585 139 510 96 b 79 139 251 96 136 118 l 79 24 b 365 -14 126 7 246 -14 z m 289 -278 l 376 -278 b 482 -85 428 -221 482 -139 l 349 -85 b 289 -278 349 -143 321 -218 z "},"ș":{"ha":665,"x_min":0,"x_max":0,"o":"m 300 -8 b 585 208 483 -8 585 60 b 350 439 585 353 522 400 b 207 558 233 465 207 482 b 365 667 207 643 260 667 b 544 638 435 667 501 654 l 553 739 b 364 764 517 753 436 764 b 94 561 186 764 94 682 b 304 344 94 435 139 382 b 472 204 447 311 472 293 b 299 89 472 117 413 89 b 82 118 231 89 135 103 l 82 15 b 300 -8 124 3 228 -8 z m 228 -274 l 315 -274 b 421 -81 367 -217 421 -135 l 288 -81 b 228 -274 288 -139 260 -214 z "},"Ț":{"ha":733,"x_min":0,"x_max":0,"o":"m 710 964 l 22 964 l 22 853 l 304 853 l 304 0 l 429 0 l 429 853 l 710 853 z m 239 -278 l 326 -278 b 432 -85 378 -221 432 -139 l 299 -85 b 239 -278 299 -143 271 -218 z "},"ț":{"ha":468,"x_min":0,"x_max":0,"o":"m 360 92 b 251 236 268 92 251 119 l 251 650 l 438 650 l 438 750 l 251 750 l 251 928 l 132 928 l 132 750 l 21 750 l 21 650 l 132 650 l 132 229 b 357 -8 132 32 192 -8 b 442 -1 389 -8 413 -6 l 442 100 b 360 92 415 94 393 92 z m 183 -278 l 271 -278 b 376 -85 322 -221 376 -139 l 243 -85 b 183 -278 243 -143 215 -218 z "},"Ə":{"ha":999,"x_min":0,"x_max":0,"o":"m 454 978 b 133 919 319 978 189 950 l 133 811 b 432 874 204 846 326 874 b 768 540 685 874 765 768 l 90 497 b 82 386 83 454 82 413 b 463 -14 82 201 139 -14 b 897 482 738 -14 897 101 b 454 978 897 863 738 978 z m 464 93 b 201 403 229 93 201 238 l 768 440 b 464 93 764 226 713 93 z "},"ə":{"ha":803,"x_min":0,"x_max":0,"o":"m 375 764 b 122 719 267 764 165 742 l 122 610 b 357 658 178 638 274 658 b 597 419 538 658 596 583 l 89 388 b 82 300 83 353 82 321 b 381 -14 82 154 126 -14 b 721 375 596 -14 721 76 b 375 764 721 674 596 764 z m 382 85 b 199 301 218 85 199 186 l 597 331 b 382 85 593 178 554 85 z "},"Ⅶ":{"ha":1619,"x_min":0,"x_max":0,"o":"m 349 0 l 504 0 l 836 964 l 710 964 l 435 132 l 426 132 l 156 964 l 22 964 z m 985 0 l 1110 0 l 1110 964 l 985 964 z m 1367 0 l 1492 0 l 1492 964 l 1367 964 z "},"ʼ":{"ha":375,"x_min":0,"x_max":0,"o":"m 90 700 l 179 700 b 285 1056 231 803 285 956 l 167 1056 b 90 700 167 949 131 808 z "},"ˆ":{"ha":481,"x_min":0,"x_max":0,"o":"m 19 854 l 117 854 l 240 972 l 363 854 l 460 854 l 315 1046 l 164 1046 z "},"ˇ":{"ha":481,"x_min":0,"x_max":0,"o":"m 164 854 l 315 854 l 460 1046 l 363 1046 l 239 928 l 117 1046 l 19 1046 z "},"ˉ":{"ha":481,"x_min":0,"x_max":0,"o":"m 38 910 l 443 910 l 443 1008 l 38 1008 z "},"˘":{"ha":481,"x_min":0,"x_max":0,"o":"m 242 825 b 463 1019 371 825 435 896 l 360 1019 b 242 919 346 958 301 919 b 121 1019 182 919 136 958 l 19 1019 b 242 825 47 896 113 825 z "},"˙":{"ha":481,"x_min":0,"x_max":0,"o":"m 242 888 b 313 958 292 888 313 897 b 242 1028 313 1019 292 1028 b 169 958 189 1028 169 1019 b 242 888 169 897 189 888 z "},"˚":{"ha":481,"x_min":0,"x_max":0,"o":"m 242 853 b 383 994 333 853 383 907 b 242 1132 383 1082 332 1132 b 97 994 151 1132 97 1083 b 242 853 97 906 151 853 z m 242 931 b 181 990 200 931 181 950 b 242 1056 181 1036 200 1056 b 303 990 283 1056 303 1036 b 242 931 303 950 283 931 z "},"˛":{"ha":481,"x_min":0,"x_max":0,"o":"m 267 -283 b 356 -267 294 -283 324 -278 l 356 -200 b 292 -210 332 -207 311 -210 b 213 -126 242 -210 213 -176 b 311 0 213 -65 246 -31 l 246 17 b 93 -156 171 -11 93 -78 b 267 -283 93 -246 168 -283 z "},"˜":{"ha":481,"x_min":0,"x_max":0,"o":"m 343 876 b 478 1044 417 876 471 940 l 383 1051 b 336 972 379 997 365 972 b 265 1000 317 972 294 981 b 140 1051 221 1029 193 1051 b 7 883 64 1051 14 988 l 101 876 b 146 956 106 931 118 956 b 222 914 169 956 194 933 b 343 876 251 893 283 876 z "},"˝":{"ha":481,"x_min":0,"x_max":0,"o":"m 42 854 l 138 854 l 310 1046 l 158 1046 z m 267 854 l 363 854 l 535 1046 l 383 1046 z "},"ʹ":{"ha":354,"x_min":0,"x_max":0,"o":"m 43 644 l 118 644 l 310 1056 l 172 1056 z "},"͵":{"ha":354,"x_min":0,"x_max":0,"o":"m 43 -190 l 118 -190 l 310 221 l 172 221 z "},";":{"ha":525,"x_min":0,"x_max":0,"o":"m 263 583 b 351 671 326 583 351 594 b 263 758 351 747 326 758 b 174 671 197 758 174 747 b 263 583 174 594 197 583 z m 92 -189 l 189 -189 b 336 176 256 -100 336 57 l 222 176 b 92 -189 222 72 165 -74 z "},"Ά":{"ha":931,"x_min":0,"x_max":0,"o":"m 226 965 l 85 965 l 40 771 l 128 771 z m 783 0 l 915 0 l 551 964 l 385 964 l 21 0 l 147 0 l 253 288 l 679 288 z m 294 399 l 460 847 l 476 847 l 639 399 z "},"·":{"ha":496,"x_min":0,"x_max":0,"o":"m 210 586 b 299 674 274 586 299 597 b 210 761 299 750 274 761 b 121 674 144 761 121 750 b 210 586 121 597 144 586 z "},"Έ":{"ha":872,"x_min":0,"x_max":0,"o":"m -26 771 l 61 771 l 160 965 l 18 965 z m 353 113 l 353 449 l 735 449 l 735 554 l 353 554 l 353 853 l 763 853 l 763 964 l 228 964 l 228 0 l 797 0 l 797 113 z "},"Ή":{"ha":1082,"x_min":0,"x_max":0,"o":"m -26 771 l 61 771 l 160 965 l 18 965 z m 829 964 l 829 571 l 353 571 l 353 964 l 228 964 l 228 0 l 353 0 l 353 467 l 829 467 l 829 0 l 954 0 l 954 964 z "},"Ί":{"ha":481,"x_min":0,"x_max":0,"o":"m -26 771 l 61 771 l 160 965 l 18 965 z m 228 0 l 353 0 l 353 964 l 228 964 z "},"Ό":{"ha":1063,"x_min":0,"x_max":0,"o":"m 546 -14 b 961 482 819 -14 961 93 b 546 978 961 869 819 978 b 131 482 274 978 131 869 b 546 -14 131 93 274 -14 z m -26 771 l 61 771 l 160 965 l 18 965 z m 546 93 b 261 482 311 93 261 207 b 546 872 261 749 311 872 b 832 482 782 872 832 749 b 546 93 832 207 782 93 z "},"Ύ":{"ha":1008,"x_min":0,"x_max":0,"o":"m -26 771 l 61 771 l 160 965 l 18 965 z m 532 0 l 658 0 l 658 415 l 1000 964 l 863 964 l 604 528 l 596 528 l 336 964 l 192 964 l 532 414 z "},"Ώ":{"ha":1063,"x_min":0,"x_max":0,"o":"m 144 0 l 457 0 l 457 90 b 261 526 308 244 261 369 b 546 872 261 717 311 872 b 832 526 782 872 832 717 b 635 90 832 369 785 244 l 635 0 l 949 0 l 949 99 l 775 99 b 960 542 886 217 960 347 b 546 978 960 838 819 978 b 132 542 274 978 132 838 b 317 99 132 347 207 217 l 144 99 z m -26 771 l 61 771 l 160 965 l 18 965 z "},"ΐ":{"ha":433,"x_min":0,"x_max":0,"o":"m 117 932 l 203 932 l 300 1126 l 158 1126 z m 22 888 b 92 958 71 888 92 897 b 22 1028 92 1019 71 1028 b -50 958 -31 1028 -50 1019 b 22 888 -50 897 -31 888 z m 335 888 b 406 958 385 888 406 897 b 335 1028 406 1019 385 1028 b 264 958 283 1028 264 1019 b 335 888 264 897 283 888 z m 343 -8 b 428 -1 375 -8 399 -6 l 428 100 b 346 92 401 94 378 92 b 238 236 254 92 238 119 l 238 750 l 118 750 l 118 229 b 343 -8 118 32 178 -8 z "},"Α":{"ha":926,"x_min":0,"x_max":0,"o":"m 779 0 l 911 0 l 547 964 l 381 964 l 15 0 l 143 0 l 249 288 l 675 288 z m 290 399 l 456 847 l 472 847 l 635 399 z "},"Β":{"ha":861,"x_min":0,"x_max":0,"o":"m 128 0 l 433 0 b 761 275 688 0 761 100 b 589 499 761 389 719 472 l 589 504 b 729 708 690 535 729 608 b 406 964 729 882 658 964 l 128 964 z m 253 542 l 253 858 l 347 858 b 607 701 532 858 607 843 b 347 542 607 575 532 542 z m 253 107 l 253 443 l 382 443 b 636 276 578 443 636 394 b 382 107 636 139 579 107 z "},"Γ":{"ha":704,"x_min":0,"x_max":0,"o":"m 671 964 l 128 964 l 128 0 l 253 0 l 253 851 l 671 851 z "},"Ε":{"ha":772,"x_min":0,"x_max":0,"o":"m 253 113 l 253 449 l 636 449 l 636 554 l 253 554 l 253 853 l 664 853 l 664 964 l 128 964 l 128 0 l 699 0 l 699 113 z "},"Ζ":{"ha":869,"x_min":0,"x_max":0,"o":"m 81 0 l 810 0 l 810 113 l 215 113 l 215 121 l 778 844 l 778 964 l 108 964 l 108 853 l 633 853 l 635 844 l 81 128 z "},"Η":{"ha":983,"x_min":0,"x_max":0,"o":"m 729 964 l 729 571 l 253 571 l 253 964 l 128 964 l 128 0 l 253 0 l 253 467 l 729 467 l 729 0 l 856 0 l 856 964 z "},"Θ":{"ha":1032,"x_min":0,"x_max":0,"o":"m 515 -14 b 931 482 789 -14 931 93 b 515 978 931 869 789 978 b 100 482 243 978 100 869 b 515 -14 100 93 243 -14 z m 515 93 b 231 482 281 93 231 207 b 515 872 231 749 281 872 b 801 482 751 872 801 749 b 515 93 801 207 751 93 z m 343 435 l 692 435 l 692 539 l 343 539 z "},"Ι":{"ha":381,"x_min":0,"x_max":0,"o":"m 128 0 l 253 0 l 253 964 l 128 964 z "},"Κ":{"ha":853,"x_min":0,"x_max":0,"o":"m 419 515 l 814 964 l 658 964 l 321 563 l 253 563 l 253 964 l 128 964 l 128 0 l 253 0 l 253 453 l 321 453 l 665 0 l 826 0 z "},"Λ":{"ha":857,"x_min":0,"x_max":0,"o":"m 22 0 l 147 0 l 424 832 l 432 832 l 703 0 l 836 0 l 508 964 l 353 964 z "},"Μ":{"ha":1153,"x_min":0,"x_max":0,"o":"m 128 0 l 250 0 l 250 838 l 258 838 l 508 218 l 644 218 l 892 838 l 900 838 l 900 0 l 1025 0 l 1025 964 l 828 964 l 582 343 l 574 343 l 328 964 l 128 964 z "},"Ν":{"ha":1024,"x_min":0,"x_max":0,"o":"m 128 0 l 250 0 l 250 849 l 258 849 l 731 0 l 896 0 l 896 964 l 771 964 l 771 164 l 763 164 l 324 964 l 128 964 z "},"Ξ":{"ha":772,"x_min":0,"x_max":0,"o":"m 110 853 l 664 853 l 664 964 l 110 964 z m 138 449 l 636 449 l 636 554 l 138 554 z m 75 0 l 699 0 l 699 113 l 75 113 z "},"Ο":{"ha":1032,"x_min":0,"x_max":0,"o":"m 515 -14 b 931 482 789 -14 931 93 b 515 978 931 869 789 978 b 100 482 243 978 100 869 b 515 -14 100 93 243 -14 z m 515 93 b 231 482 281 93 231 207 b 515 872 231 749 281 872 b 801 482 751 872 801 749 b 515 93 801 207 751 93 z "},"Π":{"ha":983,"x_min":0,"x_max":0,"o":"m 856 964 l 128 964 l 128 0 l 253 0 l 253 860 l 729 860 l 729 0 l 856 0 z "},"Ρ":{"ha":829,"x_min":0,"x_max":0,"o":"m 128 0 l 253 0 l 253 342 l 396 342 b 749 656 646 342 749 429 b 396 964 749 869 668 964 l 128 964 z m 253 446 l 253 856 l 385 856 b 621 656 564 856 621 803 b 385 446 621 493 564 446 z "},"Σ":{"ha":828,"x_min":0,"x_max":0,"o":"m 81 0 l 768 0 l 768 113 l 207 113 l 511 493 l 231 853 l 733 853 l 733 964 l 97 964 l 97 844 l 372 492 l 81 126 z "},"Τ":{"ha":733,"x_min":0,"x_max":0,"o":"m 710 964 l 22 964 l 22 853 l 304 853 l 304 0 l 429 0 l 429 853 l 710 853 z "},"Υ":{"ha":825,"x_min":0,"x_max":0,"o":"m 349 0 l 474 0 l 474 415 l 817 964 l 679 964 l 421 528 l 413 528 l 153 964 l 8 964 l 349 414 z "},"Φ":{"ha":1154,"x_min":0,"x_max":0,"o":"m 1072 481 b 639 867 1072 750 939 863 l 639 978 l 515 978 l 515 867 b 82 482 215 863 82 750 b 515 96 82 211 215 100 l 515 -14 l 639 -14 l 639 96 b 1072 481 939 100 1072 213 z m 211 482 b 515 765 211 665 257 761 l 515 199 b 211 482 257 203 211 297 z m 639 197 l 639 764 b 944 481 899 760 944 661 b 639 197 944 300 899 201 z "},"Χ":{"ha":867,"x_min":0,"x_max":0,"o":"m 32 0 l 172 0 l 432 414 l 440 414 l 688 0 l 833 0 l 521 499 l 822 964 l 686 964 l 442 568 l 433 568 l 204 964 l 58 964 l 349 490 z "},"Ψ":{"ha":1117,"x_min":0,"x_max":0,"o":"m 897 964 l 897 657 b 621 413 897 478 835 415 l 621 964 l 496 964 l 496 413 b 219 657 293 415 219 476 l 219 964 l 96 964 l 96 629 b 496 304 96 400 229 308 l 496 0 l 621 0 l 621 304 b 1021 629 886 308 1021 406 l 1021 964 z "},"Ϊ":{"ha":381,"x_min":0,"x_max":0,"o":"m 71 1049 b 140 1118 119 1049 140 1058 b 71 1189 140 1181 119 1189 b -1 1118 18 1189 -1 1181 b 71 1049 -1 1058 18 1049 z m 311 1049 b 382 1118 361 1049 382 1058 b 311 1189 382 1181 361 1189 b 240 1118 260 1189 240 1181 b 311 1049 240 1058 260 1049 z m 128 0 l 253 0 l 253 964 l 128 964 z "},"Ϋ":{"ha":825,"x_min":0,"x_max":0,"o":"m 278 1049 b 349 1118 328 1049 349 1058 b 278 1189 349 1181 328 1189 b 207 1118 226 1189 207 1181 b 278 1049 207 1058 226 1049 z m 549 1049 b 618 1118 597 1049 618 1058 b 549 1189 618 1181 597 1189 b 476 1118 496 1189 476 1181 b 549 1049 476 1058 496 1049 z m 349 0 l 474 0 l 474 415 l 817 964 l 679 964 l 421 528 l 413 528 l 153 964 l 8 964 l 349 414 z "},"ά":{"ha":851,"x_min":0,"x_max":0,"o":"m 531 1047 l 389 1047 l 344 853 l 432 853 z m 781 97 b 682 299 719 97 696 125 b 704 403 689 331 697 365 b 792 750 728 521 757 635 l 668 750 b 635 592 654 699 644 649 b 388 764 594 694 521 764 b 82 375 183 764 82 631 b 382 -14 82 124 169 -14 b 600 89 488 -14 553 21 b 736 -8 625 26 669 -8 b 818 0 769 -8 800 -4 l 818 101 b 781 97 808 99 793 97 z m 378 88 b 210 375 258 88 210 182 b 389 664 210 558 256 664 b 567 392 525 664 561 554 l 574 238 b 378 88 542 147 488 88 z "},"έ":{"ha":707,"x_min":0,"x_max":0,"o":"m 314 853 l 401 853 l 500 1047 l 358 1047 z m 425 -14 b 651 14 510 -14 607 -1 l 651 124 b 428 92 594 101 513 92 b 211 211 283 92 211 131 b 439 331 211 294 282 331 l 546 331 l 546 438 l 440 438 b 235 553 297 438 235 474 b 421 660 235 624 292 660 b 611 628 503 660 561 647 l 611 736 b 418 764 572 750 508 764 b 113 554 219 764 113 689 b 249 385 113 457 161 406 l 249 382 b 89 206 151 361 89 310 b 425 -14 89 56 199 -14 z "},"ή":{"ha":893,"x_min":0,"x_max":0,"o":"m 603 1047 l 461 1047 l 417 853 l 504 853 z m 519 764 b 276 638 426 764 321 736 b 115 758 264 722 210 758 b 38 750 83 758 60 756 l 38 651 b 93 658 57 657 76 658 b 160 569 142 658 160 643 l 160 0 l 279 0 l 279 507 b 508 657 321 639 413 657 b 653 475 628 657 653 590 l 653 -278 l 772 -278 l 772 519 b 519 764 772 663 717 764 z "},"ί":{"ha":433,"x_min":0,"x_max":0,"o":"m 131 853 l 218 853 l 317 1047 l 175 1047 z m 343 -8 b 428 -1 375 -8 399 -6 l 428 100 b 346 92 401 94 378 92 b 238 236 254 92 238 119 l 238 750 l 118 750 l 118 229 b 343 -8 118 32 178 -8 z "},"ΰ":{"ha":824,"x_min":0,"x_max":0,"o":"m 332 932 l 418 932 l 515 1126 l 374 1126 z m 238 888 b 307 958 286 888 307 897 b 238 1028 307 1019 286 1028 b 165 958 185 1028 165 1019 b 238 888 165 897 185 888 z m 550 888 b 621 958 600 888 621 897 b 550 1028 621 1019 600 1028 b 479 958 499 1028 479 1019 b 550 888 479 897 499 888 z m 407 -14 b 726 381 622 -14 726 117 b 675 750 726 518 710 629 l 558 750 b 607 378 589 629 607 511 b 411 93 607 160 532 93 b 240 311 300 93 240 143 l 240 750 l 121 750 l 121 293 b 407 -14 121 68 229 -14 z "},"α":{"ha":851,"x_min":0,"x_max":0,"o":"m 781 97 b 682 299 719 97 696 125 b 704 403 689 331 697 365 b 792 750 728 521 757 635 l 668 750 b 635 592 654 699 644 649 b 388 764 594 694 521 764 b 82 375 183 764 82 631 b 382 -14 82 124 169 -14 b 600 89 488 -14 553 21 b 736 -8 625 26 669 -8 b 818 0 769 -8 800 -4 l 818 101 b 781 97 808 99 793 97 z m 378 88 b 210 375 258 88 210 182 b 389 664 210 558 256 664 b 567 392 525 664 561 554 l 574 238 b 378 88 542 147 488 88 z "},"β":{"ha":847,"x_min":0,"x_max":0,"o":"m 564 567 l 564 575 b 694 800 653 614 694 685 b 417 1061 694 979 597 1061 b 126 757 243 1061 126 968 l 126 -278 l 246 -278 l 246 15 b 457 -15 299 -6 364 -15 b 764 300 653 -15 764 89 b 564 567 764 456 701 539 z m 425 89 b 246 119 364 89 306 99 l 246 743 b 422 965 246 911 314 965 b 581 792 519 965 581 910 b 390 611 581 668 519 611 l 325 611 l 325 514 l 392 514 b 644 301 565 514 644 447 b 425 89 644 156 579 89 z "},"γ":{"ha":731,"x_min":0,"x_max":0,"o":"m 304 -283 l 424 -283 l 424 0 l 717 750 l 592 750 l 372 153 l 360 153 l 135 750 l 14 750 l 304 0 z "},"δ":{"ha":858,"x_min":0,"x_max":0,"o":"m 511 728 b 282 882 353 783 282 810 b 415 958 282 932 310 958 b 678 918 515 958 588 946 l 678 1028 b 415 1068 608 1054 517 1068 b 157 882 238 1068 157 1010 b 322 701 157 788 210 729 b 82 347 167 674 82 572 b 429 -14 82 76 208 -14 b 775 347 651 -14 775 76 b 511 728 775 549 721 656 z m 429 88 b 210 347 267 88 210 156 b 429 608 210 539 261 608 b 649 347 593 608 649 539 b 429 88 649 156 599 88 z "},"ε":{"ha":707,"x_min":0,"x_max":0,"o":"m 425 -14 b 651 14 510 -14 607 -1 l 651 124 b 428 92 594 101 513 92 b 211 211 283 92 211 131 b 439 331 211 294 282 331 l 546 331 l 546 438 l 440 438 b 235 553 297 438 235 474 b 421 660 235 624 292 660 b 611 628 503 660 561 647 l 611 736 b 418 764 572 750 508 764 b 113 554 219 764 113 689 b 249 385 113 457 161 406 l 249 382 b 89 206 151 361 89 310 b 425 -14 89 56 199 -14 z "},"ζ":{"ha":646,"x_min":0,"x_max":0,"o":"m 383 -276 b 636 -93 554 -276 636 -219 b 422 103 636 0 601 51 b 214 358 279 144 214 196 b 601 965 214 532 335 724 l 601 1056 l 121 1056 l 121 957 l 439 957 b 86 343 214 746 86 574 b 339 10 86 144 165 60 b 515 -99 493 -35 515 -46 b 383 -182 515 -156 474 -182 z "},"η":{"ha":893,"x_min":0,"x_max":0,"o":"m 519 764 b 276 638 426 764 321 736 b 115 758 264 722 210 758 b 38 750 83 758 60 756 l 38 651 b 93 658 57 657 76 658 b 160 569 142 658 160 643 l 160 0 l 279 0 l 279 507 b 508 657 321 639 413 657 b 653 475 628 657 653 590 l 653 -278 l 772 -278 l 772 519 b 519 764 772 663 717 764 z "},"θ":{"ha":886,"x_min":0,"x_max":0,"o":"m 443 1068 b 96 528 222 1068 96 943 b 443 -14 96 111 222 -14 b 789 528 665 -14 789 111 b 443 1068 789 943 665 1068 z m 443 968 b 663 581 599 968 657 882 l 224 581 b 443 968 229 882 283 968 z m 443 88 b 224 469 290 88 231 172 l 663 469 b 443 88 656 172 603 88 z "},"ι":{"ha":433,"x_min":0,"x_max":0,"o":"m 343 -8 b 428 -1 375 -8 399 -6 l 428 100 b 346 92 401 94 378 92 b 238 236 254 92 238 119 l 238 750 l 118 750 l 118 229 b 343 -8 118 32 178 -8 z "},"κ":{"ha":719,"x_min":0,"x_max":0,"o":"m 382 401 l 697 750 l 549 750 l 289 443 l 246 443 l 246 750 l 126 750 l 126 0 l 246 0 l 246 350 l 286 350 l 560 0 l 714 0 z "},"λ":{"ha":714,"x_min":0,"x_max":0,"o":"m 701 0 l 310 1056 l 182 1056 l 297 747 l 14 0 l 135 0 l 356 589 l 575 0 z "},"µ":{"ha":851,"x_min":0,"x_max":0,"o":"m 606 750 l 606 240 b 385 92 563 111 479 92 b 240 275 265 92 240 161 l 240 750 l 121 750 l 121 -278 l 240 -278 l 240 25 b 375 -14 268 0 311 -14 b 608 108 464 -14 563 11 l 624 0 l 725 0 l 725 750 z "},"ν":{"ha":731,"x_min":0,"x_max":0,"o":"m 294 0 l 436 0 l 717 750 l 590 750 l 371 119 l 363 119 l 135 750 l 14 750 z "},"ξ":{"ha":646,"x_min":0,"x_max":0,"o":"m 383 -276 b 636 -93 557 -276 636 -208 b 435 90 636 -11 614 42 b 207 297 250 139 207 185 b 476 514 207 447 308 514 l 538 514 l 538 624 l 481 624 b 264 767 326 624 264 663 b 601 960 264 908 369 958 l 601 1056 l 121 1056 l 121 957 l 250 957 b 143 758 176 904 143 844 b 261 569 143 651 185 604 b 86 289 164 525 86 457 b 353 -7 86 122 169 47 b 515 -99 488 -46 515 -54 b 383 -182 515 -151 475 -182 z "},"ο":{"ha":858,"x_min":0,"x_max":0,"o":"m 429 -14 b 775 375 651 -14 775 76 b 429 764 775 674 651 764 b 82 375 208 764 82 674 b 429 -14 82 76 208 -14 z m 429 88 b 210 375 267 88 210 156 b 429 664 210 594 261 664 b 649 375 593 664 649 594 b 429 88 649 156 599 88 z "},"π":{"ha":856,"x_min":0,"x_max":0,"o":"m 765 92 b 697 181 717 92 697 107 l 697 650 l 815 650 l 815 750 l 33 750 l 33 650 l 147 650 l 147 633 b 119 0 147 406 139 175 l 243 0 b 267 633 257 132 267 411 l 267 650 l 578 650 l 578 151 b 744 -8 578 39 635 -8 b 819 0 776 -8 799 -6 l 819 99 b 765 92 801 93 782 92 z "},"ρ":{"ha":860,"x_min":0,"x_max":0,"o":"m 449 764 b 107 375 251 764 107 685 l 107 -278 l 226 -278 l 226 114 b 464 -14 269 21 351 -14 b 776 375 654 -14 776 83 b 449 764 776 675 663 764 z m 450 88 b 226 375 301 88 226 167 b 449 664 226 603 311 664 b 650 375 589 664 650 592 b 450 88 650 169 593 88 z "},"ς":{"ha":690,"x_min":0,"x_max":0,"o":"m 390 -276 b 643 -93 561 -276 643 -219 b 429 103 643 0 604 57 b 210 393 256 150 210 192 b 431 660 210 589 265 660 b 625 626 507 660 569 647 l 625 736 b 429 764 583 750 513 764 b 82 375 208 764 82 674 b 344 10 82 156 167 61 b 522 -99 500 -35 522 -47 b 390 -182 522 -156 481 -182 z "},"σ":{"ha":888,"x_min":0,"x_max":0,"o":"m 878 750 l 474 750 b 82 390 215 750 82 640 b 429 -14 82 76 208 -14 b 775 364 651 -14 775 76 b 706 651 775 496 746 579 l 878 651 z m 649 364 b 429 88 649 156 599 88 b 210 376 267 88 210 156 b 497 651 210 581 278 651 l 581 651 b 649 364 628 571 649 496 z "},"τ":{"ha":607,"x_min":0,"x_max":0,"o":"m 576 650 l 576 750 l 7 750 l 7 650 l 215 650 l 215 231 b 421 -8 215 33 275 -8 b 492 -1 449 -8 468 -6 l 492 100 b 424 92 471 94 451 92 b 335 236 349 92 335 119 l 335 650 z "},"υ":{"ha":824,"x_min":0,"x_max":0,"o":"m 407 -14 b 726 381 622 -14 726 117 b 675 750 726 518 710 629 l 558 750 b 607 378 589 629 607 511 b 411 93 607 160 532 93 b 240 311 300 93 240 143 l 240 750 l 121 750 l 121 293 b 407 -14 121 68 229 -14 z "},"φ":{"ha":1075,"x_min":0,"x_max":0,"o":"m 994 379 b 600 764 994 638 869 756 l 600 1056 l 479 1056 l 479 764 b 81 371 222 756 81 621 b 479 -14 81 111 208 -6 l 479 -278 l 600 -278 l 600 -14 b 994 379 856 -4 994 131 z m 208 368 b 479 664 208 569 299 656 l 479 88 b 208 368 290 94 208 164 z m 600 86 l 600 663 b 868 382 786 656 868 585 b 600 86 868 182 778 94 z "},"χ":{"ha":707,"x_min":0,"x_max":0,"o":"m 21 -278 l 144 -278 l 346 176 l 358 176 l 563 -278 l 688 -278 l 438 253 l 672 750 l 549 750 l 358 329 l 344 329 l 157 750 l 32 750 l 268 251 z "},"ψ":{"ha":1035,"x_min":0,"x_max":0,"o":"m 953 432 b 900 750 953 544 935 643 l 783 750 b 833 428 814 646 833 543 b 586 88 833 161 732 90 l 586 750 l 467 750 l 467 88 b 240 311 315 89 240 142 l 240 750 l 121 750 l 121 293 b 467 -14 121 99 221 -11 l 467 -278 l 586 -278 l 586 -14 b 953 432 832 -10 953 125 z "},"ω":{"ha":1086,"x_min":0,"x_max":0,"o":"m 347 -14 b 543 108 460 -14 504 33 b 739 -14 581 33 626 -14 b 990 381 900 -14 990 96 b 936 750 990 543 971 642 l 819 750 b 871 376 850 646 871 542 b 732 93 871 176 832 93 b 603 333 639 93 603 158 l 603 565 l 483 565 l 483 333 b 354 93 483 158 447 93 b 215 376 254 93 215 176 b 265 750 215 542 235 646 l 150 750 b 96 381 114 642 96 543 b 347 -14 96 96 186 -14 z "},"ϊ":{"ha":433,"x_min":0,"x_max":0,"o":"m 58 888 b 128 958 107 888 128 897 b 58 1028 128 1019 107 1028 b -14 958 6 1028 -14 1019 b 58 888 -14 897 6 888 z m 299 888 b 369 958 349 888 369 897 b 299 1028 369 1019 349 1028 b 228 958 247 1028 228 1019 b 299 888 228 897 247 888 z m 343 -8 b 428 -1 375 -8 399 -6 l 428 100 b 346 92 401 94 378 92 b 238 236 254 92 238 119 l 238 750 l 118 750 l 118 229 b 343 -8 118 32 178 -8 z "},"ϋ":{"ha":824,"x_min":0,"x_max":0,"o":"m 274 888 b 343 958 322 888 343 897 b 274 1028 343 1019 322 1028 b 201 958 221 1028 201 1019 b 274 888 201 897 221 888 z m 514 888 b 585 958 564 888 585 897 b 514 1028 585 1019 564 1028 b 443 958 463 1028 443 1019 b 514 888 443 897 463 888 z m 407 -14 b 726 381 622 -14 726 117 b 675 750 726 518 710 629 l 558 750 b 607 378 589 629 607 511 b 411 93 607 160 532 93 b 240 311 300 93 240 143 l 240 750 l 121 750 l 121 293 b 407 -14 121 68 229 -14 z "},"ό":{"ha":858,"x_min":0,"x_max":0,"o":"m 381 853 l 468 853 l 567 1047 l 425 1047 z m 429 -14 b 775 375 651 -14 775 76 b 429 764 775 674 651 764 b 82 375 208 764 82 674 b 429 -14 82 76 208 -14 z m 429 88 b 210 375 267 88 210 156 b 429 664 210 594 261 664 b 649 375 593 664 649 594 b 429 88 649 156 599 88 z "},"ύ":{"ha":824,"x_min":0,"x_max":0,"o":"m 344 853 l 432 853 l 531 1047 l 389 1047 z m 407 -14 b 726 381 622 -14 726 117 b 675 750 726 518 710 629 l 558 750 b 607 378 589 629 607 511 b 411 93 607 160 532 93 b 240 311 300 93 240 143 l 240 750 l 121 750 l 121 293 b 407 -14 121 68 229 -14 z "},"ώ":{"ha":1086,"x_min":0,"x_max":0,"o":"m 494 853 l 582 853 l 681 1047 l 539 1047 z m 347 -14 b 543 108 460 -14 504 33 b 739 -14 581 33 626 -14 b 990 381 900 -14 990 96 b 936 750 990 543 971 642 l 819 750 b 871 376 850 646 871 542 b 732 93 871 176 832 93 b 603 333 639 93 603 158 l 603 565 l 483 565 l 483 333 b 354 93 483 158 447 93 b 215 376 254 93 215 176 b 265 750 215 542 235 646 l 150 750 b 96 381 114 642 96 543 b 347 -14 96 96 186 -14 z "},"Ѐ":{"ha":772,"x_min":0,"x_max":0,"o":"m 464 1035 l 304 1226 l 138 1226 l 360 1035 z m 253 113 l 253 449 l 636 449 l 636 554 l 253 554 l 253 853 l 664 853 l 664 964 l 128 964 l 128 0 l 699 0 l 699 113 z "},"Ё":{"ha":772,"x_min":0,"x_max":0,"o":"m 281 1049 b 350 1118 329 1049 350 1058 b 281 1189 350 1181 329 1189 b 208 1118 228 1189 208 1181 b 281 1049 208 1058 228 1049 z m 521 1049 b 592 1118 571 1049 592 1058 b 521 1189 592 1181 571 1189 b 450 1118 469 1189 450 1181 b 521 1049 450 1058 469 1049 z m 253 113 l 253 449 l 636 449 l 636 554 l 253 554 l 253 853 l 664 853 l 664 964 l 128 964 l 128 0 l 699 0 l 699 113 z "},"Ђ":{"ha":1057,"x_min":0,"x_max":0,"o":"m 669 611 b 429 581 585 611 493 596 l 429 853 l 710 853 l 710 964 l 22 964 l 22 853 l 304 853 l 304 0 l 429 0 l 429 476 b 663 508 510 497 590 508 b 869 288 815 508 869 450 b 704 96 869 149 822 96 b 585 106 654 96 608 101 l 585 1 b 710 -8 608 -3 656 -8 b 999 292 903 -8 999 97 b 669 611 999 510 894 611 z "},"Ѓ":{"ha":690,"x_min":0,"x_max":0,"o":"m 663 1226 l 494 1226 l 336 1035 l 440 1035 z m 664 964 l 128 964 l 128 0 l 253 0 l 253 853 l 664 853 z "},"Є":{"ha":832,"x_min":0,"x_max":0,"o":"m 543 99 b 232 439 340 99 242 169 l 728 439 l 728 544 l 232 544 b 556 868 246 786 351 868 b 761 835 640 868 706 856 l 761 950 b 553 978 704 968 642 978 b 100 482 275 978 100 854 b 539 -14 100 79 274 -14 b 772 28 636 -14 718 4 l 772 136 b 543 99 699 111 633 99 z "},"Ѕ":{"ha":786,"x_min":0,"x_max":0,"o":"m 365 -14 b 707 260 588 -14 707 72 b 414 556 707 449 629 506 b 217 718 240 596 217 628 b 415 869 217 843 281 869 b 656 831 503 869 600 851 l 656 944 b 414 979 610 963 507 979 b 93 718 196 979 93 893 b 363 451 93 547 165 499 b 585 258 543 408 585 376 b 365 96 585 139 510 96 b 79 139 251 96 136 118 l 79 24 b 365 -14 126 7 246 -14 z "},"І":{"ha":381,"x_min":0,"x_max":0,"o":"m 128 0 l 253 0 l 253 964 l 128 964 z "},"Ї":{"ha":381,"x_min":0,"x_max":0,"o":"m 71 1049 b 140 1118 119 1049 140 1058 b 71 1189 140 1181 119 1189 b -1 1118 18 1189 -1 1181 b 71 1049 -1 1058 18 1049 z m 311 1049 b 382 1118 361 1049 382 1058 b 311 1189 382 1181 361 1189 b 240 1118 260 1189 240 1181 b 311 1049 240 1058 260 1049 z m 128 0 l 253 0 l 253 964 l 128 964 z "},"Ј":{"ha":376,"x_min":0,"x_max":0,"o":"m -8 -251 b 254 22 171 -251 254 -146 l 254 964 l 129 964 l 129 35 b -12 -142 129 -71 89 -142 b -106 -132 -58 -142 -83 -136 l -106 -243 b -8 -251 -79 -249 -36 -251 z "},"Љ":{"ha":1485,"x_min":0,"x_max":0,"o":"m 1081 571 l 872 571 l 872 964 l 313 964 l 236 407 b 24 99 201 156 142 97 l 24 -15 b 361 392 226 -15 322 86 l 424 860 l 747 860 l 747 0 l 1078 0 b 1404 290 1325 0 1404 107 b 1081 571 1404 481 1322 571 z m 1025 107 l 872 107 l 872 465 l 1043 465 b 1279 290 1222 465 1279 425 b 1025 107 1279 150 1224 107 z "},"Њ":{"ha":1468,"x_min":0,"x_max":0,"o":"m 1064 571 l 856 571 l 856 964 l 729 964 l 729 571 l 253 571 l 253 964 l 128 964 l 128 0 l 253 0 l 253 467 l 729 467 l 729 0 l 1060 0 b 1386 290 1307 0 1386 107 b 1064 571 1386 481 1304 571 z m 1007 107 l 856 107 l 856 465 l 1026 465 b 1261 290 1204 465 1261 425 b 1007 107 1261 150 1206 107 z "},"Ћ":{"ha":1101,"x_min":0,"x_max":0,"o":"m 672 610 b 429 581 590 610 496 596 l 429 853 l 710 853 l 710 964 l 22 964 l 22 853 l 304 853 l 304 0 l 429 0 l 429 478 b 661 507 510 497 590 507 b 869 286 815 507 869 449 l 869 0 l 994 0 l 994 292 b 672 610 994 508 899 610 z "},"Ќ":{"ha":853,"x_min":0,"x_max":0,"o":"m 688 1226 l 519 1226 l 361 1035 l 465 1035 z m 453 529 l 786 964 l 636 964 l 331 551 l 253 551 l 253 964 l 128 964 l 128 0 l 253 0 l 253 440 l 315 440 b 671 0 471 440 533 340 l 811 0 b 453 529 653 371 583 489 z "},"Ѝ":{"ha":1024,"x_min":0,"x_max":0,"o":"m 469 1035 l 574 1035 l 414 1226 l 247 1226 z m 128 0 l 286 0 l 764 849 l 772 849 l 772 0 l 896 0 l 896 964 l 707 964 l 261 164 l 253 164 l 253 964 l 128 964 z "},"Ў":{"ha":783,"x_min":0,"x_max":0,"o":"m 407 1075 b 628 1260 561 1075 614 1144 l 513 1260 b 407 1144 510 1183 467 1144 b 300 1260 347 1144 303 1183 l 185 1260 b 407 1075 194 1144 250 1075 z m 96 -11 b 476 240 307 -11 394 50 l 785 964 l 664 964 l 411 353 l 403 353 l 140 964 l 11 964 l 343 221 b 96 92 304 136 250 92 z "},"Џ":{"ha":983,"x_min":0,"x_max":0,"o":"m 729 964 l 729 110 l 253 110 l 253 964 l 128 964 l 128 0 l 429 0 l 429 -218 l 554 -218 l 554 0 l 856 0 l 856 964 z "},"А":{"ha":926,"x_min":0,"x_max":0,"o":"m 779 0 l 911 0 l 547 964 l 381 964 l 15 0 l 143 0 l 249 288 l 675 288 z m 290 399 l 456 847 l 472 847 l 635 399 z "},"Б":{"ha":865,"x_min":0,"x_max":0,"o":"m 461 571 l 253 571 l 253 854 l 686 854 l 686 964 l 128 964 l 128 0 l 457 0 b 785 290 706 0 785 107 b 461 571 785 481 703 571 z m 406 107 l 253 107 l 253 465 l 424 465 b 660 290 601 465 660 425 b 406 107 660 150 603 107 z "},"В":{"ha":861,"x_min":0,"x_max":0,"o":"m 128 0 l 433 0 b 761 275 688 0 761 100 b 589 499 761 389 719 472 l 589 504 b 729 708 690 535 729 608 b 406 964 729 882 658 964 l 128 964 z m 253 542 l 253 858 l 347 858 b 607 701 532 858 607 843 b 347 542 607 575 532 542 z m 253 107 l 253 443 l 382 443 b 636 276 578 443 636 394 b 382 107 636 139 579 107 z "},"Г":{"ha":690,"x_min":0,"x_max":0,"o":"m 664 964 l 128 964 l 128 0 l 253 0 l 253 853 l 664 853 z "},"Д":{"ha":1039,"x_min":0,"x_max":0,"o":"m 850 110 l 850 964 l 304 964 l 240 471 b 115 110 214 269 164 171 l 13 110 l 13 -218 l 138 -218 l 138 0 l 882 0 l 882 -218 l 1007 -218 l 1007 110 z m 725 110 l 258 110 b 361 460 296 172 336 271 l 415 860 l 725 860 z "},"Е":{"ha":772,"x_min":0,"x_max":0,"o":"m 253 113 l 253 449 l 636 449 l 636 554 l 253 554 l 253 853 l 664 853 l 664 964 l 128 964 l 128 0 l 699 0 l 699 113 z "},"Ж":{"ha":1264,"x_min":0,"x_max":0,"o":"m 894 529 l 1228 964 l 1078 964 l 772 551 l 694 551 l 694 964 l 569 964 l 569 551 l 492 551 l 186 964 l 36 964 l 369 529 b 11 0 239 489 169 371 l 151 0 b 507 440 290 340 351 440 l 569 440 l 569 0 l 694 0 l 694 440 l 757 440 b 1113 0 913 440 975 340 l 1253 0 b 894 529 1096 371 1025 489 z "},"З":{"ha":785,"x_min":0,"x_max":0,"o":"m 311 -14 b 685 265 572 -14 685 90 b 489 497 685 394 625 474 l 489 506 b 656 724 590 538 656 597 b 335 978 656 901 553 978 b 86 944 215 978 140 956 l 86 836 b 328 869 140 851 224 869 b 532 715 483 869 532 819 b 278 550 532 607 479 550 l 115 550 l 115 446 l 276 446 b 560 267 471 446 560 404 b 311 92 560 146 492 92 b 57 125 200 92 126 108 l 57 13 b 311 -14 111 0 196 -14 z "},"И":{"ha":1024,"x_min":0,"x_max":0,"o":"m 128 0 l 286 0 l 764 849 l 772 849 l 772 0 l 896 0 l 896 964 l 707 964 l 261 164 l 253 164 l 253 964 l 128 964 z "},"Й":{"ha":1024,"x_min":0,"x_max":0,"o":"m 510 1075 b 731 1260 664 1075 717 1144 l 615 1260 b 510 1144 613 1183 569 1144 b 403 1260 450 1144 406 1183 l 288 1260 b 510 1075 297 1144 353 1075 z m 128 0 l 286 0 l 764 849 l 772 849 l 772 0 l 896 0 l 896 964 l 707 964 l 261 164 l 253 164 l 253 964 l 128 964 z "},"К":{"ha":853,"x_min":0,"x_max":0,"o":"m 453 529 l 786 964 l 636 964 l 331 551 l 253 551 l 253 964 l 128 964 l 128 0 l 253 0 l 253 440 l 315 440 b 671 0 471 440 533 340 l 811 0 b 453 529 653 371 583 489 z "},"Л":{"ha":983,"x_min":0,"x_max":0,"o":"m 872 964 l 313 964 l 236 407 b 24 99 201 156 142 97 l 24 -15 b 361 392 226 -15 322 86 l 424 860 l 747 860 l 747 0 l 872 0 z "},"М":{"ha":1153,"x_min":0,"x_max":0,"o":"m 128 0 l 250 0 l 250 838 l 258 838 l 508 218 l 644 218 l 892 838 l 900 838 l 900 0 l 1025 0 l 1025 964 l 828 964 l 582 343 l 574 343 l 328 964 l 128 964 z "},"Н":{"ha":983,"x_min":0,"x_max":0,"o":"m 729 964 l 729 571 l 253 571 l 253 964 l 128 964 l 128 0 l 253 0 l 253 467 l 729 467 l 729 0 l 856 0 l 856 964 z "},"О":{"ha":1032,"x_min":0,"x_max":0,"o":"m 515 -14 b 931 482 789 -14 931 93 b 515 978 931 869 789 978 b 100 482 243 978 100 869 b 515 -14 100 93 243 -14 z m 515 93 b 231 482 281 93 231 207 b 515 872 231 749 281 872 b 801 482 751 872 801 749 b 515 93 801 207 751 93 z "},"П":{"ha":983,"x_min":0,"x_max":0,"o":"m 856 964 l 128 964 l 128 0 l 253 0 l 253 854 l 729 854 l 729 0 l 856 0 z "},"Р":{"ha":829,"x_min":0,"x_max":0,"o":"m 128 0 l 253 0 l 253 342 l 396 342 b 749 656 646 342 749 429 b 396 964 749 869 668 964 l 128 964 z m 253 446 l 253 856 l 385 856 b 621 656 564 856 621 803 b 385 446 621 493 564 446 z "},"С":{"ha":832,"x_min":0,"x_max":0,"o":"m 539 -14 b 772 28 636 -14 718 4 l 772 136 b 543 99 699 111 633 99 b 231 485 329 99 231 178 b 556 868 231 772 336 868 b 761 835 640 868 706 856 l 761 950 b 553 978 704 968 642 978 b 100 482 275 978 100 854 b 539 -14 100 79 274 -14 z "},"Т":{"ha":733,"x_min":0,"x_max":0,"o":"m 710 964 l 22 964 l 22 853 l 304 853 l 304 0 l 429 0 l 429 853 l 710 853 z "},"У":{"ha":783,"x_min":0,"x_max":0,"o":"m 96 -11 b 476 240 307 -11 394 50 l 785 964 l 664 964 l 411 353 l 403 353 l 140 964 l 11 964 l 343 221 b 96 92 304 136 250 92 z "},"Ф":{"ha":1154,"x_min":0,"x_max":0,"o":"m 1072 481 b 639 867 1072 750 939 863 l 639 978 l 515 978 l 515 867 b 82 482 215 863 82 750 b 515 96 82 211 215 100 l 515 -14 l 639 -14 l 639 96 b 1072 481 939 100 1072 213 z m 211 482 b 515 765 211 665 257 761 l 515 199 b 211 482 257 203 211 297 z m 639 197 l 639 764 b 944 481 899 760 944 661 b 639 197 944 300 899 201 z "},"Х":{"ha":867,"x_min":0,"x_max":0,"o":"m 32 0 l 172 0 l 432 414 l 440 414 l 688 0 l 833 0 l 521 499 l 822 964 l 686 964 l 442 568 l 433 568 l 204 964 l 58 964 l 349 490 z "},"Ц":{"ha":1043,"x_min":0,"x_max":0,"o":"m 856 110 l 856 964 l 729 964 l 729 110 l 253 110 l 253 964 l 128 964 l 128 0 l 888 0 l 888 -218 l 1013 -218 l 1013 110 z "},"Ч":{"ha":908,"x_min":0,"x_max":0,"o":"m 654 964 l 654 485 b 429 457 576 467 499 457 b 221 676 276 457 221 514 l 221 964 l 96 964 l 96 672 b 418 353 96 454 192 353 b 654 381 499 353 589 365 l 654 0 l 781 0 l 781 964 z "},"Ш":{"ha":1465,"x_min":0,"x_max":0,"o":"m 1213 964 l 1213 110 l 796 110 l 796 964 l 671 964 l 671 110 l 253 110 l 253 964 l 128 964 l 128 0 l 1338 0 l 1338 964 z "},"Щ":{"ha":1524,"x_min":0,"x_max":0,"o":"m 1338 110 l 1338 964 l 1213 964 l 1213 110 l 796 110 l 796 964 l 671 964 l 671 110 l 253 110 l 253 964 l 128 964 l 128 0 l 1368 0 l 1368 -218 l 1493 -218 l 1493 110 z "},"Ъ":{"ha":1018,"x_min":0,"x_max":0,"o":"m 614 571 l 406 571 l 406 964 l 22 964 l 22 853 l 281 853 l 281 0 l 611 0 b 938 290 858 0 938 107 b 614 571 938 481 856 571 z m 558 107 l 406 107 l 406 465 l 576 465 b 813 290 756 465 813 425 b 558 107 813 150 756 107 z "},"Ы":{"ha":1176,"x_min":0,"x_max":0,"o":"m 461 571 l 253 571 l 253 964 l 128 964 l 128 0 l 457 0 b 785 290 706 0 785 107 b 461 571 785 481 703 571 z m 924 964 l 924 0 l 1049 0 l 1049 964 z m 406 107 l 253 107 l 253 465 l 424 465 b 660 290 601 465 660 425 b 406 107 660 150 603 107 z "},"Ь":{"ha":865,"x_min":0,"x_max":0,"o":"m 461 571 l 253 571 l 253 964 l 128 964 l 128 0 l 457 0 b 785 290 706 0 785 107 b 461 571 785 481 703 571 z m 406 107 l 253 107 l 253 465 l 424 465 b 660 290 601 465 660 425 b 406 107 660 150 603 107 z "},"Э":{"ha":832,"x_min":0,"x_max":0,"o":"m 293 978 b 60 936 196 978 114 960 l 60 828 b 290 865 133 853 199 865 b 600 549 486 865 585 799 l 106 549 l 106 443 l 601 443 b 276 96 592 183 486 96 b 71 129 192 96 126 108 l 71 14 b 281 -14 128 -4 190 -14 b 732 482 557 -14 732 110 b 293 978 732 885 560 978 z "},"Ю":{"ha":1429,"x_min":0,"x_max":0,"o":"m 939 978 b 553 571 711 978 574 886 l 253 571 l 253 964 l 128 964 l 128 0 l 253 0 l 253 467 l 550 467 b 939 -14 554 90 694 -14 b 1328 482 1185 -14 1328 93 b 939 978 1328 869 1185 978 z m 939 93 b 679 482 729 93 679 207 b 939 872 679 749 729 872 b 1197 482 1149 872 1197 749 b 939 93 1197 207 1149 93 z "},"Я":{"ha":853,"x_min":0,"x_max":0,"o":"m 481 964 b 113 679 211 964 113 892 b 310 403 113 513 176 433 l 21 0 l 168 0 l 433 389 b 481 388 449 388 464 388 l 600 388 l 600 0 l 725 0 l 725 964 z m 600 492 l 492 492 b 239 679 313 492 239 515 b 492 856 239 825 313 856 l 600 856 z "},"а":{"ha":850,"x_min":0,"x_max":0,"o":"m 424 764 b 253 753 369 764 308 760 l 253 647 b 418 664 307 658 368 664 b 603 511 571 664 603 601 l 603 449 l 374 449 b 76 210 194 449 76 388 b 335 -14 76 68 156 -14 b 603 114 447 -14 560 32 l 621 0 l 722 0 l 722 532 b 424 764 722 667 660 764 z m 346 86 b 200 211 240 86 200 129 b 382 353 200 328 258 353 l 603 353 l 603 229 b 346 86 564 140 471 86 z "},"б":{"ha":858,"x_min":0,"x_max":0,"o":"m 461 738 b 207 597 307 738 239 682 b 226 726 213 649 219 693 b 446 917 250 828 294 903 l 717 940 l 717 1046 l 422 1017 b 88 464 183 993 88 851 b 429 -14 88 57 201 -14 b 775 363 650 -14 775 74 b 461 738 775 650 653 738 z m 429 85 b 210 363 269 85 210 150 b 442 640 210 596 286 640 b 649 361 593 640 649 574 b 429 85 649 150 599 85 z "},"в":{"ha":806,"x_min":0,"x_max":0,"o":"m 126 -10 l 463 -10 b 717 210 642 -10 717 58 b 588 389 717 322 672 367 l 588 393 b 693 561 654 414 693 464 b 442 760 693 704 625 760 l 126 760 z m 247 432 l 247 658 l 397 658 b 576 546 532 658 576 650 b 397 432 576 457 536 432 z m 247 93 l 247 335 l 424 335 b 596 211 556 335 596 306 b 424 93 596 119 567 93 z "},"г":{"ha":532,"x_min":0,"x_max":0,"o":"m 499 750 l 126 750 l 126 0 l 246 0 l 246 650 l 499 650 z "},"д":{"ha":847,"x_min":0,"x_max":0,"o":"m 693 111 l 693 750 l 232 750 l 194 442 b 88 111 172 249 139 161 l 24 111 l 24 -218 l 144 -218 l 144 0 l 693 0 l 693 -218 l 813 -218 l 813 111 z m 572 111 l 225 111 b 315 426 267 174 297 267 l 339 651 l 572 651 z "},"е":{"ha":803,"x_min":0,"x_max":0,"o":"m 722 450 b 422 764 722 596 678 764 b 82 375 208 764 82 674 b 429 -14 82 76 208 -14 b 682 31 536 -14 639 8 l 682 140 b 447 92 625 113 529 92 b 207 331 265 92 208 167 l 715 363 b 722 450 719 397 722 429 z m 207 419 b 422 665 211 572 250 665 b 604 449 585 665 604 564 z "},"ж":{"ha":1018,"x_min":0,"x_max":0,"o":"m 726 411 l 1004 750 l 857 750 l 613 431 l 569 431 l 569 750 l 450 750 l 450 431 l 407 431 l 163 750 l 14 750 l 293 411 b 10 0 185 376 136 314 l 135 0 b 408 335 244 275 303 335 l 450 335 l 450 0 l 569 0 l 569 335 l 610 335 b 883 0 715 335 774 275 l 1008 0 b 726 411 883 314 835 376 z "},"з":{"ha":675,"x_min":0,"x_max":0,"o":"m 286 -14 b 586 210 503 -14 586 64 b 464 390 586 318 543 372 l 464 397 b 569 563 536 425 569 472 b 304 764 569 710 494 764 b 93 738 199 764 129 746 l 93 639 b 297 665 129 649 197 665 b 457 557 424 665 457 629 b 282 438 457 478 419 438 l 164 438 l 164 340 l 282 340 b 474 215 428 340 474 310 b 279 88 474 133 435 88 b 65 114 179 88 113 100 l 65 7 b 286 -14 106 -1 175 -14 z "},"и":{"ha":896,"x_min":0,"x_max":0,"o":"m 126 0 l 276 0 l 642 643 l 650 643 l 650 0 l 769 0 l 769 750 l 589 750 l 254 154 l 246 154 l 246 750 l 126 750 z "},"й":{"ha":896,"x_min":0,"x_max":0,"o":"m 456 861 b 676 1046 610 861 663 931 l 561 1046 b 456 931 558 969 515 931 b 349 1046 396 931 351 969 l 233 1046 b 456 861 243 931 299 861 z m 126 0 l 276 0 l 642 643 l 650 643 l 650 0 l 769 0 l 769 750 l 589 750 l 254 154 l 246 154 l 246 750 l 126 750 z "},"к":{"ha":694,"x_min":0,"x_max":0,"o":"m 403 411 l 682 750 l 533 750 l 289 431 l 246 431 l 246 750 l 126 750 l 126 0 l 246 0 l 246 335 l 286 335 b 560 0 392 335 450 275 l 685 0 b 403 411 560 314 511 376 z "},"л":{"ha":819,"x_min":0,"x_max":0,"o":"m 693 750 l 232 750 l 189 390 b 17 94 160 147 117 93 l 17 -15 b 308 374 199 -15 275 81 l 339 651 l 572 651 l 572 0 l 693 0 z "},"м":{"ha":1021,"x_min":0,"x_max":0,"o":"m 126 0 l 240 0 l 240 624 l 247 624 l 444 143 l 572 143 l 769 624 l 776 624 l 776 0 l 894 0 l 894 750 l 710 750 l 514 267 l 507 267 l 311 750 l 126 750 z "},"н":{"ha":892,"x_min":0,"x_max":0,"o":"m 644 750 l 644 450 l 246 450 l 246 750 l 126 750 l 126 0 l 246 0 l 246 338 l 644 338 l 644 0 l 765 0 l 765 750 z "},"о":{"ha":858,"x_min":0,"x_max":0,"o":"m 429 -14 b 775 375 651 -14 775 76 b 429 764 775 674 651 764 b 82 375 208 764 82 674 b 429 -14 82 76 208 -14 z m 429 88 b 210 375 267 88 210 156 b 429 664 210 594 261 664 b 649 375 593 664 649 594 b 429 88 649 156 599 88 z "},"п":{"ha":892,"x_min":0,"x_max":0,"o":"m 765 750 l 126 750 l 126 0 l 246 0 l 246 638 l 644 638 l 644 0 l 765 0 z "},"р":{"ha":882,"x_min":0,"x_max":0,"o":"m 489 764 b 246 615 346 764 276 704 l 246 750 l 126 750 l 126 -278 l 246 -278 l 246 131 b 489 -14 276 43 343 -14 b 799 375 740 -14 799 168 b 489 764 799 604 740 764 z m 474 88 b 240 375 293 88 240 203 b 474 664 240 554 293 664 b 674 375 647 664 674 533 b 474 88 674 229 651 88 z "},"с":{"ha":690,"x_min":0,"x_max":0,"o":"m 429 -14 b 628 14 500 -14 586 -1 l 628 124 b 432 92 574 101 503 92 b 210 374 265 92 210 156 b 431 660 210 594 265 660 b 625 626 507 660 569 647 l 625 736 b 429 764 583 750 513 764 b 82 375 208 764 82 674 b 429 -14 82 76 208 -14 z "},"т":{"ha":628,"x_min":0,"x_max":0,"o":"m 603 750 l 25 750 l 25 650 l 254 650 l 254 0 l 374 0 l 374 650 l 603 650 z "},"у":{"ha":732,"x_min":0,"x_max":0,"o":"m 93 -278 b 449 25 314 -278 378 -162 l 718 750 l 597 750 l 381 128 l 372 128 l 143 750 l 14 750 l 314 1 b 93 -175 276 -119 224 -175 z "},"ф":{"ha":1250,"x_min":0,"x_max":0,"o":"m 897 764 b 685 622 774 764 713 707 l 685 1056 l 565 1056 l 565 628 b 358 764 539 710 482 764 b 83 375 176 764 83 651 b 353 -14 83 69 171 -14 b 565 128 476 -14 538 43 l 565 -278 l 685 -278 l 685 122 b 892 -14 711 40 767 -14 b 1167 375 1074 -14 1167 99 b 897 764 1167 681 1079 764 z m 868 88 b 679 375 722 88 679 203 b 868 664 679 554 722 664 b 1040 375 974 664 1040 608 b 868 88 1040 160 978 88 z m 382 86 b 210 375 276 86 210 142 b 382 663 210 590 272 663 b 571 375 528 663 571 547 b 382 86 571 196 528 86 z "},"х":{"ha":717,"x_min":0,"x_max":0,"o":"m 19 0 l 153 0 l 356 310 l 364 310 l 561 0 l 697 0 l 442 385 l 683 750 l 551 750 l 365 454 l 357 454 l 168 750 l 35 750 l 278 382 z "},"ц":{"ha":914,"x_min":0,"x_max":0,"o":"m 765 111 l 765 750 l 646 750 l 646 113 l 247 113 l 247 750 l 126 750 l 126 0 l 760 0 l 760 -218 l 881 -218 l 881 111 z "},"ч":{"ha":840,"x_min":0,"x_max":0,"o":"m 596 750 l 596 478 b 374 326 554 346 468 326 b 229 510 254 326 229 396 l 229 750 l 110 750 l 110 465 b 361 221 110 321 165 221 b 596 342 453 221 550 244 l 596 0 l 714 0 l 714 750 z "},"ш":{"ha":1240,"x_min":0,"x_max":0,"o":"m 996 750 l 996 113 l 681 113 l 681 750 l 561 750 l 561 113 l 247 113 l 247 750 l 126 750 l 126 0 l 1115 0 l 1115 750 z "},"щ":{"ha":1267,"x_min":0,"x_max":0,"o":"m 1115 111 l 1115 750 l 996 750 l 996 113 l 681 113 l 681 750 l 561 750 l 561 113 l 247 113 l 247 750 l 126 750 l 126 0 l 1111 0 l 1111 -218 l 1232 -218 l 1232 111 z "},"ъ":{"ha":908,"x_min":0,"x_max":0,"o":"m 594 469 l 363 469 l 363 750 l 25 750 l 25 650 l 242 650 l 242 0 l 585 0 b 843 233 763 0 843 72 b 594 469 843 397 774 469 z m 553 103 l 363 103 l 363 367 l 553 367 b 722 233 681 367 722 335 b 553 103 722 132 682 103 z "},"ы":{"ha":1090,"x_min":0,"x_max":0,"o":"m 126 0 l 469 0 b 726 233 646 0 726 72 b 479 469 726 397 658 469 l 247 469 l 247 750 l 126 750 z m 843 0 l 963 0 l 963 750 l 843 750 z m 247 103 l 247 367 l 436 367 b 606 233 565 367 606 335 b 436 103 606 132 567 103 z "},"ь":{"ha":792,"x_min":0,"x_max":0,"o":"m 126 0 l 469 0 b 726 233 646 0 726 72 b 479 469 726 397 658 469 l 247 469 l 247 750 l 126 750 z m 247 103 l 247 367 l 436 367 b 606 233 565 367 606 335 b 436 103 606 132 567 103 z "},"э":{"ha":690,"x_min":0,"x_max":0,"o":"m 261 764 b 63 736 190 764 104 751 l 63 626 b 260 658 117 649 188 658 b 479 429 413 658 471 606 l 125 429 l 125 331 l 479 331 b 260 90 472 146 414 90 b 65 124 185 90 121 103 l 65 14 b 261 -14 107 0 178 -14 b 608 375 483 -14 608 76 b 261 764 608 674 483 764 z "},"ю":{"ha":1161,"x_min":0,"x_max":0,"o":"m 746 764 b 415 450 556 764 436 689 l 246 450 l 246 750 l 126 750 l 126 0 l 246 0 l 246 338 l 414 338 b 746 -14 424 69 546 -14 b 1078 375 953 -14 1078 76 b 746 764 1078 674 953 764 z m 746 88 b 539 375 597 88 539 156 b 746 664 539 594 592 664 b 951 375 894 664 951 594 b 746 88 951 156 900 88 z "},"я":{"ha":725,"x_min":0,"x_max":0,"o":"m 388 750 b 67 525 150 750 67 693 b 225 307 67 403 101 332 l 10 0 l 144 0 l 346 296 l 354 296 l 479 296 l 479 0 l 599 0 l 599 750 z m 479 393 l 365 393 b 193 525 218 393 193 422 b 397 651 193 624 239 651 l 479 651 z "},"ѐ":{"ha":803,"x_min":0,"x_max":0,"o":"m 465 854 l 349 1046 l 194 1046 l 368 854 z m 722 450 b 422 764 722 596 678 764 b 82 375 208 764 82 674 b 429 -14 82 76 208 -14 b 682 31 536 -14 639 8 l 682 140 b 447 92 625 113 529 92 b 207 331 265 92 208 167 l 715 363 b 722 450 719 397 722 429 z m 207 419 b 422 665 211 572 250 665 b 604 449 585 665 604 564 z "},"ё":{"ha":803,"x_min":0,"x_max":0,"o":"m 282 888 b 351 958 331 888 351 897 b 282 1028 351 1019 331 1028 b 210 958 229 1028 210 1019 b 282 888 210 897 229 888 z m 522 888 b 593 958 572 888 593 897 b 522 1028 593 1019 572 1028 b 451 958 471 1028 451 1019 b 522 888 451 897 471 888 z m 722 450 b 422 764 722 596 678 764 b 82 375 208 764 82 674 b 429 -14 82 76 208 -14 b 682 31 536 -14 639 8 l 682 140 b 447 92 625 113 529 92 b 207 331 265 92 208 167 l 715 363 b 722 450 719 397 722 429 z m 207 419 b 422 665 211 572 250 665 b 604 449 585 665 604 564 z "},"ђ":{"ha":858,"x_min":0,"x_max":0,"o":"m 483 -278 b 738 10 653 -278 738 -232 l 738 519 b 486 764 738 663 682 764 b 246 643 394 764 292 739 l 246 850 l 461 850 l 461 946 l 246 946 l 246 1056 l 126 1056 l 126 946 l 24 946 l 24 850 l 126 850 l 126 0 l 246 0 l 246 507 b 474 657 288 639 379 657 b 618 475 593 657 618 590 l 618 22 b 490 -179 618 -131 599 -179 b 396 -172 457 -179 421 -175 l 396 -271 b 483 -278 425 -275 454 -278 z "},"ѓ":{"ha":532,"x_min":0,"x_max":0,"o":"m 471 1046 l 318 1046 l 201 854 l 299 854 z m 499 750 l 126 750 l 126 0 l 246 0 l 246 650 l 499 650 z "},"є":{"ha":690,"x_min":0,"x_max":0,"o":"m 431 92 b 211 331 275 92 218 147 l 565 331 l 565 429 l 211 429 b 431 660 221 606 279 660 b 625 626 506 660 569 647 l 625 736 b 429 764 583 750 513 764 b 82 375 208 764 82 674 b 429 -14 82 76 208 -14 b 628 14 500 -14 586 -1 l 628 124 b 431 92 574 101 503 92 z "},"ѕ":{"ha":665,"x_min":0,"x_max":0,"o":"m 300 -8 b 585 208 483 -8 585 60 b 350 439 585 353 522 400 b 207 558 233 465 207 482 b 365 667 207 643 260 667 b 544 638 435 667 501 654 l 553 739 b 364 764 517 753 436 764 b 94 561 186 764 94 682 b 304 344 94 435 139 382 b 472 204 447 311 472 293 b 299 89 472 117 413 89 b 82 118 231 89 135 103 l 82 15 b 300 -8 124 3 228 -8 z "},"і":{"ha":372,"x_min":0,"x_max":0,"o":"m 188 888 b 258 958 238 888 258 897 b 188 1029 258 1021 238 1029 b 115 958 135 1029 115 1021 b 188 888 115 897 135 888 z m 126 0 l 246 0 l 246 750 l 126 750 z "},"ї":{"ha":372,"x_min":0,"x_max":0,"o":"m 68 888 b 138 958 117 888 138 897 b 68 1028 138 1019 117 1028 b -4 958 15 1028 -4 1019 b 68 888 -4 897 15 888 z m 308 888 b 379 958 358 888 379 897 b 308 1028 379 1019 358 1028 b 238 958 257 1028 238 1019 b 308 888 238 897 257 888 z m 126 0 l 246 0 l 246 750 l 126 750 z "},"ј":{"ha":372,"x_min":0,"x_max":0,"o":"m 188 888 b 258 958 238 888 258 897 b 188 1029 258 1021 238 1029 b 115 958 135 1029 115 1021 b 188 888 115 897 135 888 z m -10 -278 b 246 10 161 -278 246 -232 l 246 750 l 126 750 l 126 22 b -1 -179 126 -131 106 -179 b -97 -172 -36 -179 -72 -175 l -97 -271 b -10 -278 -68 -275 -39 -278 z "},"љ":{"ha":1238,"x_min":0,"x_max":0,"o":"m 925 469 l 693 469 l 693 750 l 232 750 l 189 390 b 17 94 160 147 117 93 l 17 -15 b 308 374 199 -15 275 81 l 339 651 l 572 651 l 572 0 l 915 0 b 1172 233 1092 0 1172 72 b 925 469 1172 397 1104 469 z m 882 103 l 693 103 l 693 367 l 882 367 b 1051 233 1011 367 1051 335 b 882 103 1051 132 1013 103 z "},"њ":{"ha":1310,"x_min":0,"x_max":0,"o":"m 997 469 l 765 469 l 765 750 l 644 750 l 644 450 l 246 450 l 246 750 l 126 750 l 126 0 l 246 0 l 246 338 l 644 338 l 644 0 l 988 0 b 1244 233 1164 0 1244 72 b 997 469 1244 397 1176 469 z m 954 103 l 765 103 l 765 367 l 954 367 b 1124 233 1083 367 1124 335 b 954 103 1124 132 1085 103 z "},"ћ":{"ha":858,"x_min":0,"x_max":0,"o":"m 486 764 b 246 643 394 764 292 739 l 246 850 l 461 850 l 461 946 l 246 946 l 246 1056 l 126 1056 l 126 946 l 24 946 l 24 850 l 126 850 l 126 0 l 246 0 l 246 507 b 474 657 288 639 379 657 b 618 475 593 657 618 590 l 618 0 l 738 0 l 738 519 b 486 764 738 663 682 764 z "},"ќ":{"ha":694,"x_min":0,"x_max":0,"o":"m 553 1046 l 400 1046 l 283 854 l 381 854 z m 403 411 l 682 750 l 533 750 l 289 431 l 246 431 l 246 750 l 126 750 l 126 0 l 246 0 l 246 335 l 286 335 b 560 0 392 335 450 275 l 685 0 b 403 411 560 314 511 376 z "},"ѝ":{"ha":896,"x_min":0,"x_max":0,"o":"m 422 854 l 519 854 l 403 1046 l 249 1046 z m 126 0 l 276 0 l 642 643 l 650 643 l 650 0 l 769 0 l 769 750 l 589 750 l 254 154 l 246 154 l 246 750 l 126 750 z "},"ў":{"ha":732,"x_min":0,"x_max":0,"o":"m 367 861 b 588 1046 521 861 574 931 l 472 1046 b 367 931 469 969 426 931 b 260 1046 307 931 263 969 l 144 1046 b 367 861 154 931 210 861 z m 93 -278 b 449 25 314 -278 378 -162 l 718 750 l 597 750 l 381 128 l 372 128 l 143 750 l 14 750 l 314 1 b 93 -175 276 -119 224 -175 z "},"џ":{"ha":892,"x_min":0,"x_max":0,"o":"m 646 750 l 646 113 l 247 113 l 247 750 l 126 750 l 126 0 l 386 0 l 386 -218 l 507 -218 l 507 0 l 765 0 l 765 750 z "},"Ґ":{"ha":690,"x_min":0,"x_max":0,"o":"m 538 1182 l 538 964 l 128 964 l 128 0 l 253 0 l 253 853 l 664 853 l 664 1182 z "},"ґ":{"ha":532,"x_min":0,"x_max":0,"o":"m 378 932 l 378 750 l 126 750 l 126 0 l 246 0 l 246 650 l 499 650 l 499 932 z "},"Ғ":{"ha":690,"x_min":0,"x_max":0,"o":"m 664 853 l 664 964 l 128 964 l 128 518 l 10 518 l 10 417 l 128 417 l 128 0 l 253 0 l 253 417 l 518 417 l 518 518 l 253 518 l 253 853 z "},"ғ":{"ha":532,"x_min":0,"x_max":0,"o":"m 499 650 l 499 750 l 126 750 l 126 403 l 25 403 l 25 307 l 126 307 l 126 0 l 246 0 l 246 307 l 425 307 l 425 403 l 246 403 l 246 650 z "},"Җ":{"ha":1283,"x_min":0,"x_max":0,"o":"m 883 529 l 1217 964 l 1067 964 l 761 551 l 704 551 l 704 964 l 579 964 l 579 551 l 522 551 l 217 964 l 67 964 l 400 529 b 42 0 269 489 199 371 l 200 0 b 550 440 336 340 397 440 l 579 440 l 579 0 l 704 0 l 704 440 l 733 440 b 1082 0 885 440 947 340 l 1242 0 b 883 529 1083 371 1014 489 z "},"җ":{"ha":990,"x_min":0,"x_max":0,"o":"m 699 411 l 976 750 l 829 750 l 585 431 l 556 431 l 556 750 l 436 750 l 436 431 l 407 431 l 163 750 l 14 750 l 293 411 b 10 0 185 376 136 314 l 135 0 b 408 335 244 275 303 335 l 436 335 l 436 0 l 556 0 l 556 335 l 582 335 b 856 0 688 335 746 275 l 981 0 b 699 411 856 314 807 376 z "},"Қ":{"ha":936,"x_min":0,"x_max":0,"o":"m 764 110 b 453 529 638 394 569 493 l 786 964 l 636 964 l 331 551 l 253 551 l 253 964 l 128 964 l 128 0 l 253 0 l 253 440 l 315 440 b 671 0 471 440 533 340 l 778 0 l 778 -218 l 903 -218 l 903 110 z "},"қ":{"ha":764,"x_min":0,"x_max":0,"o":"m 639 111 b 403 411 546 329 497 381 l 682 750 l 533 750 l 289 431 l 246 431 l 246 750 l 126 750 l 126 0 l 246 0 l 246 335 l 286 335 b 560 0 392 335 450 275 l 610 0 l 610 -218 l 729 -218 l 729 111 z "},"Ҝ":{"ha":910,"x_min":0,"x_max":0,"o":"m 539 529 l 843 964 l 693 964 l 433 576 l 433 764 l 340 764 l 340 551 l 253 551 l 253 964 l 128 964 l 128 0 l 253 0 l 253 440 l 340 440 l 340 203 l 433 203 l 433 436 b 710 0 554 417 614 304 l 869 0 b 539 529 739 371 669 489 z "},"ҝ":{"ha":739,"x_min":0,"x_max":0,"o":"m 504 414 l 725 750 l 576 750 l 397 447 l 397 613 l 314 613 l 314 431 l 246 431 l 246 750 l 126 750 l 126 0 l 246 0 l 246 335 l 314 335 l 314 124 l 397 124 l 397 333 b 603 0 486 321 546 250 l 729 0 b 504 414 647 314 594 386 z "},"Ң":{"ha":983,"x_min":0,"x_max":0,"o":"m 856 110 l 856 964 l 729 964 l 729 571 l 253 571 l 253 964 l 128 964 l 128 0 l 253 0 l 253 467 l 729 467 l 729 0 l 888 0 l 888 -218 l 1013 -218 l 1013 110 z "},"ң":{"ha":914,"x_min":0,"x_max":0,"o":"m 765 111 l 765 750 l 644 750 l 644 450 l 246 450 l 246 750 l 126 750 l 126 0 l 246 0 l 246 338 l 644 338 l 644 0 l 760 0 l 760 -218 l 881 -218 l 881 111 z "},"Ү":{"ha":825,"x_min":0,"x_max":0,"o":"m 349 0 l 474 0 l 474 415 l 817 964 l 679 964 l 421 528 l 413 528 l 153 964 l 8 964 l 349 414 z "},"ү":{"ha":732,"x_min":0,"x_max":0,"o":"m 317 -278 l 436 -278 l 436 3 l 718 750 l 597 750 l 381 142 l 372 142 l 143 750 l 14 750 l 317 3 z "},"Ҳ":{"ha":957,"x_min":0,"x_max":0,"o":"m 764 110 l 521 499 l 822 964 l 686 964 l 442 568 l 433 568 l 204 964 l 58 964 l 349 490 l 32 0 l 172 0 l 432 414 l 440 414 l 688 0 l 799 0 l 799 -218 l 924 -218 l 924 110 z "},"ҳ":{"ha":717,"x_min":0,"x_max":0,"o":"m 624 111 l 442 385 l 683 750 l 551 750 l 365 454 l 357 454 l 168 750 l 35 750 l 278 382 l 19 0 l 153 0 l 356 310 l 364 310 l 561 0 l 600 0 l 600 -218 l 721 -218 l 721 111 z "},"Ҹ":{"ha":908,"x_min":0,"x_max":0,"o":"m 656 964 l 656 485 b 485 458 597 471 539 463 l 485 699 l 393 699 l 393 458 b 221 676 267 467 221 526 l 221 964 l 96 964 l 96 672 b 393 353 96 463 185 361 l 393 136 l 485 136 l 485 356 b 656 381 546 360 607 369 l 656 0 l 781 0 l 781 964 z "},"ҹ":{"ha":843,"x_min":0,"x_max":0,"o":"m 597 750 l 597 474 b 447 332 567 379 513 344 l 447 544 l 364 544 l 364 326 b 229 510 253 331 229 399 l 229 750 l 110 750 l 110 465 b 361 221 110 321 165 221 l 364 221 l 364 56 l 447 56 l 447 229 b 597 339 510 243 565 274 l 597 0 l 717 0 l 717 750 z "},"Һ":{"ha":908,"x_min":0,"x_max":0,"o":"m 489 611 b 253 583 410 611 318 597 l 253 964 l 128 964 l 128 0 l 253 0 l 253 479 b 479 507 332 497 410 507 b 686 288 632 507 686 450 l 686 0 l 811 0 l 811 292 b 489 611 811 510 715 611 z "},"һ":{"ha":858,"x_min":0,"x_max":0,"o":"m 486 764 b 246 643 394 764 292 739 l 246 1056 l 126 1056 l 126 0 l 246 0 l 246 507 b 474 657 288 639 379 657 b 618 475 593 657 618 590 l 618 0 l 738 0 l 738 519 b 486 764 738 663 682 764 z "},"Ӏ":{"ha":381,"x_min":0,"x_max":0,"o":"m 128 0 l 253 0 l 253 964 l 128 964 z "},"ӏ":{"ha":371,"x_min":0,"x_max":0,"o":"m 126 0 l 246 0 l 246 1056 l 126 1056 z "},"Ә":{"ha":999,"x_min":0,"x_max":0,"o":"m 454 978 b 133 919 319 978 189 950 l 133 811 b 432 874 204 846 326 874 b 768 540 685 874 765 768 l 90 497 b 82 386 83 454 82 413 b 463 -14 82 201 139 -14 b 897 482 738 -14 897 101 b 454 978 897 863 738 978 z m 464 93 b 201 403 229 93 201 238 l 768 440 b 464 93 764 226 713 93 z "},"ә":{"ha":803,"x_min":0,"x_max":0,"o":"m 374 764 b 121 719 265 764 164 742 l 121 610 b 356 658 178 638 272 658 b 596 419 538 658 594 583 l 88 388 b 81 300 82 353 81 321 b 379 -14 81 154 125 -14 b 721 375 594 -14 721 76 b 374 764 721 674 594 764 z m 381 85 b 197 301 217 85 197 186 l 596 331 b 381 85 592 178 553 85 z "},"Ө":{"ha":1032,"x_min":0,"x_max":0,"o":"m 515 978 b 100 482 243 978 100 869 b 515 -14 100 93 243 -14 b 931 482 789 -14 931 93 b 515 978 931 869 789 978 z m 515 872 b 800 538 735 872 793 765 l 232 538 b 515 872 239 765 297 872 z m 515 93 b 231 436 294 93 238 194 l 801 436 b 515 93 794 194 738 93 z "},"ө":{"ha":858,"x_min":0,"x_max":0,"o":"m 429 764 b 82 375 208 764 82 674 b 429 -14 82 76 208 -14 b 775 375 651 -14 775 76 b 429 764 775 674 651 764 z m 429 664 b 647 425 581 664 639 606 l 211 425 b 429 664 218 606 275 664 z m 429 88 b 211 329 279 88 218 146 l 647 329 b 429 88 640 146 586 88 z "},"Ẁ":{"ha":1247,"x_min":0,"x_max":0,"o":"m 585 1035 l 689 1035 l 529 1226 l 363 1226 z m 261 0 l 419 0 l 619 714 l 628 714 l 824 0 l 982 0 l 1211 964 l 1085 964 l 906 146 l 897 146 l 701 851 l 551 851 l 356 146 l 347 146 l 167 964 l 36 964 z "},"ẁ":{"ha":1150,"x_min":0,"x_max":0,"o":"m 543 854 l 640 854 l 524 1046 l 369 1046 z m 233 0 l 382 0 l 569 615 l 578 615 l 764 0 l 913 0 l 1121 750 l 1003 750 l 844 121 l 836 121 l 644 750 l 503 750 l 317 121 l 308 121 l 150 750 l 31 750 z "},"Ẃ":{"ha":1247,"x_min":0,"x_max":0,"o":"m 560 1035 l 664 1035 l 886 1226 l 718 1226 z m 261 0 l 419 0 l 619 714 l 628 714 l 824 0 l 982 0 l 1211 964 l 1085 964 l 906 146 l 897 146 l 701 851 l 551 851 l 356 146 l 347 146 l 167 964 l 36 964 z "},"ẃ":{"ha":1150,"x_min":0,"x_max":0,"o":"m 511 854 l 608 854 l 781 1046 l 628 1046 z m 233 0 l 382 0 l 569 615 l 578 615 l 764 0 l 913 0 l 1121 750 l 1003 750 l 844 121 l 836 121 l 644 750 l 503 750 l 317 121 l 308 121 l 150 750 l 31 750 z "},"Ẅ":{"ha":1247,"x_min":0,"x_max":0,"o":"m 490 1049 b 561 1118 540 1049 561 1058 b 490 1189 561 1181 540 1189 b 419 1118 439 1189 419 1181 b 490 1049 419 1058 439 1049 z m 761 1049 b 831 1118 810 1049 831 1058 b 761 1189 831 1181 810 1189 b 689 1118 708 1189 689 1181 b 761 1049 689 1058 708 1049 z m 261 0 l 419 0 l 619 714 l 628 714 l 824 0 l 982 0 l 1211 964 l 1085 964 l 906 146 l 897 146 l 701 851 l 551 851 l 356 146 l 347 146 l 167 964 l 36 964 z "},"ẅ":{"ha":1150,"x_min":0,"x_max":0,"o":"m 457 888 b 526 958 506 888 526 897 b 457 1028 526 1019 506 1028 b 385 958 404 1028 385 1019 b 457 888 385 897 404 888 z m 697 888 b 768 958 747 888 768 897 b 697 1028 768 1019 747 1028 b 626 958 646 1028 626 1019 b 697 888 626 897 646 888 z m 233 0 l 382 0 l 569 615 l 578 615 l 764 0 l 913 0 l 1121 750 l 1003 750 l 844 121 l 836 121 l 644 750 l 503 750 l 317 121 l 308 121 l 150 750 l 31 750 z "},"ẞ":{"ha":1001,"x_min":0,"x_max":0,"o":"m 706 553 b 560 718 575 593 560 640 b 697 856 560 796 603 856 b 885 833 779 856 842 844 l 885 944 b 542 978 792 967 678 978 b 124 650 182 978 124 831 l 124 0 l 249 0 l 249 619 b 521 872 249 801 307 868 b 439 699 468 838 439 781 b 629 456 439 567 489 500 b 800 258 771 411 800 374 b 646 96 800 139 747 96 b 413 139 554 96 460 118 l 413 24 b 646 -14 453 7 549 -14 b 922 260 826 -14 922 72 b 706 553 922 440 864 506 z "},"Ỳ":{"ha":825,"x_min":0,"x_max":0,"o":"m 374 1035 l 478 1035 l 318 1226 l 151 1226 z m 349 0 l 474 0 l 474 415 l 817 964 l 679 964 l 421 528 l 413 528 l 153 964 l 8 964 l 349 414 z "},"ỳ":{"ha":732,"x_min":0,"x_max":0,"o":"m 333 854 l 431 854 l 314 1046 l 160 1046 z m 93 -278 b 449 25 314 -278 378 -162 l 718 750 l 597 750 l 381 128 l 372 128 l 143 750 l 14 750 l 314 1 b 93 -175 276 -119 224 -175 z "},"‐":{"ha":611,"x_min":0,"x_max":0,"o":"m 100 376 l 510 376 l 510 476 l 100 476 z "},"–":{"ha":688,"x_min":0,"x_max":0,"o":"m 97 379 l 590 379 l 590 474 l 97 474 z "},"—":{"ha":950,"x_min":0,"x_max":0,"o":"m 97 379 l 854 379 l 854 474 l 97 474 z "},"―":{"ha":950,"x_min":0,"x_max":0,"o":"m 97 379 l 854 379 l 854 474 l 97 474 z "},"‗":{"ha":694,"x_min":0,"x_max":0,"o":"m 0 -187 l 694 -187 l 694 -89 l 0 -89 z m 0 -396 l 694 -396 l 694 -299 l 0 -299 z "},"‘":{"ha":375,"x_min":0,"x_max":0,"o":"m 90 700 l 208 700 b 285 1056 208 808 244 947 l 196 1056 b 90 700 144 953 90 801 z "},"’":{"ha":375,"x_min":0,"x_max":0,"o":"m 90 700 l 179 700 b 285 1056 231 803 285 956 l 167 1056 b 90 700 167 949 131 808 z "},"‚":{"ha":375,"x_min":0,"x_max":0,"o":"m 90 -203 l 179 -203 b 285 153 231 -100 285 51 l 167 153 b 90 -203 167 44 131 -94 z "},"‛":{"ha":375,"x_min":0,"x_max":0,"o":"m 196 700 l 285 700 b 208 1056 244 808 208 949 l 90 1056 b 196 700 90 956 144 803 z "},"“":{"ha":650,"x_min":0,"x_max":0,"o":"m 90 700 l 208 700 b 285 1056 208 808 244 947 l 196 1056 b 90 700 144 953 90 801 z m 367 700 l 483 700 b 560 1056 483 808 519 947 l 471 1056 b 367 700 419 953 367 801 z "},"”":{"ha":650,"x_min":0,"x_max":0,"o":"m 90 700 l 179 700 b 285 1056 231 803 285 956 l 167 1056 b 90 700 167 949 131 808 z m 367 700 l 454 700 b 560 1056 506 803 560 956 l 443 1056 b 367 700 443 949 407 808 z "},"„":{"ha":650,"x_min":0,"x_max":0,"o":"m 90 -203 l 179 -203 b 285 153 231 -100 285 51 l 167 153 b 90 -203 167 44 131 -94 z m 367 -203 l 454 -203 b 560 153 506 -100 560 51 l 443 153 b 367 -203 443 44 407 -94 z "},"†":{"ha":694,"x_min":0,"x_max":0,"o":"m 618 703 l 403 703 l 403 978 l 292 978 l 292 703 l 75 703 l 75 604 l 292 604 l 292 0 l 403 0 l 403 604 l 618 604 z "},"‡":{"ha":694,"x_min":0,"x_max":0,"o":"m 618 646 l 618 744 l 403 744 l 403 978 l 292 978 l 292 744 l 75 744 l 75 646 l 292 646 l 292 469 l 75 469 l 75 371 l 292 371 l 292 0 l 403 0 l 403 371 l 618 371 l 618 469 l 403 469 l 403 646 z "},"•":{"ha":428,"x_min":0,"x_max":0,"o":"m 214 275 b 368 429 325 275 368 296 b 214 582 368 563 325 582 b 58 429 100 582 58 563 b 214 275 58 296 100 275 z "},"…":{"ha":1258,"x_min":0,"x_max":0,"o":"m 210 -8 b 299 81 274 -8 299 3 b 210 167 299 156 274 167 b 121 81 144 167 121 156 b 210 -8 121 3 144 -8 z m 629 -8 b 717 81 693 -8 717 3 b 629 167 717 156 693 167 b 540 81 564 167 540 156 b 629 -8 540 3 564 -8 z m 1049 -8 b 1136 81 1113 -8 1136 3 b 1049 167 1136 156 1113 167 b 960 81 983 167 960 156 b 1049 -8 960 3 983 -8 z "},"‰":{"ha":1631,"x_min":0,"x_max":0,"o":"m 292 449 b 489 713 413 449 489 507 b 292 978 489 918 413 978 b 94 713 171 978 94 918 b 292 449 94 507 171 449 z m 253 0 l 344 0 l 885 964 l 792 964 z m 292 521 b 188 713 215 521 188 563 b 292 901 188 861 215 901 b 397 713 371 901 397 861 b 292 521 397 563 371 521 z m 849 -14 b 1046 250 969 -14 1046 44 b 849 515 1046 456 969 515 b 650 250 728 515 650 456 b 849 -14 650 44 728 -14 z m 1339 -14 b 1538 250 1461 -14 1538 44 b 1339 515 1538 456 1461 515 b 1142 250 1218 515 1142 456 b 1339 -14 1142 44 1218 -14 z m 849 58 b 744 250 772 58 744 100 b 849 439 744 399 772 439 b 953 250 928 439 953 399 b 849 58 953 100 928 58 z m 1339 58 b 1236 250 1263 58 1236 100 b 1339 439 1236 399 1263 439 b 1444 250 1418 439 1444 399 b 1339 58 1444 100 1418 58 z "},"′":{"ha":356,"x_min":0,"x_max":0,"o":"m 126 644 l 201 644 l 282 1056 l 143 1056 z "},"″":{"ha":656,"x_min":0,"x_max":0,"o":"m 126 644 l 201 644 l 282 1056 l 143 1056 z m 428 644 l 503 644 l 582 1056 l 444 1056 z "},"‹":{"ha":433,"x_min":0,"x_max":0,"o":"m 243 139 l 392 139 l 189 382 l 392 625 l 243 625 l 42 382 z "},"›":{"ha":433,"x_min":0,"x_max":0,"o":"m 42 139 l 189 139 l 392 382 l 189 625 l 42 625 l 243 382 z "},"‼":{"ha":818,"x_min":0,"x_max":0,"o":"m 201 281 l 296 281 l 317 964 l 181 964 z m 524 281 l 618 281 l 639 964 l 504 964 z m 247 -8 b 336 79 311 -8 336 3 b 247 167 336 154 311 167 b 160 79 183 167 160 154 b 247 -8 160 3 183 -8 z m 571 -8 b 658 79 633 -8 658 3 b 571 167 658 154 633 167 b 482 79 506 167 482 154 b 571 -8 482 3 506 -8 z "},"‽":{"ha":601,"x_min":0,"x_max":0,"o":"m 204 263 l 318 263 l 318 318 b 569 721 318 488 569 446 b 268 975 569 903 485 975 b 57 940 172 975 101 956 l 57 833 b 190 861 94 847 143 858 z m 296 475 l 306 864 b 443 721 396 861 443 831 b 350 536 443 646 432 608 b 296 475 326 514 307 494 z m 267 -8 b 356 79 331 -8 356 3 b 267 167 356 154 331 167 b 179 79 203 167 179 154 b 267 -8 179 3 203 -8 z "},"‾":{"ha":694,"x_min":0,"x_max":0,"o":"m 0 1113 l 694 1113 l 694 1211 l 0 1211 z "},"⁄":{"ha":167,"x_min":0,"x_max":0,"o":"m -247 0 l -126 0 l 414 964 l 294 964 z "},"⁰":{"ha":564,"x_min":0,"x_max":0,"o":"m 296 564 b 515 863 431 564 515 624 b 296 1158 515 1099 432 1158 b 74 863 160 1158 74 1099 b 296 564 74 624 160 564 z m 296 653 b 178 861 213 653 178 693 b 296 1071 178 1029 213 1071 b 413 861 378 1071 413 1029 b 296 653 413 693 378 653 z "},"⁴":{"ha":564,"x_min":0,"x_max":0,"o":"m 507 790 l 438 790 l 438 1150 l 314 1150 l 49 804 l 49 703 l 338 703 l 338 572 l 438 572 l 438 703 l 507 703 z m 139 790 l 139 796 l 332 1042 l 338 1042 l 338 790 z "},"⁵":{"ha":564,"x_min":0,"x_max":0,"o":"m 253 564 b 511 757 411 564 511 622 b 293 933 511 878 439 933 b 221 928 265 933 244 932 l 244 1063 l 469 1063 l 469 1150 l 163 1150 l 118 843 b 244 856 163 851 213 856 b 403 756 358 856 403 829 b 246 650 403 676 338 650 b 119 665 197 650 163 656 l 119 575 b 253 564 161 568 200 564 z "},"⁶":{"ha":564,"x_min":0,"x_max":0,"o":"m 294 564 b 508 761 450 564 508 646 b 322 947 508 881 444 947 b 190 907 264 947 219 931 l 188 907 b 428 1069 201 1007 283 1069 l 428 1158 b 79 794 183 1158 79 1015 b 294 564 79 617 175 564 z m 293 646 b 178 769 218 646 178 690 b 301 869 178 826 215 869 b 411 761 371 869 411 832 b 293 646 411 686 372 646 z "},"⁷":{"ha":564,"x_min":0,"x_max":0,"o":"m 140 572 l 251 572 l 492 1049 l 492 1150 l 75 1150 l 75 1063 l 393 1063 z "},"⁸":{"ha":564,"x_min":0,"x_max":0,"o":"m 290 564 b 511 724 429 564 511 615 b 403 871 511 813 464 853 l 403 874 b 492 1004 460 896 492 933 b 290 1160 492 1100 426 1160 b 89 1004 156 1160 89 1100 b 174 874 89 931 122 896 l 174 871 b 69 725 122 853 69 815 b 290 564 69 615 153 564 z m 290 910 b 182 996 211 910 182 946 b 290 1081 182 1051 219 1081 b 399 996 361 1081 399 1049 b 290 910 399 946 369 910 z m 290 647 b 167 733 206 647 167 678 b 290 829 167 799 210 829 b 415 733 372 829 415 799 b 290 647 415 678 376 647 z "},"⁹":{"ha":564,"x_min":0,"x_max":0,"o":"m 161 564 b 508 919 418 564 508 694 b 294 1158 508 1103 415 1158 b 79 958 140 1158 79 1075 b 272 774 79 839 146 774 b 399 810 326 774 371 788 l 401 810 b 161 653 390 711 304 653 z m 288 849 b 175 960 217 849 175 888 b 294 1076 175 1033 215 1076 b 410 949 371 1076 410 1028 b 288 849 410 892 374 849 z "},"⁺":{"ha":565,"x_min":0,"x_max":0,"o":"m 508 899 l 325 899 l 325 1082 l 238 1082 l 238 899 l 56 899 l 56 813 l 238 813 l 238 628 l 325 628 l 325 813 l 508 813 z "},"⁻":{"ha":565,"x_min":0,"x_max":0,"o":"m 56 813 l 508 813 l 508 899 l 56 899 z "},"⁼":{"ha":565,"x_min":0,"x_max":0,"o":"m 56 925 l 508 925 l 508 1011 l 56 1011 z m 56 700 l 508 700 l 508 786 l 56 786 z "},"⁽":{"ha":313,"x_min":0,"x_max":0,"o":"m 199 483 l 289 483 b 169 857 208 610 169 729 b 292 1229 169 981 207 1097 l 200 1229 b 75 851 119 1113 75 989 b 199 483 75 721 118 599 z "},"⁾":{"ha":313,"x_min":0,"x_max":0,"o":"m 21 483 l 113 483 b 238 861 193 600 238 724 b 114 1229 238 992 194 1114 l 24 1229 b 143 856 104 1103 143 983 b 21 483 143 732 106 615 z "},"ⁿ":{"ha":675,"x_min":0,"x_max":0,"o":"m 393 850 b 238 785 325 850 265 829 l 238 842 l 126 842 l 126 392 l 238 392 l 238 690 b 356 758 256 742 299 758 b 443 669 435 758 443 724 l 443 392 l 554 392 l 554 700 b 393 850 554 788 524 850 z "},"₀":{"ha":564,"x_min":0,"x_max":0,"o":"m 296 -203 b 515 96 431 -203 515 -143 b 296 392 515 332 432 392 b 74 96 160 392 74 332 b 296 -203 74 -143 160 -203 z m 296 -114 b 178 94 213 -114 178 -74 b 296 304 178 263 213 304 b 413 94 378 304 413 263 b 296 -114 413 -74 378 -114 z "},"₁":{"ha":564,"x_min":0,"x_max":0,"o":"m 269 -194 l 374 -194 l 374 383 l 300 383 l 114 350 l 114 261 l 269 289 z "},"₂":{"ha":564,"x_min":0,"x_max":0,"o":"m 79 -194 l 504 -194 l 504 -107 l 211 -107 l 211 -103 l 251 -72 b 483 231 426 58 483 126 b 274 392 483 344 403 392 b 119 372 214 392 165 385 l 119 285 b 257 306 171 300 219 306 b 376 213 332 306 376 281 b 79 -103 376 139 311 65 z "},"₃":{"ha":564,"x_min":0,"x_max":0,"o":"m 239 -203 b 493 -36 407 -203 493 -149 b 369 104 493 40 453 92 l 369 110 b 476 238 436 129 476 171 b 258 392 476 350 394 392 b 125 376 208 392 156 385 l 125 290 b 246 307 161 301 213 307 b 374 231 326 307 374 288 b 219 144 374 169 317 144 l 169 144 l 169 63 l 218 63 b 385 -26 315 63 385 49 b 235 -117 385 -97 321 -117 b 97 -101 186 -117 146 -111 l 97 -192 b 239 -203 139 -199 183 -203 z "},"₄":{"ha":564,"x_min":0,"x_max":0,"o":"m 507 24 l 438 24 l 438 383 l 314 383 l 49 38 l 49 -64 l 338 -64 l 338 -194 l 438 -194 l 438 -64 l 507 -64 z m 139 24 l 139 29 l 332 275 l 338 275 l 338 24 z "},"₅":{"ha":564,"x_min":0,"x_max":0,"o":"m 253 -203 b 511 -10 411 -203 511 -144 b 293 167 511 111 439 167 b 221 161 265 167 244 165 l 244 296 l 469 296 l 469 383 l 163 383 l 118 76 b 244 89 163 85 213 89 b 403 -11 358 89 403 63 b 246 -117 403 -90 338 -117 b 119 -101 197 -117 163 -111 l 119 -192 b 253 -203 161 -199 200 -203 z "},"₆":{"ha":564,"x_min":0,"x_max":0,"o":"m 294 -203 b 508 -6 450 -203 508 -121 b 322 181 508 114 444 181 b 190 140 264 181 219 164 l 188 140 b 428 303 201 240 283 303 l 428 392 b 79 28 183 392 79 249 b 294 -203 79 -150 175 -203 z m 293 -121 b 178 3 218 -121 178 -76 b 301 103 178 60 215 103 b 411 -6 371 103 411 65 b 293 -121 411 -81 372 -121 z "},"₇":{"ha":564,"x_min":0,"x_max":0,"o":"m 140 -194 l 251 -194 l 492 282 l 492 383 l 75 383 l 75 296 l 393 296 z "},"₈":{"ha":564,"x_min":0,"x_max":0,"o":"m 290 -203 b 511 -43 429 -203 511 -151 b 403 104 511 46 464 86 l 403 107 b 492 238 460 129 492 167 b 290 393 492 333 426 393 b 89 238 156 393 89 333 b 174 107 89 164 122 129 l 174 104 b 69 -42 122 86 69 49 b 290 -203 69 -151 153 -203 z m 290 143 b 182 229 211 143 182 179 b 290 314 182 285 219 314 b 399 229 361 314 399 282 b 290 143 399 179 369 143 z m 290 -119 b 167 -33 206 -119 167 -89 b 290 63 167 32 210 63 b 415 -33 372 63 415 32 b 290 -119 415 -89 376 -119 z "},"₉":{"ha":564,"x_min":0,"x_max":0,"o":"m 161 -203 b 508 153 418 -203 508 -72 b 294 392 508 336 415 392 b 79 192 140 392 79 308 b 272 7 79 72 146 7 b 399 43 326 7 371 21 l 401 43 b 161 -114 390 -56 304 -114 z m 288 82 b 175 193 217 82 175 121 b 294 310 175 267 215 310 b 410 182 371 310 410 261 b 288 82 410 125 374 82 z "},"₊":{"ha":565,"x_min":0,"x_max":0,"o":"m 508 149 l 325 149 l 325 332 l 238 332 l 238 149 l 56 149 l 56 63 l 238 63 l 238 -122 l 325 -122 l 325 63 l 508 63 z "},"₋":{"ha":565,"x_min":0,"x_max":0,"o":"m 56 63 l 508 63 l 508 149 l 56 149 z "},"₌":{"ha":565,"x_min":0,"x_max":0,"o":"m 56 175 l 508 175 l 508 261 l 56 261 z m 56 -50 l 508 -50 l 508 36 l 56 36 z "},"₍":{"ha":313,"x_min":0,"x_max":0,"o":"m 199 -267 l 289 -267 b 169 107 208 -140 169 -21 b 292 479 169 231 207 347 l 200 479 b 75 101 119 363 75 239 b 199 -267 75 -29 118 -151 z "},"₎":{"ha":313,"x_min":0,"x_max":0,"o":"m 21 -267 l 113 -267 b 238 111 193 -150 238 -26 b 114 479 238 242 194 364 l 24 479 b 143 106 104 353 143 233 b 21 -267 143 -18 106 -135 z "},"ƒ":{"ha":799,"x_min":0,"x_max":0,"o":"m 592 878 b 676 871 624 878 654 875 l 676 967 b 593 974 650 971 621 974 b 340 669 439 974 340 929 l 340 594 l 179 594 l 179 496 l 340 496 l 340 303 b 207 82 340 126 311 82 b 122 89 175 82 144 85 l 122 -8 b 206 -15 149 -12 178 -15 b 460 289 360 -15 460 29 l 460 496 l 628 496 l 628 594 l 460 594 l 460 656 b 592 878 460 832 488 878 z "},"₣":{"ha":732,"x_min":0,"x_max":0,"o":"m 664 853 l 664 964 l 128 964 l 128 289 l 11 289 l 11 200 l 128 200 l 128 0 l 253 0 l 253 200 l 481 200 l 481 289 l 253 289 l 253 458 l 636 458 l 636 568 l 253 568 l 253 853 z "},"₤":{"ha":833,"x_min":0,"x_max":0,"o":"m 293 110 b 375 332 347 183 375 257 l 375 342 l 589 342 l 589 431 l 365 431 b 338 542 358 469 347 506 l 589 542 l 589 631 l 318 631 b 313 699 315 653 313 675 b 522 885 313 819 376 885 b 693 864 576 885 632 879 l 693 961 b 518 982 632 975 574 982 b 186 694 310 982 186 872 b 193 631 186 674 189 653 l 93 631 l 93 542 l 215 542 b 244 431 225 506 236 468 l 93 431 l 93 342 l 257 342 l 257 329 b 146 92 257 243 219 164 l 146 0 l 726 0 l 726 110 z "},"₧":{"ha":799,"x_min":0,"x_max":0,"o":"m 782 682 l 678 682 b 328 964 667 882 581 964 l 132 964 l 132 682 l 19 682 l 19 581 l 132 581 l 132 0 l 257 0 l 257 300 l 328 300 b 678 581 557 300 663 375 l 782 581 z m 257 857 l 318 857 b 551 682 478 857 540 813 l 257 682 z m 318 404 l 257 404 l 257 581 l 551 581 b 318 404 539 440 476 404 z "},"€":{"ha":799,"x_min":0,"x_max":0,"o":"m 500 97 b 267 346 374 97 290 153 l 586 346 l 586 433 l 260 433 b 258 485 258 450 258 467 b 260 543 258 506 258 525 l 586 543 l 586 632 l 269 632 b 513 868 299 807 385 868 b 692 840 585 868 642 856 l 692 954 b 508 978 642 968 586 978 b 140 632 326 978 179 889 l 33 632 l 33 543 l 131 543 b 129 482 129 524 129 503 b 131 433 129 465 129 449 l 33 433 l 33 346 l 136 346 b 496 -14 171 57 317 -14 b 701 21 582 -14 649 1 l 701 129 b 500 97 642 108 582 97 z "},"₹":{"ha":799,"x_min":0,"x_max":0,"o":"m 708 964 l 100 964 l 100 857 l 182 857 b 432 715 342 857 417 833 l 100 715 l 100 608 l 432 608 b 182 467 415 485 339 467 l 100 467 l 100 364 l 429 0 l 585 0 l 244 365 b 558 608 439 375 540 439 l 708 608 l 708 715 l 558 715 b 486 857 550 782 526 826 l 708 857 z "},"₺":{"ha":799,"x_min":0,"x_max":0,"o":"m 629 368 b 389 83 613 197 538 83 b 260 100 342 83 299 90 l 260 364 l 497 500 l 453 576 l 260 465 l 260 592 l 494 726 l 450 803 l 260 693 l 260 964 l 135 964 l 135 621 l -1 543 l 43 467 l 135 519 l 135 393 l 1 317 l 46 240 l 135 292 l 135 17 b 381 -26 201 -8 282 -26 b 742 357 606 -26 728 135 z "},"₽":{"ha":799,"x_min":0,"x_max":0,"o":"m 422 426 b 742 699 658 426 742 514 b 422 964 742 869 681 964 l 150 964 l 150 529 l 28 529 l 28 426 l 150 426 l 150 286 l 28 286 l 28 182 l 150 182 l 150 0 l 275 0 l 275 182 l 560 182 l 560 286 l 275 286 l 275 426 z m 275 857 l 414 857 b 615 699 579 857 615 803 b 414 529 615 576 579 529 l 275 529 z "},"℅":{"ha":1146,"x_min":0,"x_max":0,"o":"m 299 469 b 431 489 346 469 403 478 l 431 578 b 307 558 394 564 351 558 b 171 728 206 558 171 596 b 307 900 171 860 206 900 b 429 879 354 900 393 892 l 429 968 b 299 986 401 978 354 986 b 68 728 153 986 68 926 b 299 469 68 531 153 469 z m 207 0 l 326 0 l 867 964 l 749 964 z m 847 -14 b 1076 244 994 -14 1076 47 b 847 503 1076 443 994 503 b 617 244 700 503 617 443 b 847 -14 617 47 700 -14 z m 847 72 b 715 244 750 72 715 113 b 847 418 715 378 746 418 b 979 244 946 418 979 378 b 847 72 979 113 949 72 z "},"ℓ":{"ha":535,"x_min":0,"x_max":0,"o":"m 338 -19 b 490 33 396 -19 453 4 l 490 139 b 351 75 442 97 396 75 b 271 174 299 75 271 107 l 271 401 b 489 817 422 554 489 669 b 338 990 489 931 438 990 b 168 778 226 990 168 918 l 168 436 l 18 289 l 82 225 l 168 310 l 168 149 b 338 -19 168 42 231 -19 z m 271 542 l 271 779 b 333 900 271 861 292 900 b 385 804 368 900 385 871 b 271 542 385 701 349 631 z "},"№":{"ha":1633,"x_min":0,"x_max":0,"o":"m 128 0 l 250 0 l 250 849 l 258 849 l 729 0 l 893 0 l 893 964 l 769 964 l 769 164 l 761 164 l 324 964 l 128 964 z m 1279 225 b 1560 524 1458 225 1560 294 b 1289 811 1560 746 1463 811 b 1007 515 1108 811 1007 744 b 1279 225 1007 293 1104 225 z m 1279 326 b 1133 515 1172 326 1133 371 b 1289 711 1133 665 1171 711 b 1433 524 1396 711 1433 667 b 1279 326 1433 374 1397 326 z m 1074 1 l 1492 1 l 1492 101 l 1074 101 z "},"℗":{"ha":1119,"x_min":0,"x_max":0,"o":"m 558 -18 b 1060 488 849 -18 1060 192 b 563 983 1060 778 853 983 b 60 479 264 983 60 772 b 558 -18 60 185 264 -18 z m 560 68 b 150 483 311 68 150 232 b 560 897 150 722 314 897 b 968 485 807 897 968 733 b 560 68 968 242 804 68 z m 371 179 l 474 179 l 474 367 l 574 367 b 825 578 746 367 825 428 b 574 785 825 718 761 785 l 371 785 z m 474 456 l 474 696 l 553 696 b 721 578 681 696 721 664 b 553 456 721 483 681 456 z "},"™":{"ha":1254,"x_min":0,"x_max":0,"o":"m 474 969 l 15 969 l 15 868 l 186 868 l 186 392 l 303 392 l 303 868 l 474 868 z m 1003 968 l 876 636 l 871 636 l 746 968 l 563 968 l 563 390 l 676 390 l 676 854 l 681 854 l 811 503 l 931 503 l 1061 854 l 1067 854 l 1067 390 l 1182 390 l 1182 968 z "},"℮":{"ha":1254,"x_min":0,"x_max":0,"o":"m 628 -4 b 1063 181 846 -4 958 56 l 969 181 b 624 31 878 94 775 31 b 301 168 485 31 371 81 b 292 207 294 176 292 194 l 292 451 b 299 458 292 457 294 458 l 1156 458 b 625 949 1156 685 1032 949 b 97 461 296 949 97 711 b 628 -4 97 213 290 -4 z m 299 486 b 292 493 294 486 292 488 l 292 744 b 304 781 292 758 296 772 b 621 915 397 876 517 915 b 947 778 714 915 858 889 b 961 743 956 768 961 756 l 961 493 b 954 486 961 488 958 486 z "},"⅛":{"ha":1292,"x_min":0,"x_max":0,"o":"m 269 392 l 374 392 l 374 969 l 300 969 l 114 936 l 114 847 l 269 875 z m 296 0 l 417 0 l 957 964 l 838 964 z m 1000 -8 b 1221 151 1139 -8 1221 43 b 1113 299 1221 240 1174 281 l 1113 301 b 1201 432 1169 324 1201 361 b 1000 588 1201 528 1136 588 b 799 432 865 588 799 528 b 883 301 799 358 832 324 l 883 299 b 779 153 832 281 779 243 b 1000 -8 779 43 863 -8 z m 1000 338 b 892 424 921 338 892 374 b 1000 508 892 479 929 508 b 1108 424 1071 508 1108 476 b 1000 338 1108 374 1079 338 z m 1000 75 b 876 161 915 75 876 106 b 1000 257 876 226 919 257 b 1125 161 1082 257 1125 226 b 1000 75 1125 106 1086 75 z "},"⅜":{"ha":1293,"x_min":0,"x_max":0,"o":"m 239 383 b 493 550 407 383 493 438 b 369 690 493 626 453 678 l 369 696 b 476 824 436 715 476 757 b 258 978 476 936 394 978 b 125 963 208 978 156 971 l 125 876 b 246 893 161 888 213 893 b 374 817 326 893 374 874 b 219 731 374 756 317 731 l 169 731 l 169 649 l 218 649 b 385 560 315 649 385 635 b 235 469 385 489 321 469 b 97 485 186 469 146 475 l 97 394 b 239 383 139 388 183 383 z m 317 0 l 438 0 l 978 964 l 858 964 z m 1019 -8 b 1240 151 1158 -8 1240 43 b 1132 299 1240 240 1193 281 l 1132 301 b 1221 432 1189 324 1221 361 b 1019 588 1221 528 1156 588 b 818 432 885 588 818 528 b 903 301 818 358 851 324 l 903 299 b 799 153 851 281 799 243 b 1019 -8 799 43 882 -8 z m 1019 338 b 911 424 940 338 911 374 b 1019 508 911 479 949 508 b 1128 424 1090 508 1128 476 b 1019 338 1128 374 1099 338 z m 1019 75 b 896 161 935 75 896 106 b 1019 257 896 226 939 257 b 1144 161 1101 257 1144 226 b 1019 75 1144 106 1106 75 z "},"⅝":{"ha":1293,"x_min":0,"x_max":0,"o":"m 253 383 b 511 576 411 383 511 442 b 293 753 511 697 439 753 b 221 747 265 753 244 751 l 244 882 l 469 882 l 469 969 l 163 969 l 118 663 b 244 675 163 671 213 675 b 403 575 358 675 403 649 b 246 469 403 496 338 469 b 119 485 197 469 163 475 l 119 394 b 253 383 161 388 200 383 z m 317 0 l 438 0 l 978 964 l 858 964 z m 1019 -8 b 1240 151 1158 -8 1240 43 b 1132 299 1240 240 1193 281 l 1132 301 b 1221 432 1189 324 1221 361 b 1019 588 1221 528 1156 588 b 818 432 885 588 818 528 b 903 301 818 358 851 324 l 903 299 b 799 153 851 281 799 243 b 1019 -8 799 43 882 -8 z m 1019 338 b 911 424 940 338 911 374 b 1019 508 911 479 949 508 b 1128 424 1090 508 1128 476 b 1019 338 1128 374 1099 338 z m 1019 75 b 896 161 935 75 896 106 b 1019 257 896 226 939 257 b 1144 161 1101 257 1144 226 b 1019 75 1144 106 1106 75 z "},"⅞":{"ha":1210,"x_min":0,"x_max":0,"o":"m 140 392 l 251 392 l 492 868 l 492 969 l 75 969 l 75 882 l 393 882 z m 233 0 l 354 0 l 894 964 l 775 964 z m 938 -8 b 1157 151 1076 -8 1157 43 b 1049 299 1157 240 1110 281 l 1049 301 b 1139 432 1106 324 1139 361 b 938 588 1139 528 1074 588 b 736 432 803 588 736 528 b 821 301 736 358 769 324 l 821 299 b 717 153 769 281 717 243 b 938 -8 717 43 799 -8 z m 938 338 b 829 424 858 338 829 374 b 938 508 829 479 867 508 b 1046 424 1008 508 1046 476 b 938 338 1046 374 1017 338 z m 938 75 b 814 161 853 75 814 106 b 938 257 814 226 857 257 b 1063 161 1019 257 1063 226 b 938 75 1063 106 1024 75 z "},"Ω":{"ha":1032,"x_min":0,"x_max":0,"o":"m 114 0 l 426 0 l 426 90 b 231 526 276 244 231 369 b 515 872 231 717 281 872 b 801 526 751 872 801 717 b 604 90 801 369 754 244 l 604 0 l 918 0 l 918 99 l 744 99 b 929 542 856 217 929 347 b 515 978 929 838 789 978 b 101 542 243 978 101 838 b 286 99 101 347 175 217 l 114 99 z "},"∂":{"ha":815,"x_min":0,"x_max":0,"o":"m 382 -18 b 713 514 597 -18 713 174 b 356 1022 713 821 583 1022 b 136 939 272 1022 203 994 l 196 863 b 357 929 253 907 308 929 b 601 499 547 929 601 735 b 375 607 540 571 464 607 b 92 301 207 607 92 478 b 382 -18 92 119 215 -18 z m 385 72 b 200 297 274 72 200 174 b 388 514 200 419 272 514 b 596 396 465 514 532 474 b 385 72 596 233 517 72 z "},"Δ":{"ha":926,"x_min":0,"x_max":0,"o":"m 547 964 l 381 964 l 64 128 l 64 0 l 863 0 l 863 128 z m 185 114 l 456 847 l 472 847 l 738 114 z "},"∏":{"ha":983,"x_min":0,"x_max":0,"o":"m 983 964 l 0 964 l 0 853 l 142 853 l 142 -278 l 267 -278 l 267 853 l 715 853 l 715 -278 l 842 -278 l 842 853 l 983 853 z "},"∑":{"ha":828,"x_min":0,"x_max":0,"o":"m 81 -278 l 768 -278 l 768 -165 l 206 -165 l 539 357 l 231 853 l 733 853 l 733 964 l 97 964 l 97 844 l 400 356 l 81 -151 z "},"−":{"ha":767,"x_min":0,"x_max":0,"o":"m 49 358 l 718 358 l 718 476 l 49 476 z "},"∕":{"ha":767,"x_min":0,"x_max":0,"o":"m 38 -42 l 157 -42 l 728 1006 l 607 1006 z "},"∙":{"ha":767,"x_min":0,"x_max":0,"o":"m 383 325 b 472 414 447 325 472 338 b 383 501 472 489 447 501 b 294 414 318 501 294 489 b 383 325 294 338 318 325 z "},"√":{"ha":839,"x_min":0,"x_max":0,"o":"m 376 -278 l 489 -278 l 751 964 l 639 964 l 417 -118 l 203 332 l 38 254 l 81 165 l 147 196 z "},"∞":{"ha":943,"x_min":0,"x_max":0,"o":"m 225 139 b 472 300 318 139 381 200 b 718 139 558 190 640 139 b 910 375 835 139 910 239 b 717 610 910 511 829 610 b 472 438 622 610 554 538 b 225 607 390 536 321 607 b 33 372 113 607 33 507 b 225 139 33 238 113 139 z m 721 226 b 532 368 667 226 603 275 b 718 521 589 443 651 521 b 822 372 786 521 822 458 b 721 226 822 292 786 226 z m 229 226 b 121 372 161 226 121 283 b 225 519 121 450 161 519 b 415 368 272 519 338 468 b 229 226 344 275 281 226 z "},"∫":{"ha":738,"x_min":0,"x_max":0,"o":"m 238 -278 b 347 -236 283 -278 321 -264 b 417 88 407 -172 417 -72 l 417 786 b 426 949 417 871 419 925 b 458 983 433 972 443 983 b 490 954 465 983 475 974 b 539 924 506 935 521 924 b 597 978 571 924 597 943 b 486 1056 597 1028 546 1056 b 354 982 431 1056 386 1031 b 306 679 322 933 306 832 l 306 1 b 296 -172 306 -86 303 -144 b 267 -212 289 -199 279 -212 b 238 -183 261 -212 251 -203 b 193 -154 224 -164 210 -154 b 140 -204 164 -154 140 -178 b 238 -278 140 -249 182 -278 z "},"≈":{"ha":833,"x_min":0,"x_max":0,"o":"m 538 467 b 728 683 647 467 717 547 l 619 692 b 538 576 613 611 583 576 b 415 628 485 576 458 596 b 231 700 374 658 317 700 b 39 482 119 700 50 618 l 147 474 b 231 589 154 554 183 589 b 351 538 281 589 308 569 b 538 467 393 507 450 467 z m 538 122 b 728 339 647 122 717 203 l 619 347 b 538 232 613 267 583 232 b 415 283 485 232 458 251 b 231 356 374 314 317 356 b 39 138 119 356 50 274 l 147 129 b 231 244 154 210 183 244 b 351 193 281 244 308 225 b 538 122 393 163 450 122 z "},"≠":{"ha":767,"x_min":0,"x_max":0,"o":"m 718 522 l 718 640 l 601 640 l 685 760 l 531 760 l 447 640 l 49 640 l 49 522 l 379 522 l 233 313 l 49 313 l 49 194 l 165 194 l 82 74 l 236 74 l 319 194 l 718 194 l 718 313 l 388 313 l 533 522 z "},"≤":{"ha":767,"x_min":0,"x_max":0,"o":"m 718 839 l 49 593 l 49 406 l 718 161 l 718 279 l 111 500 l 718 721 z m 49 -1 l 718 -1 l 718 107 l 49 107 z "},"≥":{"ha":767,"x_min":0,"x_max":0,"o":"m 49 839 l 49 721 l 656 500 l 49 279 l 49 161 l 718 406 l 718 593 z m 49 -1 l 718 -1 l 718 107 l 49 107 z "},"◊":{"ha":833,"x_min":0,"x_max":0,"o":"m 364 -146 l 468 -146 l 713 410 l 468 964 l 364 964 l 121 410 z m 415 -33 l 231 410 l 415 853 l 601 410 z "},"̦":{"ha":0,"x_min":0,"x_max":0,"o":"m -336 -278 l -249 -278 b -143 -85 -197 -221 -143 -139 l -276 -85 b -336 -278 -276 -143 -304 -218 z "},"ı":{"ha":372,"x_min":0,"x_max":0,"o":"m 126 0 l 246 0 l 246 750 l 126 750 z "},"ȷ":{"ha":372,"x_min":0,"x_max":0,"o":"m -10 -278 b 246 10 161 -278 246 -232 l 246 750 l 126 750 l 126 22 b -1 -179 126 -131 106 -179 b -97 -172 -36 -179 -72 -175 l -97 -271 b -10 -278 -68 -275 -39 -278 z "},"ₙ":{"ha":675,"x_min":0,"x_max":0,"o":"m 393 267 b 238 201 325 267 265 246 l 238 258 l 126 258 l 126 -192 l 238 -192 l 238 107 b 356 175 256 158 299 175 b 443 86 435 175 443 140 l 443 -192 l 554 -192 l 554 117 b 393 267 554 204 524 267 z "},"‑":{"ha":611,"x_min":0,"x_max":0,"o":"m 100 376 l 510 376 l 510 476 l 100 476 z "},"﻿":{"ha":0,"x_min":0,"x_max":0,"o":""},"₳":{"ha":926,"x_min":0,"x_max":0,"o":"m 896 453 l 896 542 l 700 542 l 547 964 l 381 964 l 228 542 l 31 542 l 31 453 l 194 453 l 154 342 l 31 342 l 31 256 l 124 256 l 31 0 l 158 0 l 249 256 l 676 256 l 764 0 l 896 0 l 803 256 l 896 256 l 896 342 l 772 342 l 732 453 z m 456 847 l 472 847 l 578 542 l 349 542 z m 646 342 l 278 342 l 317 453 l 608 453 z "},"₿":{"ha":861,"x_min":0,"x_max":0,"o":"m 761 275 b 589 499 761 389 719 472 l 589 504 b 729 708 690 535 729 608 b 529 956 729 850 682 931 l 529 1093 l 442 1093 l 442 964 l 406 964 l 361 964 l 361 1093 l 274 1093 l 274 964 l 128 964 l 128 0 l 274 0 l 274 -192 l 361 -192 l 361 0 l 433 0 l 442 0 l 442 -192 l 529 -192 l 529 6 b 761 275 707 29 761 125 z m 253 858 l 347 858 b 607 701 532 858 607 843 b 347 542 607 575 532 542 l 253 542 z m 382 107 l 253 107 l 253 443 l 382 443 b 636 276 578 443 636 394 b 382 107 636 139 579 107 z "},"₵":{"ha":832,"x_min":0,"x_max":0,"o":"m 543 99 l 521 99 l 521 867 b 556 868 532 868 543 868 b 761 835 640 868 706 856 l 761 950 b 553 978 704 968 642 978 l 521 978 l 521 1093 l 433 1093 l 433 968 b 100 482 226 935 100 797 b 433 -8 100 136 229 18 l 433 -192 l 521 -192 l 521 -14 l 539 -14 b 772 28 636 -14 718 4 l 772 136 b 543 99 699 111 633 99 z m 231 485 b 433 854 231 713 297 819 l 433 108 b 231 485 296 138 231 236 z "},"₡":{"ha":832,"x_min":0,"x_max":0,"o":"m 772 136 b 575 99 708 114 650 101 l 650 863 b 761 835 692 857 728 847 l 761 950 b 661 972 731 960 697 967 l 672 1093 l 586 1093 l 575 978 l 553 978 b 508 976 538 978 522 978 l 519 1093 l 433 1093 l 421 967 b 100 482 221 929 100 792 b 329 17 100 199 186 69 l 308 -192 l 394 -192 l 413 -6 b 479 -12 433 -8 456 -11 l 461 -192 l 547 -192 l 564 -14 b 772 28 650 -11 722 7 z m 424 110 l 497 865 b 556 868 515 867 535 868 l 564 868 l 489 100 b 424 110 465 103 444 106 z m 231 485 b 410 847 231 699 289 807 l 342 146 b 231 485 267 199 231 300 z "},"₢":{"ha":799,"x_min":0,"x_max":0,"o":"m 681 499 l 701 499 l 701 606 l 686 606 b 492 460 611 606 529 581 l 492 592 l 374 592 l 374 118 b 228 485 279 158 228 261 b 513 869 228 774 336 869 b 692 842 585 869 642 857 l 692 954 b 508 978 642 968 586 978 b 100 482 278 978 100 854 b 496 -14 100 79 275 -14 b 701 21 582 -14 649 1 l 701 128 b 500 96 642 107 582 96 l 492 96 l 492 336 b 681 499 526 467 601 499 z "},"₫":{"ha":882,"x_min":0,"x_max":0,"o":"m 757 946 l 757 1056 l 638 1056 l 638 946 l 394 946 l 394 850 l 638 850 l 638 619 b 393 764 607 707 540 764 b 83 375 144 764 83 581 b 393 -14 83 146 144 -14 b 638 124 529 -14 608 44 l 656 0 l 757 0 l 757 850 l 858 850 l 858 946 z m 411 88 b 211 375 235 88 211 218 b 411 664 211 521 231 664 b 642 375 592 664 642 547 b 411 88 642 196 592 88 z m 96 -194 l 765 -194 l 765 -96 l 96 -96 z "},"₯":{"ha":1789,"x_min":0,"x_max":0,"o":"m 450 976 b 75 900 292 976 169 949 l 40 767 b 210 840 89 797 146 822 l 49 0 l 379 0 b 896 585 767 0 896 283 b 450 976 896 901 700 976 z m 389 108 l 192 108 l 336 865 b 450 872 372 869 410 872 b 769 588 632 872 769 824 b 389 108 769 344 679 108 z m 1417 764 b 1046 421 1215 764 1096 676 l 910 -278 l 1025 -278 l 1101 113 b 1339 -14 1131 33 1215 -14 b 1689 357 1544 -14 1646 99 b 1706 518 1699 418 1706 474 b 1417 764 1706 674 1599 764 z m 1568 363 b 1329 82 1524 157 1471 82 b 1142 267 1215 82 1142 142 b 1151 376 1142 300 1143 332 b 1407 667 1192 583 1254 667 b 1583 507 1521 667 1583 607 b 1568 363 1583 461 1579 417 z "},"₰":{"ha":1319,"x_min":0,"x_max":0,"o":"m 1161 878 b 1244 871 1193 878 1224 875 l 1244 967 b 1161 974 1218 971 1189 974 b 908 669 1008 974 908 929 l 908 594 l 747 594 l 747 496 l 908 496 l 908 126 b 776 -96 908 -50 881 -96 b 692 -89 743 -96 714 -93 l 692 -185 b 775 -192 718 -189 747 -192 b 1028 113 928 -192 1028 -147 l 1028 496 l 1196 496 l 1196 594 l 1028 594 l 1028 656 b 1161 878 1028 832 1057 878 z m 340 964 l 128 964 l 128 0 l 253 0 l 253 342 l 340 342 b 694 656 590 342 694 429 b 340 964 694 869 613 964 z m 331 446 l 253 446 l 253 856 l 331 856 b 565 656 510 856 565 803 b 331 446 565 493 510 446 z "},"₲":{"ha":951,"x_min":0,"x_max":0,"o":"m 572 517 l 572 411 l 722 411 l 722 111 b 565 94 679 99 610 94 l 531 94 l 531 867 b 571 868 543 868 557 868 b 817 829 668 868 753 854 l 817 940 b 565 978 760 964 654 978 l 531 978 l 531 1093 l 444 1093 l 444 969 b 100 482 228 936 100 799 b 444 -8 100 133 228 17 l 444 -192 l 531 -192 l 531 -14 l 551 -14 b 842 26 674 -14 772 4 l 842 517 z m 229 482 b 444 857 229 728 307 825 l 444 104 b 229 482 304 129 229 221 z "},"₴":{"ha":800,"x_min":0,"x_max":0,"o":"m 635 564 l 786 564 l 786 653 l 675 653 b 679 718 678 672 679 693 b 400 965 679 879 590 965 b 136 932 306 965 182 949 l 136 829 b 397 865 192 850 308 865 b 569 718 519 865 569 843 b 563 653 569 692 568 671 l 14 653 l 14 564 l 438 564 b 372 546 418 558 397 551 b 158 454 276 521 204 494 l 14 454 l 14 367 l 101 367 b 89 278 93 342 89 311 b 410 13 89 90 188 13 b 694 46 529 13 646 28 l 694 154 b 411 115 636 133 526 115 b 199 268 267 115 199 149 b 215 367 199 311 203 342 l 786 367 l 786 454 l 369 454 l 415 467 b 635 564 525 496 594 519 z "},"₭":{"ha":853,"x_min":0,"x_max":0,"o":"m 665 0 l 826 0 l 464 458 l 797 458 l 797 563 l 461 563 l 814 964 l 658 964 l 322 563 l 253 563 l 253 964 l 128 964 l 128 563 l 0 563 l 0 458 l 128 458 l 128 0 l 253 0 l 253 458 l 317 458 z "},"₶":{"ha":800,"x_min":0,"x_max":0,"o":"m 692 92 b 583 236 600 92 583 119 l 583 650 l 769 650 l 769 750 l 583 750 l 583 928 l 464 928 l 464 750 l 251 750 l 251 928 l 132 928 l 132 750 l 21 750 l 21 650 l 132 650 l 132 0 l 251 0 l 251 650 l 464 650 l 464 229 b 689 -8 464 32 524 -8 b 774 -1 721 -8 744 -6 l 774 100 b 692 92 747 94 725 92 z "},"₼":{"ha":949,"x_min":0,"x_max":0,"o":"m 536 732 l 536 964 l 413 964 l 413 732 b 96 256 201 711 96 571 l 96 0 l 218 0 l 218 226 b 413 624 218 507 263 603 l 413 97 l 536 97 l 536 624 b 731 226 679 604 731 508 l 731 0 l 853 0 l 853 256 b 536 732 853 582 747 713 z "},"₥":{"ha":1279,"x_min":0,"x_max":0,"o":"m 914 764 b 843 758 890 764 867 763 l 957 978 l 851 978 l 679 646 b 463 764 646 718 579 764 b 246 651 372 764 292 740 l 246 750 l 126 750 l 126 0 l 246 0 l 246 521 b 444 657 283 636 351 657 b 582 475 554 657 582 590 l 582 460 l 243 -192 l 349 -192 l 582 257 l 582 0 l 701 0 l 701 486 l 776 631 b 896 657 810 650 851 657 b 1040 475 1008 657 1040 590 l 1040 0 l 1160 0 l 1160 518 b 914 764 1160 663 1089 764 z "},"₦":{"ha":868,"x_min":0,"x_max":0,"o":"m 833 544 l 833 633 l 717 633 l 717 964 l 610 964 l 610 633 l 442 633 l 324 964 l 143 964 l 143 633 l 33 633 l 33 544 l 143 544 l 143 435 l 33 435 l 33 347 l 143 347 l 143 0 l 250 0 l 250 347 l 442 347 l 568 0 l 717 0 l 717 347 l 833 347 l 833 435 l 717 435 l 717 544 z m 250 854 l 258 854 l 339 633 l 250 633 z m 250 435 l 250 544 l 371 544 l 411 435 z m 610 435 l 513 435 l 474 544 l 610 544 z m 610 188 l 601 188 l 544 347 l 610 347 z "},"₻":{"ha":1042,"x_min":0,"x_max":0,"o":"m 624 -12 b 788 14 685 -12 738 -4 l 788 124 b 618 96 724 103 674 96 b 383 279 474 96 400 146 l 492 378 l 588 267 l 694 375 l 715 350 b 850 274 756 306 799 274 b 976 464 932 274 976 351 b 700 719 976 625 910 719 l 365 719 b 186 976 365 889 322 976 b 18 807 88 976 18 908 b 239 615 18 681 97 615 l 264 615 l 264 468 b 275 289 264 403 265 342 l 164 192 l 213 126 l 296 201 b 624 -12 335 64 438 -12 z m 204 719 b 104 821 142 719 104 757 b 181 899 104 869 132 899 b 264 761 232 899 264 847 l 264 719 z m 843 351 b 754 418 811 351 783 383 l 694 489 l 593 388 l 504 494 l 369 374 b 365 465 367 400 365 432 l 365 615 l 714 615 b 897 465 860 615 897 557 b 843 351 897 400 886 351 z "},"₱":{"ha":799,"x_min":0,"x_max":0,"o":"m 782 757 l 667 757 b 328 964 636 903 540 964 l 132 964 l 132 757 l 21 757 l 21 668 l 132 668 l 132 557 l 21 557 l 21 468 l 132 468 l 132 0 l 256 0 l 256 265 l 328 265 b 664 468 522 265 626 318 l 782 468 l 782 557 l 678 557 b 679 618 679 576 679 597 b 678 668 679 636 679 653 l 782 668 z m 256 857 l 318 857 b 533 757 440 857 504 831 l 256 757 z m 553 618 b 551 557 553 596 553 575 l 256 557 l 256 668 l 551 668 b 553 618 553 653 553 636 z m 318 368 l 256 368 l 256 468 l 533 468 b 318 368 506 389 440 368 z "},"₨":{"ha":1518,"x_min":0,"x_max":0,"o":"m 740 679 b 372 964 740 892 642 964 l 128 964 l 128 0 l 253 0 l 253 388 l 372 388 b 419 389 389 388 404 388 l 685 0 l 832 0 l 543 403 b 740 679 676 433 740 513 z m 361 492 l 253 492 l 253 856 l 361 856 b 614 679 540 856 614 825 b 361 492 614 515 540 492 z m 1203 439 b 1060 558 1086 465 1060 482 b 1218 667 1060 643 1113 667 b 1397 638 1288 667 1354 654 l 1406 739 b 1217 764 1369 753 1289 764 b 947 561 1039 764 947 682 b 1157 344 947 435 992 382 b 1325 204 1300 311 1325 293 b 1151 89 1325 117 1265 89 b 935 118 1083 89 988 103 l 935 15 b 1153 -8 976 3 1081 -8 b 1438 208 1336 -8 1438 60 b 1203 439 1438 353 1375 400 z "},"₪":{"ha":1047,"x_min":0,"x_max":0,"o":"m 111 964 l 111 0 l 222 0 l 222 868 l 400 868 b 583 656 518 868 583 796 l 583 247 l 693 247 l 693 658 b 414 964 693 840 607 964 z m 458 717 l 347 717 l 347 0 l 642 0 b 936 308 853 0 936 132 l 936 964 l 826 964 l 826 310 b 632 96 826 171 761 96 l 458 96 z "},"₷":{"ha":972,"x_min":0,"x_max":0,"o":"m 150 -110 l 224 -110 l 224 26 b 378 -6 272 11 325 0 l 378 -110 l 453 -110 l 453 -12 b 518 -14 475 -14 497 -14 b 606 -8 549 -14 578 -12 l 606 -110 l 681 -110 l 681 4 b 893 260 821 40 893 129 b 599 556 893 449 815 506 b 403 718 426 596 403 628 b 601 869 403 843 467 869 b 842 831 689 869 786 851 l 842 944 b 600 979 796 963 692 979 b 279 718 382 979 279 893 b 549 451 279 547 350 499 b 771 257 731 408 771 375 b 681 99 771 185 742 129 l 681 169 b 558 321 681 281 636 321 b 443 250 519 321 472 301 l 440 250 b 328 321 424 299 386 321 b 213 251 282 321 240 304 l 208 251 b 118 319 194 300 165 319 b 29 222 57 319 29 271 b 150 57 29 151 75 96 z m 150 135 b 89 224 110 158 89 192 b 113 257 89 243 94 257 b 150 150 142 257 150 225 z m 378 74 b 224 104 325 81 272 90 l 224 117 b 313 257 224 200 253 257 b 378 157 357 257 378 224 z m 511 67 b 453 68 492 67 474 67 l 453 135 b 539 257 453 211 490 257 b 606 161 586 257 606 233 l 606 75 b 511 67 578 69 546 67 z "},"₸":{"ha":733,"x_min":0,"x_max":0,"o":"m 22 964 l 22 854 l 710 854 l 710 964 z m 710 757 l 22 757 l 22 649 l 304 649 l 304 0 l 429 0 l 429 649 l 710 649 z "},"₮":{"ha":733,"x_min":0,"x_max":0,"o":"m 710 853 l 710 964 l 22 964 l 22 853 l 304 853 l 304 597 l 94 478 l 140 401 l 304 496 l 304 369 l 97 251 l 143 175 l 304 268 l 304 0 l 429 0 l 429 339 l 629 454 l 585 531 l 429 442 l 429 567 l 626 681 l 582 757 l 429 669 l 429 853 z "},"₾":{"ha":801,"x_min":0,"x_max":0,"o":"m 372 106 b 200 551 229 276 200 408 b 271 824 200 693 226 778 l 271 536 l 358 536 l 358 869 b 401 874 372 872 386 874 b 442 871 415 874 429 872 l 442 536 l 528 536 l 528 829 b 596 567 571 785 596 704 l 596 536 l 711 536 l 711 575 b 528 958 711 813 639 919 l 528 1093 l 442 1093 l 442 976 b 401 978 429 978 415 978 b 358 975 388 978 372 976 l 358 1093 l 271 1093 l 271 954 b 74 553 160 910 74 796 b 236 124 74 385 128 257 l 250 106 l 79 106 l 79 0 l 718 0 l 718 106 z "},"₩":{"ha":1068,"x_min":0,"x_max":0,"o":"m 1049 544 l 1049 633 l 967 633 l 1031 964 l 914 964 l 858 633 l 672 633 l 611 947 l 461 947 l 400 633 l 214 633 l 158 964 l 38 964 l 100 633 l 19 633 l 19 544 l 117 544 l 138 435 l 19 435 l 19 347 l 154 347 l 219 0 l 369 0 l 438 347 l 626 347 l 693 0 l 843 0 l 911 347 l 1049 347 l 1049 435 l 928 435 l 949 544 z m 529 815 l 538 815 l 572 633 l 493 633 z m 229 544 l 383 544 l 363 435 l 247 435 z m 454 435 l 476 544 l 589 544 l 610 435 z m 825 435 l 710 435 l 689 544 l 843 544 z m 306 142 l 297 142 l 263 347 l 346 347 z m 775 142 l 767 142 l 726 347 l 810 347 z "},"Ω":{"ha":1032,"x_min":0,"x_max":0,"o":"m 114 0 l 426 0 l 426 90 b 231 526 276 244 231 369 b 515 872 231 717 281 872 b 801 526 751 872 801 717 b 604 90 801 369 754 244 l 604 0 l 918 0 l 918 99 l 744 99 b 929 542 856 217 929 347 b 515 978 929 838 789 978 b 101 542 243 978 101 838 b 286 99 101 347 175 217 l 114 99 z "},"∆":{"ha":926,"x_min":0,"x_max":0,"o":"m 547 964 l 381 964 l 64 128 l 64 0 l 863 0 l 863 128 z m 185 114 l 456 847 l 472 847 l 738 114 z "},"̈":{"ha":0,"x_min":0,"x_max":0,"o":"m -360 888 b -290 958 -311 888 -290 897 b -360 1028 -290 1019 -311 1028 b -432 958 -412 1028 -432 1019 b -360 888 -432 897 -412 888 z m -119 888 b -49 958 -69 888 -49 897 b -119 1028 -49 1019 -69 1028 b -190 958 -171 1028 -190 1019 b -119 888 -190 897 -171 888 z "},"̇":{"ha":0,"x_min":0,"x_max":0,"o":"m -239 888 b -168 958 -189 888 -168 897 b -239 1028 -168 1019 -189 1028 b -311 958 -292 1028 -311 1019 b -239 888 -311 897 -292 888 z "},"̀":{"ha":0,"x_min":0,"x_max":0,"o":"m -229 854 l -132 854 l -249 1046 l -403 1046 z "},"́":{"ha":0,"x_min":0,"x_max":0,"o":"m -356 854 l -258 854 l -86 1046 l -239 1046 z "},"̋":{"ha":0,"x_min":0,"x_max":0,"o":"m -439 854 l -343 854 l -171 1046 l -322 1046 z m -214 854 l -118 854 l 54 1046 l -97 1046 z "},"̂":{"ha":0,"x_min":0,"x_max":0,"o":"m -461 854 l -364 854 l -240 972 l -118 854 l -21 854 l -165 1046 l -317 1046 z "},"̌":{"ha":0,"x_min":0,"x_max":0,"o":"m -317 854 l -165 854 l -21 1046 l -118 1046 l -242 928 l -364 1046 l -461 1046 z "},"̆":{"ha":0,"x_min":0,"x_max":0,"o":"m -239 825 b -18 1019 -110 825 -46 896 l -121 1019 b -239 919 -135 958 -179 919 b -360 1019 -299 919 -344 958 l -461 1019 b -239 825 -433 896 -368 825 z "},"̊":{"ha":0,"x_min":0,"x_max":0,"o":"m -239 853 b -97 994 -147 853 -97 907 b -239 1132 -97 1082 -149 1132 b -383 994 -329 1132 -383 1083 b -239 853 -383 906 -329 853 z m -239 931 b -300 990 -281 931 -300 950 b -239 1056 -300 1036 -281 1056 b -178 990 -197 1056 -178 1036 b -239 931 -178 950 -197 931 z "},"̃":{"ha":0,"x_min":0,"x_max":0,"o":"m -137 876 b -3 1044 -64 876 -10 940 l -97 1051 b -144 972 -101 997 -115 972 b -215 1000 -164 972 -186 981 b -340 1051 -260 1029 -287 1051 b -474 883 -417 1051 -467 988 l -379 876 b -335 956 -375 931 -362 956 b -258 914 -311 956 -286 933 b -137 876 -229 893 -197 876 z "},"̄":{"ha":0,"x_min":0,"x_max":0,"o":"m -443 910 l -37 910 l -37 1008 l -443 1008 z "},"̓":{"ha":0,"x_min":0,"x_max":0,"o":"m -336 894 l -249 894 b -143 1088 -197 951 -143 1033 l -276 1088 b -336 894 -276 1029 -304 954 z "},"̧":{"ha":0,"x_min":0,"x_max":0,"o":"m -197 -71 b -232 -74 -210 -71 -221 -72 l -171 0 l -239 38 l -354 -106 l -321 -140 b -260 -135 -299 -136 -278 -135 b -207 -169 -221 -135 -207 -147 b -308 -219 -207 -208 -254 -219 b -393 -214 -336 -219 -362 -218 l -393 -278 b -301 -285 -361 -282 -331 -285 b -87 -165 -147 -285 -87 -236 b -197 -71 -87 -101 -129 -71 z "},"̨":{"ha":0,"x_min":0,"x_max":0,"o":"m -214 -283 b -125 -267 -186 -283 -157 -278 l -125 -200 b -189 -210 -149 -207 -169 -210 b -268 -126 -239 -210 -268 -176 b -169 0 -268 -65 -235 -31 l -235 17 b -387 -156 -310 -11 -387 -78 b -214 -283 -387 -246 -312 -283 z "},"΄":{"ha":481,"x_min":0,"x_max":0,"o":"m 147 853 l 235 853 l 333 1047 l 192 1047 z "},"΅":{"ha":481,"x_min":0,"x_max":0,"o":"m 179 932 l 265 932 l 363 1126 l 221 1126 z m 85 888 b 154 958 133 888 154 897 b 85 1028 154 1019 133 1028 b 13 958 32 1028 13 1019 b 85 888 13 897 32 888 z m 397 888 b 468 958 447 888 468 897 b 397 1028 468 1019 447 1028 b 326 958 346 1028 326 1019 b 397 888 326 897 346 888 z "}}}
